<svg width="24" height="24" viewBox="0 0 24 24" fill="none" xmlns="http://www.w3.org/2000/svg">
<g clip-path="url(#clip0_151_3495)">
<path d="M9.4002 15.9992L3 15.9992C1.8954 15.9992 1 15.1038 1 13.9992V11.8948C1 11.6336 1.0512 11.3749 1.1506 11.1333L4.245 3.61841C4.3993 3.24371 4.7645 2.99921 5.1697 2.99921L22 2.99921C22.5523 2.99921 23 3.44691 23 3.99921L23 13.9992C23 14.5515 22.5523 14.9992 22 14.9992H18.5182C18.1932 14.9992 17.8886 15.1571 17.7012 15.4225L12.2478 23.1482C12.1053 23.35 11.8367 23.4175 11.6157 23.307L9.8016 22.4C8.75 21.8742 8.2069 20.6866 8.4969 19.5472L9.4002 15.9992ZM17 13.4117L17 4.99921L5.8394 4.99921L3 11.8948V13.9992H9.4002C10.7049 13.9992 11.6602 15.2282 11.3384 16.4926L10.4351 20.0406C10.3771 20.2685 10.4857 20.506 10.6961 20.6111L11.3572 20.9417L16.0672 14.2691C16.3171 13.9151 16.6366 13.6249 17 13.4117ZM19 12.9992H21L21 4.99921H19L19 12.9992Z" fill="black"/>
</g>
<defs>
<clipPath id="clip0_151_3495">
<rect width="24" height="24" fill="white" transform="matrix(-1 0 0 -1 24 23.9995)"/>
</clipPath>
</defs>
</svg>
