<svg width="24" height="24" viewBox="0 0 24 24" fill="none" xmlns="http://www.w3.org/2000/svg">
<path d="M14.5998 7.99984H21C22.1046 7.99984 23 8.89527 23 9.99981V12.1042C23 12.3654 22.9488 12.6241 22.8494 12.8657L19.755 20.3806C19.6007 20.7553 19.2355 20.9998 18.8303 20.9998H2C1.44772 20.9998 1 20.5521 1 19.9998V9.99981C1 9.44755 1.44772 8.99984 2 8.99984H5.48184C5.80677 8.99984 6.11143 8.84197 6.29881 8.57652L11.7522 0.850867C11.8947 0.648998 12.1633 0.58149 12.3843 0.691995L14.1984 1.59902C15.25 2.12485 15.7931 3.31243 15.5031 4.45186L14.5998 7.99984ZM7 10.5873V18.9998H18.1606L21 12.1042V9.99981H14.5998C13.2951 9.99981 12.3398 8.77079 12.6616 7.50642L13.5649 3.95845C13.6229 3.73056 13.5143 3.49304 13.3039 3.38788L12.6428 3.05731L7.93275 9.72989C7.68285 10.0839 7.36341 10.3741 7 10.5873ZM5 10.9998H3V18.9998H5V10.9998Z" fill="black"/>
</svg>
