<svg width="188" height="32" viewBox="0 0 188 32" fill="none" xmlns="http://www.w3.org/2000/svg">
<path d="M24.4483 24.452H20.8943V18.8829C20.8943 17.5549 20.8673 15.846 19.0423 15.846C17.1893 15.846 16.9063 17.2911 16.9063 18.7849V24.452H13.3523V13H16.7663V14.5609H16.8123C17.2893 13.6609 18.4493 12.711 20.1823 12.711C23.7833 12.711 24.4493 15.0811 24.4493 18.166L24.4483 24.452ZM9.33831 11.433C8.19431 11.433 7.27531 10.507 7.27531 9.368C7.27531 8.23 8.19531 7.305 9.33831 7.305C10.4783 7.305 11.4023 8.23 11.4023 9.368C11.4023 10.507 10.4773 11.433 9.33831 11.433ZM11.1203 24.452H7.55631V13H11.1203V24.452ZM26.2263 4H5.77231C4.79331 4 4.00131 4.774 4.00131 5.729V26.2711C4.00131 27.2269 4.79331 28 5.77231 28H26.2233C27.2013 28 28.0013 27.2269 28.0013 26.2711V5.729C28.0013 4.774 27.2013 4 26.2233 4H26.2263Z" fill="#FEFEFE"/>
<path d="M81.6167 7.5414C80.5988 7.99167 79.5193 8.2874 78.4141 8.41881C79.5785 7.72176 80.4499 6.6252 80.8657 5.3334C79.7716 5.98348 78.574 6.44102 77.3251 6.68614C76.2708 5.56141 74.7973 4.92404 73.2557 4.92578C70.1768 4.92578 67.6796 7.42214 67.6796 10.5024C67.6796 10.9394 67.7297 11.3632 67.8235 11.7721C63.1873 11.5387 59.0801 9.32007 56.329 5.94588C55.8337 6.79689 55.5734 7.76424 55.5747 8.74889C55.5747 10.6835 56.5595 12.391 58.0553 13.3907C57.1698 13.3627 56.3038 13.1235 55.5296 12.693C55.5287 12.7164 55.5287 12.7398 55.5287 12.762C55.5287 15.4645 57.4509 17.7189 60.0027 18.2308C59.5237 18.3604 59.0298 18.4259 58.5336 18.4255C58.1733 18.4255 57.8236 18.3923 57.4837 18.3271C58.1938 20.542 60.2518 22.1545 62.6928 22.1988C60.7175 23.7491 58.2783 24.5901 55.7672 24.5865C55.3228 24.5869 54.8788 24.5607 54.4375 24.5081C56.9867 26.1469 59.954 27.0167 62.9846 27.0135C73.2421 27.0135 78.8507 18.5167 78.8507 11.1481C78.8507 10.9071 78.8448 10.6651 78.8341 10.4266C79.9257 9.63793 80.868 8.66089 81.6167 7.5414Z" fill="white"/>
<path d="M120.001 12.0001C117.791 12.0001 116.001 13.7909 116.001 16.0001C116.001 18.2098 117.792 20.0001 120.001 20.0001C122.211 20.0001 124.001 18.2093 124.001 16.0001C124.001 13.7903 122.211 12.0001 120.001 12.0001ZM120.001 9.33342C123.682 9.33342 126.668 12.3162 126.668 16.0001C126.668 19.6807 123.685 22.6667 120.001 22.6667C116.321 22.6667 113.335 19.6839 113.335 16.0001C113.335 12.3195 116.317 9.33342 120.001 9.33342ZM128.668 8.99895C128.668 9.91909 127.92 10.6656 127.001 10.6656C126.081 10.6656 125.335 9.91795 125.335 8.99895C125.335 8.07995 126.082 7.33342 127.001 7.33342C127.919 7.33225 128.668 8.07995 128.668 8.99895ZM120.001 5.33341C116.702 5.33341 116.164 5.34215 114.63 5.41048C113.584 5.45956 112.883 5.60017 112.232 5.85297C111.654 6.0774 111.236 6.34539 110.791 6.79015C110.345 7.23661 110.077 7.65292 109.854 8.23185C109.6 8.88451 109.46 9.58423 109.412 10.6283C109.343 12.1003 109.335 12.6148 109.335 16.0001C109.335 19.2994 109.343 19.8371 109.412 21.3715C109.461 22.4166 109.602 23.1185 109.854 23.7681C110.079 24.3475 110.347 24.7659 110.79 25.2086C111.238 25.6562 111.656 25.9246 112.229 26.1459C112.888 26.4007 113.589 26.5415 114.629 26.5897C116.102 26.6586 116.616 26.6667 120.001 26.6667C123.301 26.6667 123.838 26.6579 125.373 26.5897C126.416 26.5407 127.118 26.3995 127.769 26.1475C128.347 25.9231 128.767 25.6537 129.21 25.2114C129.658 24.7625 129.926 24.3459 130.148 23.7711C130.402 23.1145 130.543 22.4131 130.591 21.3719C130.66 19.8998 130.668 19.3853 130.668 16.0001C130.668 12.7008 130.659 12.163 130.591 10.6286C130.542 9.58549 130.401 8.88207 130.148 8.23099C129.925 7.65392 129.656 7.23521 129.211 6.79015C128.764 6.34295 128.349 6.07599 127.769 5.85264C127.117 5.59947 126.417 5.45869 125.373 5.41049C123.901 5.34148 123.387 5.33341 120.001 5.33341ZM120.001 2.66675C123.623 2.66675 124.076 2.68008 125.498 2.74675C126.917 2.81231 127.885 3.03675 128.735 3.36675C129.613 3.70564 130.356 4.16341 131.097 4.90452C131.837 5.64564 132.295 6.39008 132.635 7.26675C132.963 8.11564 133.188 9.08452 133.255 10.5034C133.318 11.9256 133.335 12.3779 133.335 16.0001C133.335 19.6223 133.321 20.0745 133.255 21.4967C133.189 22.9157 132.963 23.8834 132.635 24.7334C132.296 25.6123 131.837 26.3545 131.097 27.0957C130.356 27.8357 129.61 28.2934 128.735 28.6334C127.885 28.9623 126.917 29.1868 125.498 29.2534C124.076 29.3167 123.623 29.3334 120.001 29.3334C116.379 29.3334 115.927 29.3201 114.505 29.2534C113.086 29.1878 112.119 28.9623 111.268 28.6334C110.39 28.2945 109.647 27.8357 108.906 27.0957C108.165 26.3545 107.708 25.609 107.368 24.7334C107.038 23.8834 106.815 22.9157 106.748 21.4967C106.685 20.0745 106.668 19.6223 106.668 16.0001C106.668 12.3779 106.681 11.9256 106.748 10.5034C106.814 9.08342 107.038 8.11675 107.368 7.26675C107.707 6.38897 108.165 5.64564 108.906 4.90452C109.647 4.16341 110.391 3.70675 111.268 3.36675C112.118 3.03675 113.085 2.81341 114.505 2.74675C115.927 2.68341 116.379 2.66675 120.001 2.66675Z" fill="white"/>
<path d="M176.537 28V18.7125H179.646L180.112 15.102H176.537V12.7969C176.537 11.7515 176.827 11.0391 178.326 11.0391L180.238 11.0382V7.80901C179.907 7.76509 178.772 7.66675 177.452 7.66675C174.695 7.66675 172.808 9.34931 172.808 12.4394V15.102H169.69V18.7125H172.808V28H161.333C160.597 28 160 27.4031 160 26.6667V5.33333C160 4.59696 160.597 4 161.333 4H182.667C183.403 4 184 4.59696 184 5.33333V26.6667C184 27.4031 183.403 28 182.667 28H176.537Z" fill="#FFFCFC"/>
</svg>
