<svg width="25" height="24" viewBox="0 0 25 24" fill="none" xmlns="http://www.w3.org/2000/svg">
<path d="M9.41406 19H12.4141V12.9416L8.41406 9.45402L4.41406 12.9416V19H7.41406V15H9.41406V19ZM21.4141 21H3.41406C2.86178 21 2.41406 20.5523 2.41406 20V12.4868C2.41406 12.1978 2.53907 11.9229 2.75688 11.733L6.41406 8.54435V4C6.41406 3.44772 6.86178 3 7.41406 3H21.4141C21.9664 3 22.4141 3.44772 22.4141 4V20C22.4141 20.5523 21.9664 21 21.4141 21ZM16.4141 11V13H18.4141V11H16.4141ZM16.4141 15V17H18.4141V15H16.4141ZM16.4141 7V9H18.4141V7H16.4141ZM12.4141 7V9H14.4141V7H12.4141Z" fill="white"/>
</svg>
