<svg width="24" height="24" viewBox="0 0 24 24" fill="none" xmlns="http://www.w3.org/2000/svg">
<path d="M9.4002 15.9997L3 15.9997C1.8954 15.9997 1 15.1042 1 13.9997V11.8953C1 11.6341 1.0512 11.3754 1.1506 11.1338L4.245 3.6189C4.3993 3.2442 4.7645 2.9997 5.1697 2.9997L22 2.9997C22.5523 2.9997 23 3.4474 23 3.9997L23 13.9997C23 14.552 22.5523 14.9997 22 14.9997H18.5182C18.1932 14.9997 17.8886 15.1575 17.7012 15.423L12.2478 23.1486C12.1053 23.3505 11.8367 23.418 11.6157 23.3075L9.8016 22.4005C8.75 21.8747 8.2069 20.6871 8.4969 19.5476L9.4002 15.9997ZM17 13.4122L17 4.9997L5.8394 4.9997L3 11.8953V13.9997H9.4002C10.7049 13.9997 11.6602 15.2287 11.3384 16.4931L10.4351 20.0411C10.3771 20.2689 10.4857 20.5065 10.6961 20.6116L11.3572 20.9422L16.0672 14.2696C16.3171 13.9156 16.6366 13.6254 17 13.4122ZM19 12.9997H21L21 4.9997H19L19 12.9997Z" fill="black"/>
</svg>
