<svg width="24" height="24" viewBox="0 0 24 24" fill="none" xmlns="http://www.w3.org/2000/svg">
<path d="M14.5998 8.00009H21C22.1046 8.00009 23 8.89552 23 10.0001V12.1045C23 12.3657 22.9488 12.6244 22.8494 12.866L19.755 20.3809C19.6007 20.7556 19.2355 21.0001 18.8303 21.0001H2C1.44772 21.0001 1 20.5524 1 20.0001V10.0001C1 9.4478 1.44772 9.00009 2 9.00009H5.48184C5.80677 9.00009 6.11143 8.84222 6.29881 8.57677L11.7522 0.851111C11.8947 0.649242 12.1633 0.581734 12.3843 0.692239L14.1984 1.59927C15.25 2.1251 15.7931 3.31268 15.5031 4.45211L14.5998 8.00009ZM7 10.5876V19.0001H18.1606L21 12.1045V10.0001H14.5998C13.2951 10.0001 12.3398 8.77104 12.6616 7.50667L13.5649 3.9587C13.6229 3.73081 13.5143 3.49329 13.3039 3.38813L12.6428 3.05756L7.93275 9.73014C7.68285 10.0842 7.36341 10.3744 7 10.5876ZM5 11.0001H3V19.0001H5V11.0001Z" fill="black"/>
</svg>
