<svg width="24" height="25" viewBox="0 0 24 25" fill="none" xmlns="http://www.w3.org/2000/svg">
<path d="M14.5998 8.45248H21C22.1046 8.45248 23 9.34791 23 10.4524V12.5568C23 12.818 22.9488 13.0767 22.8494 13.3183L19.755 20.8332C19.6007 21.2079 19.2355 21.4524 18.8303 21.4524H2C1.44772 21.4524 1 21.0047 1 20.4524V10.4524C1 9.90019 1.44772 9.45248 2 9.45248H5.48184C5.80677 9.45248 6.11143 9.29461 6.29881 9.02916L11.7522 1.3035C11.8947 1.10163 12.1633 1.03413 12.3843 1.14463L14.1984 2.05166C15.25 2.57749 15.7931 3.76507 15.5031 4.9045L14.5998 8.45248ZM7 11.0399V19.4524H18.1606L21 12.5568V10.4524H14.5998C13.2951 10.4524 12.3398 9.22343 12.6616 7.95906L13.5649 4.41109C13.6229 4.1832 13.5143 3.94568 13.3039 3.84052L12.6428 3.50995L7.93275 10.1825C7.68285 10.5365 7.36341 10.8267 7 11.0399ZM5 11.4524H3V19.4524H5V11.4524Z" fill="black"/>
</svg>
