<svg width="24" height="24" viewBox="0 0 24 24" fill="none" xmlns="http://www.w3.org/2000/svg">
<g clip-path="url(#clip0_178_1074)">
<path d="M9.4002 15.9995L3 15.9995C1.8954 15.9995 1 15.1041 1 13.9996V11.8952C1 11.634 1.0512 11.3753 1.1506 11.1337L4.245 3.61878C4.3993 3.24408 4.7645 2.99958 5.1697 2.99958L22 2.99958C22.5523 2.99958 23 3.44728 23 3.99958L23 13.9996C23 14.5518 22.5523 14.9995 22 14.9995H18.5182C18.1932 14.9995 17.8886 15.1574 17.7012 15.4229L12.2478 23.1485C12.1053 23.3504 11.8367 23.4179 11.6157 23.3074L9.8016 22.4004C8.75 21.8745 8.2069 20.687 8.4969 19.5475L9.4002 15.9995ZM17 13.4121L17 4.99958L5.8394 4.99958L3 11.8952V13.9996H9.4002C10.7049 13.9996 11.6602 15.2286 11.3384 16.493L10.4351 20.0409C10.3771 20.2688 10.4857 20.5063 10.6961 20.6115L11.3572 20.9421L16.0672 14.2695C16.3171 13.9155 16.6366 13.6253 17 13.4121ZM19 12.9996H21L21 4.99958H19L19 12.9996Z" fill="black"/>
</g>
<defs>
<clipPath id="clip0_178_1074">
<rect width="24" height="24" fill="white" transform="matrix(-1 0 0 -1 24 23.9999)"/>
</clipPath>
</defs>
</svg>
