<svg width="24" height="24" viewBox="0 0 24 24" fill="none" xmlns="http://www.w3.org/2000/svg">
<g clip-path="url(#clip0_151_3310)">
<path d="M9.4002 15.9994L3 15.9994C1.8954 15.9994 1 15.104 1 13.9995V11.8951C1 11.6339 1.0512 11.3752 1.1506 11.1336L4.245 3.61866C4.3993 3.24396 4.7645 2.99946 5.1697 2.99946L22 2.99946C22.5523 2.99946 23 3.44716 23 3.99946L23 13.9995C23 14.5517 22.5523 14.9994 22 14.9994H18.5182C18.1932 14.9994 17.8886 15.1573 17.7012 15.4227L12.2478 23.1484C12.1053 23.3503 11.8367 23.4178 11.6157 23.3073L9.8016 22.4002C8.75 21.8744 8.2069 20.6868 8.4969 19.5474L9.4002 15.9994ZM17 13.412L17 4.99946L5.8394 4.99946L3 11.8951V13.9995H9.4002C10.7049 13.9995 11.6602 15.2285 11.3384 16.4928L10.4351 20.0408C10.3771 20.2687 10.4857 20.5062 10.6961 20.6114L11.3572 20.942L16.0672 14.2694C16.3171 13.9154 16.6366 13.6252 17 13.412ZM19 12.9995H21L21 4.99946H19L19 12.9995Z" fill="black"/>
</g>
<defs>
<clipPath id="clip0_151_3310">
<rect width="24" height="24" fill="white" transform="matrix(-1 0 0 -1 24 23.9998)"/>
</clipPath>
</defs>
</svg>
