<svg width="24" height="24" viewBox="0 0 24 24" fill="none" xmlns="http://www.w3.org/2000/svg">
<path d="M14.5998 8.00021H21C22.1046 8.00021 23 8.89564 23 10.0002V12.1046C23 12.3658 22.9488 12.6245 22.8494 12.8661L19.755 20.381C19.6007 20.7557 19.2355 21.0002 18.8303 21.0002H2C1.44772 21.0002 1 20.5525 1 20.0002V10.0002C1 9.44792 1.44772 9.00021 2 9.00021H5.48184C5.80677 9.00021 6.11143 8.84234 6.29881 8.57689L11.7522 0.851233C11.8947 0.649364 12.1633 0.581856 12.3843 0.692361L14.1984 1.59939C15.25 2.12522 15.7931 3.3128 15.5031 4.45223L14.5998 8.00021ZM7 10.5877V19.0002H18.1606L21 12.1046V10.0002H14.5998C13.2951 10.0002 12.3398 8.77116 12.6616 7.50679L13.5649 3.95882C13.6229 3.73093 13.5143 3.49341 13.3039 3.38825L12.6428 3.05768L7.93275 9.73026C7.68285 10.0843 7.36341 10.3745 7 10.5877ZM5 11.0002H3V19.0002H5V11.0002Z" fill="black"/>
</svg>
