<svg width="24" height="25" viewBox="0 0 24 25" fill="none" xmlns="http://www.w3.org/2000/svg">
<g clip-path="url(#clip0_151_3539)">
<path d="M9.4002 16.8805L3 16.8805C1.8954 16.8805 1 15.9851 1 14.8806V12.7762C1 12.515 1.0512 12.2563 1.1506 12.0147L4.245 4.49976C4.3993 4.12506 4.7645 3.88056 5.1697 3.88056L22 3.88056C22.5523 3.88056 23 4.32826 23 4.88056L23 14.8806C23 15.4328 22.5523 15.8805 22 15.8805H18.5182C18.1932 15.8805 17.8886 16.0384 17.7012 16.3038L12.2478 24.0295C12.1053 24.2314 11.8367 24.2989 11.6157 24.1884L9.8016 23.2813C8.75 22.7555 8.2069 21.5679 8.4969 20.4285L9.4002 16.8805ZM17 14.2931V5.88056L5.8394 5.88056L3 12.7762V14.8806L9.4002 14.8806C10.7049 14.8806 11.6602 16.1096 11.3384 17.3739L10.4351 20.9219C10.3771 21.1498 10.4857 21.3873 10.6961 21.4925L11.3572 21.8231L16.0672 15.1505C16.3171 14.7965 16.6366 14.5063 17 14.2931ZM19 13.8806H21V5.88056H19V13.8806Z" fill="black"/>
</g>
<defs>
<clipPath id="clip0_151_3539">
<rect width="24" height="24" fill="white" transform="matrix(-1 0 0 -1 24 24.8809)"/>
</clipPath>
</defs>
</svg>
