<svg width="29" height="28" viewBox="0 0 29 28" fill="none" xmlns="http://www.w3.org/2000/svg">
<path d="M25.0859 19.1567V23.2821C25.0859 23.8946 24.6124 24.4028 24.0015 24.446C23.4912 24.482 23.075 24.5 22.7526 24.5C12.4432 24.5 4.08594 16.1427 4.08594 5.83333C4.08594 5.51099 4.10396 5.09468 4.14001 4.58442C4.1832 3.97353 4.69137 3.5 5.30377 3.5H9.42939C9.72885 3.5 9.97966 3.72682 10.0097 4.02477C10.0367 4.29225 10.0618 4.507 10.085 4.66902C10.321 6.31717 10.8031 7.88592 11.4928 9.33687C11.6035 9.56976 11.5313 9.84852 11.3214 9.9984L8.80341 11.7971C10.3364 15.3779 13.208 18.2496 16.7888 19.7826L18.5842 17.2689C18.736 17.0565 19.0181 16.9835 19.2538 17.0954C20.7046 17.7845 22.2732 18.266 23.9211 18.5015C24.0821 18.5246 24.2955 18.5494 24.5612 18.5762C24.8591 18.6063 25.0859 18.8572 25.0859 19.1567Z" fill="white"/>
</svg>
