<svg width="324" height="294" viewBox="0 0 324 294" fill="none" xmlns="http://www.w3.org/2000/svg">
<g clip-path="url(#clip0_178_42)">
<path d="M323.212 224.851H0.212097V224.998H323.212V224.851Z" fill="#EBEBEB"/>
<path d="M290.847 234.312H269.452V234.459H290.847V234.312Z" fill="#EBEBEB"/>
<path d="M214.18 235.911H208.566V236.058H214.18V235.911Z" fill="#EBEBEB"/>
<path d="M268.806 228.855H256.409V229.002H268.806V228.855Z" fill="#EBEBEB"/>
<path d="M62.002 229.843H34.1013V229.99H62.002V229.843Z" fill="#EBEBEB"/>
<path d="M71.8471 229.843H67.7579V229.99H71.8471V229.843Z" fill="#EBEBEB"/>
<path d="M145.659 232.325H85.1417V232.472H145.659V232.325Z" fill="#EBEBEB"/>
<path d="M153.314 198.626H28.578C27.6008 198.625 26.6642 198.27 25.9739 197.641C25.2835 197.011 24.8958 196.158 24.8958 195.269V35.6681C24.9043 34.7838 25.2958 33.9382 25.9852 33.3151C26.6746 32.6919 27.6063 32.3415 28.578 32.34H153.314C154.292 32.34 155.231 32.6938 155.922 33.3234C156.614 33.9531 157.003 34.807 157.003 35.6975V195.269C157.003 196.159 156.614 197.013 155.922 197.643C155.231 198.273 154.292 198.626 153.314 198.626ZM28.578 32.4576C27.6436 32.4592 26.7481 32.7981 26.088 33.4C25.428 34.0019 25.0573 34.8177 25.0573 35.6681V195.269C25.0573 196.119 25.428 196.935 26.088 197.537C26.7481 198.139 27.6436 198.478 28.578 198.479H153.314C154.249 198.478 155.145 198.139 155.806 197.537C156.467 196.936 156.84 196.12 156.841 195.269V35.6681C156.84 34.8171 156.467 34.0014 155.806 33.3997C155.145 32.7979 154.249 32.4592 153.314 32.4576H28.578Z" fill="#EBEBEB"/>
<path d="M293.05 198.626H168.308C167.33 198.625 166.393 198.271 165.701 197.641C165.01 197.012 164.621 196.159 164.619 195.269V35.6681C164.629 34.7832 165.022 33.9377 165.713 33.3147C166.403 32.6917 167.336 32.3415 168.308 32.34H293.05C294.021 32.3431 294.951 32.6941 295.639 33.3171C296.327 33.9401 296.718 34.7848 296.726 35.6681V195.269C296.726 196.157 296.339 197.01 295.65 197.639C294.961 198.268 294.026 198.623 293.05 198.626ZM168.308 32.4576C167.373 32.4592 166.477 32.7979 165.816 33.3997C165.154 34.0014 164.782 34.8171 164.781 35.6681V195.269C164.782 196.12 165.154 196.936 165.816 197.537C166.477 198.139 167.373 198.478 168.308 198.479H293.05C293.985 198.478 294.881 198.139 295.543 197.537C296.204 196.936 296.576 196.12 296.577 195.269V35.6681C296.576 34.8171 296.204 34.0014 295.543 33.3997C294.881 32.7979 293.985 32.4592 293.05 32.4576H168.308Z" fill="#EBEBEB"/>
<path d="M156.764 102.241H65.0447V224.645H156.764V102.241Z" fill="#F0F0F0"/>
<path d="M153.521 106.093H68.2811V128.702H153.521V106.093Z" fill="#E0E0E0"/>
<path d="M73.1261 109.75H68.2811V128.696H73.1261V109.75Z" fill="#EBEBEB"/>
<path d="M96.5436 109.75H91.6986V128.696H96.5436V109.75Z" fill="#EBEBEB"/>
<path d="M123.121 109.274L118.347 110.023L121.882 128.694L126.657 127.944L123.121 109.274Z" fill="#EBEBEB"/>
<path d="M79.1275 112.249H74.2825V128.701H79.1275V112.249Z" fill="#EBEBEB"/>
<path d="M90.258 112.249H85.413V128.701H90.258V112.249Z" fill="#EBEBEB"/>
<path d="M118.353 112.249H113.508V128.701H118.353V112.249Z" fill="#EBEBEB"/>
<path d="M102.907 111.678L98.1779 112.635L102.099 128.696L106.829 127.739L102.907 111.678Z" fill="#EBEBEB"/>
<path d="M83.3136 108.809H80.8911V128.696H83.3136V108.809Z" fill="#EBEBEB"/>
<path d="M112.112 108.809H109.69V128.696H112.112V108.809Z" fill="#EBEBEB"/>
<path d="M68.2876 154.891H153.527V132.282H68.2876V154.891Z" fill="#E0E0E0"/>
<path d="M148.676 154.885H153.521V135.94H148.676V154.885Z" fill="#EBEBEB"/>
<path d="M125.265 154.885H130.11V135.94H125.265V154.885Z" fill="#EBEBEB"/>
<path d="M95.1528 154.132L99.9274 154.881L103.463 136.211L98.6884 135.462L95.1528 154.132Z" fill="#EBEBEB"/>
<path d="M142.674 154.891H147.519V138.439H142.674V154.891Z" fill="#EBEBEB"/>
<path d="M131.55 154.891H136.395V138.439H131.55V154.891Z" fill="#EBEBEB"/>
<path d="M103.456 154.891H108.301V138.439H103.456V154.891Z" fill="#EBEBEB"/>
<path d="M114.995 153.93L119.725 154.887L123.646 138.826L118.917 137.869L114.995 153.93Z" fill="#EBEBEB"/>
<path d="M138.488 154.885H140.911V134.999H138.488V154.885Z" fill="#EBEBEB"/>
<path d="M109.696 154.885H112.119V134.999H109.696V154.885Z" fill="#EBEBEB"/>
<path d="M73.1261 135.94H68.2811V154.885H73.1261V135.94Z" fill="#EBEBEB"/>
<path d="M79.1275 138.433H74.2825V154.885H79.1275V138.433Z" fill="#EBEBEB"/>
<path d="M90.258 138.433H85.413V154.885H90.258V138.433Z" fill="#EBEBEB"/>
<path d="M83.3136 134.999H80.8911V154.885H83.3136V134.999Z" fill="#EBEBEB"/>
<path d="M153.521 158.466H68.2811V181.075H153.521V158.466Z" fill="#E0E0E0"/>
<path d="M122.054 162.123H117.209V181.069H122.054V162.123Z" fill="#EBEBEB"/>
<path d="M148.636 161.646L143.861 162.395L147.397 181.065L152.171 180.316L148.636 161.646Z" fill="#EBEBEB"/>
<path d="M104.638 164.622H99.793V181.075H104.638V164.622Z" fill="#EBEBEB"/>
<path d="M115.769 164.622H110.924V181.075H115.769V164.622Z" fill="#EBEBEB"/>
<path d="M143.863 164.622H139.018V181.075H143.863V164.622Z" fill="#EBEBEB"/>
<path d="M128.42 164.052L123.691 165.009L127.612 181.069L132.342 180.113L128.42 164.052Z" fill="#EBEBEB"/>
<path d="M108.824 161.183H106.402V181.069H108.824V161.183Z" fill="#EBEBEB"/>
<path d="M137.623 161.183H135.2V181.069H137.623V161.183Z" fill="#EBEBEB"/>
<path d="M92.9267 161.651L88.1521 162.4L91.6877 181.07L96.4623 180.321L92.9267 161.651Z" fill="#EBEBEB"/>
<path d="M88.1521 164.622H83.3071V181.075H88.1521V164.622Z" fill="#EBEBEB"/>
<path d="M72.7117 164.052L67.9821 165.009L71.9035 181.069L76.6331 180.112L72.7117 164.052Z" fill="#EBEBEB"/>
<path d="M81.9182 161.183H79.4957V181.069H81.9182V161.183Z" fill="#EBEBEB"/>
<path d="M49.2177 224.963H65.0447L65.0447 102.241H49.2177L49.2177 224.963Z" fill="#E0E0E0"/>
<path d="M210.446 221.758H197.003L204.07 169.344C204.24 168.249 204.831 167.244 205.738 166.509C206.646 165.773 207.81 165.355 209.025 165.328H267.656L259.058 221.735L210.446 221.758Z" fill="#F5F5F5"/>
<path d="M253.082 221.758H266.526L273.599 169.344C273.686 168.84 273.649 168.325 273.493 167.836C273.336 167.346 273.064 166.894 272.694 166.51C272.324 166.127 271.866 165.823 271.353 165.618C270.84 165.414 270.283 165.315 269.723 165.328H265.104C263.892 165.362 262.731 165.783 261.825 166.517C260.92 167.251 260.326 168.252 260.15 169.344L253.082 221.758Z" fill="#F0F0F0"/>
<path d="M248.134 221.676L250.569 196.333C250.621 195.783 250.878 195.266 251.298 194.868C251.717 194.47 252.274 194.215 252.876 194.146L253.877 194.028C254.685 193.936 255.434 193.594 255.998 193.058C256.561 192.523 256.905 191.827 256.971 191.088L257.417 186.467C257.461 186.019 257.402 185.567 257.244 185.141C257.085 184.715 256.831 184.323 256.498 183.991C256.164 183.659 255.758 183.394 255.306 183.213C254.854 183.032 254.365 182.938 253.87 182.939H276.338C276.833 182.938 277.321 183.032 277.774 183.213C278.226 183.394 278.632 183.659 278.966 183.991C279.299 184.323 279.553 184.715 279.712 185.141C279.87 185.567 279.929 186.019 279.885 186.467L279.439 191.088C279.373 191.827 279.029 192.523 278.465 193.058C277.902 193.594 277.153 193.936 276.345 194.028L275.344 194.146C274.743 194.216 274.186 194.472 273.767 194.869C273.347 195.267 273.09 195.784 273.037 196.333L270.602 221.676C270.515 222.567 270.065 223.395 269.34 223.999C268.616 224.603 267.669 224.939 266.687 224.939H244.219C245.202 224.939 246.148 224.603 246.872 223.999C247.597 223.395 248.047 222.567 248.134 221.676Z" fill="#E6E6E6"/>
<path d="M186.299 190.012C186.121 188.088 185.155 186.296 183.594 184.989C182.033 183.682 179.99 182.957 177.869 182.956H197.429C199.545 182.964 201.58 183.693 203.135 184.999C204.689 186.305 205.65 188.094 205.827 190.012L207.765 210.098H188.23L186.299 190.012Z" fill="#E6E6E6"/>
<path d="M169.18 182.98H177.862C179.983 182.98 182.027 183.706 183.588 185.013C185.149 186.319 186.114 188.112 186.292 190.036L188.23 210.122H234.82L236.758 190.036C236.934 188.117 237.894 186.327 239.449 185.021C241.004 183.715 243.04 182.986 245.156 182.98H253.845C254.339 182.98 254.828 183.073 255.28 183.254C255.732 183.436 256.138 183.701 256.472 184.033C256.805 184.364 257.06 184.756 257.218 185.182C257.376 185.608 257.435 186.06 257.391 186.508L256.945 191.129C256.879 191.868 256.535 192.564 255.972 193.099C255.408 193.635 254.659 193.977 253.851 194.069L252.85 194.187C252.248 194.256 251.691 194.511 251.272 194.909C250.852 195.308 250.595 195.825 250.544 196.374L248.134 221.676C248.047 222.567 247.597 223.395 246.872 223.999C246.148 224.603 245.202 224.939 244.219 224.939H178.831C177.849 224.939 176.902 224.603 176.178 223.999C175.453 223.395 175.003 222.567 174.916 221.676L172.481 196.333C172.427 195.784 172.169 195.268 171.75 194.871C171.331 194.473 170.775 194.217 170.175 194.146L169.173 194.028C168.365 193.935 167.616 193.593 167.052 193.058C166.487 192.523 166.142 191.827 166.073 191.088L165.633 186.467C165.596 186.022 165.66 185.575 165.821 185.154C165.982 184.732 166.238 184.346 166.57 184.019C166.903 183.691 167.307 183.43 167.756 183.251C168.205 183.072 168.69 182.98 169.18 182.98Z" fill="#F0F0F0"/>
<path d="M66.2075 96.1263C66.2075 96.1263 65.4904 91.828 68.9336 89.0703C72.3768 86.3126 72.0732 84.6779 71.0848 84.4662C70.0964 84.2545 69.1984 87.0064 67.6868 87.7649C67.6868 87.7649 67.6351 83.8371 69.1726 82.3965C70.7101 80.9559 71.5176 77.2221 70.0512 77.1574C68.5848 77.0927 68.4426 79.3683 68.1132 80.9853C67.7837 82.6023 66.1752 84.872 66.1752 84.872C66.1752 84.872 65.8586 81.344 64.8832 79.9151C63.9077 78.4863 66.5369 75.1641 65.5292 73.7235C64.5214 72.2829 62.6932 75.0288 62.8418 78.1276C62.9904 81.2263 65.2643 84.5309 64.7346 87.7649C64.7346 87.7649 63.7333 85.4893 62.8354 85.2835C61.9374 85.0777 61.0266 83.5784 60.4258 83.0198C59.825 82.4612 59.0627 84.3898 60.4258 86.1773C61.7888 87.9648 65.2643 92.757 64.7346 96.6261L66.2075 96.1263Z" fill="#E6E6E6"/>
<path d="M68.2617 94.1682L69.3922 100.607C69.4735 101.074 69.4424 101.552 69.3012 102.008C69.16 102.463 68.912 102.885 68.5744 103.245C68.2367 103.605 67.8173 103.894 67.3451 104.092C66.873 104.291 66.3592 104.393 65.8392 104.394H64.6377C64.1177 104.393 63.604 104.291 63.1318 104.092C62.6596 103.894 62.2403 103.605 61.9026 103.245C61.5649 102.885 61.3169 102.463 61.1757 102.008C61.0345 101.552 61.0035 101.074 61.0847 100.607L62.2281 94.1682H68.2617Z" fill="#E6E6E6"/>
<path d="M135.904 103.135H139.412V89.4054H135.904V103.135Z" fill="#EBEBEB"/>
<path d="M118.94 103.135H122.448V89.4054H118.94V103.135Z" fill="#EBEBEB"/>
<path d="M97.1213 102.589L100.578 103.132L103.14 89.6016L99.6836 89.0592L97.1213 102.589Z" fill="#EBEBEB"/>
<path d="M131.557 103.129H135.065V91.2106H131.557V103.129Z" fill="#EBEBEB"/>
<path d="M123.495 103.129H127.003V91.2106H123.495V103.129Z" fill="#EBEBEB"/>
<path d="M103.133 103.129H106.641V91.2106H103.133V103.129Z" fill="#EBEBEB"/>
<path d="M111.499 102.438L114.923 103.131L117.764 91.4957L114.34 90.803L111.499 102.438Z" fill="#EBEBEB"/>
<path d="M128.521 103.135H130.278V88.7234H128.521V103.135Z" fill="#EBEBEB"/>
<path d="M107.648 103.135H109.405V88.7234H107.648V103.135Z" fill="#EBEBEB"/>
<path d="M95.1418 92.2337H78.0422V102.976H95.1418V92.2337Z" fill="#EBEBEB"/>
<path d="M153.786 96.632H139.464V104.652H153.786V96.632Z" fill="#EBEBEB"/>
<path d="M150.439 89.5818H143.275V97.6022H150.439V89.5818Z" fill="#EBEBEB"/>
<path d="M270.117 78.9684H253.082V143.578H270.117V78.9684Z" fill="#E0E0E0"/>
<path d="M204.581 143.754H268.289V78.9743H204.581V143.754Z" fill="#E0E0E0"/>
<path d="M202.526 143.754H268.625V78.9743L202.526 78.9743V143.754Z" fill="#F0F0F0"/>
<path d="M205.356 140.773H265.912V81.0323H205.356V140.773Z" fill="white"/>
<path d="M205.349 140.773H206.473V81.0323H205.349V140.773Z" fill="#E0E0E0"/>
<path d="M206.293 123.997V125.609H266.073V123.997H206.293Z" fill="#E0E0E0"/>
<path d="M205.349 123.992H266.855V121.287H205.349V123.992Z" fill="#F0F0F0"/>
<path d="M161.712 251.405C230.887 251.405 286.965 248.425 286.965 244.749C286.965 241.073 230.887 238.093 161.712 238.093C92.5368 238.093 36.4592 241.073 36.4592 244.749C36.4592 248.425 92.5368 251.405 161.712 251.405Z" fill="#F5F5F5"/>
<path d="M208.192 89.8582H92.6159C90.0043 89.8582 87.8872 91.7852 87.8872 94.1623V218.03C87.8872 220.408 90.0043 222.335 92.6159 222.335H208.192C210.803 222.335 212.921 220.408 212.921 218.03V94.1623C212.921 91.7852 210.803 89.8582 208.192 89.8582Z" fill="#92E3A9"/>
<path opacity="0.6" d="M208.192 89.8582H92.6159C90.0043 89.8582 87.8872 91.7852 87.8872 94.1623V218.03C87.8872 220.408 90.0043 222.335 92.6159 222.335H208.192C210.803 222.335 212.921 220.408 212.921 218.03V94.1623C212.921 91.7852 210.803 89.8582 208.192 89.8582Z" fill="white"/>
<path d="M192.668 150.616H108.146V163.787H192.668V150.616Z" fill="white"/>
<g opacity="0.4">
<path d="M115.704 158.484V158.83H112.771V155.056H115.614V155.397H113.21V156.743H115.355V157.078H113.21V158.484H115.704Z" fill="#263238"/>
<path d="M116.292 157.202H117.849V157.531H116.292V157.202Z" fill="#263238"/>
<path d="M123.928 157.184V158.831H123.508V157.219C123.508 156.631 123.178 156.314 122.616 156.314C122.47 156.308 122.325 156.331 122.19 156.381C122.055 156.431 121.934 156.508 121.835 156.605C121.736 156.703 121.661 156.819 121.617 156.945C121.572 157.072 121.558 157.205 121.576 157.337V158.831H121.15V157.219C121.15 156.631 120.82 156.314 120.252 156.314C120.106 156.308 119.961 156.331 119.826 156.381C119.691 156.431 119.569 156.508 119.47 156.605C119.371 156.703 119.297 156.819 119.252 156.945C119.208 157.072 119.194 157.205 119.212 157.337V158.831H118.785V155.991H119.192V156.508C119.314 156.335 119.484 156.193 119.685 156.098C119.885 156.004 120.11 155.958 120.336 155.967C120.564 155.949 120.793 155.996 120.99 156.102C121.188 156.207 121.345 156.365 121.44 156.555C121.57 156.365 121.752 156.211 121.969 156.108C122.186 156.004 122.43 155.956 122.674 155.967C122.85 155.955 123.026 155.979 123.19 156.037C123.354 156.095 123.501 156.185 123.621 156.302C123.742 156.419 123.832 156.559 123.885 156.712C123.938 156.864 123.952 157.026 123.928 157.184Z" fill="#263238"/>
<path d="M127.429 157.066V158.83H127.022V158.384C126.906 158.543 126.746 158.67 126.557 158.753C126.368 158.836 126.158 158.871 125.95 158.854C125.245 158.854 124.813 158.519 124.813 158.031C124.813 157.543 125.123 157.225 126.014 157.225H127.003V157.055C127.003 156.567 126.705 156.302 126.124 156.302C125.745 156.298 125.376 156.417 125.084 156.637L124.897 156.355C125.262 156.088 125.72 155.95 126.189 155.967C126.353 155.949 126.521 155.964 126.678 156.013C126.835 156.061 126.979 156.141 127.098 156.246C127.217 156.352 127.308 156.48 127.366 156.622C127.423 156.764 127.445 156.916 127.429 157.066ZM127.003 157.978V157.513H126.027C125.426 157.513 125.226 157.725 125.226 158.019C125.226 158.313 125.517 158.554 126.014 158.554C126.225 158.567 126.435 158.518 126.612 158.414C126.79 158.31 126.927 158.157 127.003 157.978Z" fill="#263238"/>
<path d="M128.475 155.097C128.476 155.06 128.485 155.025 128.501 154.991C128.517 154.958 128.54 154.928 128.569 154.903C128.598 154.878 128.632 154.858 128.669 154.845C128.706 154.832 128.746 154.825 128.785 154.826C128.825 154.825 128.863 154.832 128.9 154.845C128.936 154.857 128.969 154.877 128.998 154.901C129.026 154.926 129.048 154.955 129.064 154.988C129.08 155.02 129.088 155.055 129.089 155.091C129.09 155.128 129.083 155.164 129.068 155.198C129.053 155.233 129.031 155.264 129.002 155.29C128.974 155.316 128.94 155.337 128.903 155.351C128.866 155.366 128.826 155.373 128.785 155.373C128.745 155.374 128.705 155.367 128.667 155.354C128.63 155.34 128.595 155.32 128.567 155.294C128.538 155.269 128.515 155.238 128.499 155.204C128.483 155.17 128.475 155.134 128.475 155.097ZM128.572 155.99H128.992V158.831H128.572V155.99Z" fill="#263238"/>
<path d="M130.161 154.826H130.581V158.831H130.161V154.826Z" fill="#263238"/>
</g>
<path d="M192.668 168.609H108.146V181.78H192.668V168.609Z" fill="white"/>
<g opacity="0.4">
<path d="M116.014 174.36C116.014 175.165 115.368 175.653 114.322 175.653H113.21V176.829H112.771V173.054H114.322C115.374 173.066 116.014 173.554 116.014 174.36ZM115.575 174.36C115.575 173.772 115.142 173.413 114.283 173.413H113.185V175.3H114.283C115.142 175.3 115.575 174.954 115.575 174.36Z" fill="#263238"/>
<path d="M119.199 175.083V176.847H118.792V176.4C118.676 176.559 118.516 176.687 118.327 176.77C118.138 176.852 117.928 176.887 117.719 176.87C117.015 176.87 116.583 176.535 116.583 176.041C116.583 175.547 116.893 175.224 117.784 175.224H118.772V175.048C118.772 174.565 118.469 174.301 117.887 174.301C117.51 174.296 117.143 174.415 116.854 174.636L116.66 174.348C117.028 174.086 117.485 173.951 117.952 173.966C118.119 173.946 118.289 173.961 118.449 174.01C118.609 174.059 118.754 174.14 118.874 174.248C118.994 174.356 119.086 174.487 119.142 174.631C119.199 174.776 119.218 174.93 119.199 175.083ZM118.779 175.988V175.524H117.784C117.183 175.524 116.99 175.741 116.99 176.035C116.99 176.329 117.274 176.565 117.778 176.565C117.99 176.579 118.202 176.531 118.383 176.427C118.563 176.323 118.702 176.169 118.779 175.988Z" fill="#263238"/>
<path d="M119.909 176.518L120.097 176.218C120.423 176.425 120.811 176.536 121.208 176.535C121.796 176.535 122.041 176.353 122.041 176.071C122.041 175.33 120.019 175.912 120.019 174.795C120.019 174.33 120.459 173.983 121.253 173.983C121.641 173.98 122.022 174.072 122.358 174.248L122.17 174.554C121.899 174.39 121.579 174.306 121.253 174.313C120.691 174.313 120.439 174.513 120.439 174.783C120.439 175.547 122.461 174.971 122.461 176.059C122.461 176.553 121.99 176.87 121.169 176.87C120.718 176.881 120.276 176.757 119.909 176.518Z" fill="#263238"/>
<path d="M122.803 176.518L122.997 176.218C123.319 176.427 123.706 176.538 124.102 176.535C124.696 176.535 124.935 176.353 124.935 176.071C124.935 175.33 122.92 175.912 122.92 174.795C122.92 174.33 123.359 173.983 124.147 173.983C124.535 173.979 124.917 174.07 125.252 174.248L125.071 174.554C124.796 174.391 124.475 174.307 124.147 174.313C123.585 174.313 123.34 174.513 123.34 174.783C123.34 175.547 125.362 174.971 125.362 176.059C125.362 176.553 124.884 176.87 124.07 176.87C123.617 176.88 123.173 176.756 122.803 176.518Z" fill="#263238"/>
<path d="M130.646 174.007L129.47 176.841H129.076L128.12 174.518L127.138 176.841H126.744L125.536 174.007H125.937L126.919 176.418L127.92 174.007H128.282L129.276 176.418L130.265 174.007H130.646Z" fill="#263238"/>
<path d="M130.879 175.424C130.879 175.138 130.972 174.858 131.146 174.62C131.321 174.382 131.569 174.197 131.86 174.088C132.15 173.978 132.469 173.949 132.778 174.005C133.086 174.061 133.369 174.199 133.591 174.401C133.814 174.603 133.965 174.861 134.026 175.142C134.088 175.422 134.056 175.713 133.936 175.977C133.816 176.242 133.612 176.468 133.351 176.627C133.089 176.786 132.782 176.87 132.468 176.87C132.257 176.877 132.047 176.844 131.851 176.774C131.655 176.703 131.477 176.597 131.328 176.461C131.179 176.326 131.062 176.164 130.985 175.985C130.907 175.807 130.871 175.616 130.879 175.424ZM133.624 175.424C133.614 175.217 133.537 175.017 133.403 174.849C133.269 174.681 133.084 174.553 132.87 174.48C132.657 174.407 132.424 174.393 132.202 174.439C131.98 174.486 131.777 174.591 131.62 174.741C131.463 174.891 131.358 175.081 131.318 175.285C131.278 175.489 131.304 175.7 131.395 175.89C131.485 176.081 131.635 176.243 131.826 176.357C132.016 176.47 132.24 176.53 132.468 176.529C132.625 176.532 132.782 176.505 132.928 176.45C133.073 176.395 133.204 176.312 133.313 176.208C133.422 176.104 133.506 175.981 133.559 175.846C133.613 175.711 133.635 175.567 133.624 175.424Z" fill="#263238"/>
<path d="M136.479 173.983V174.354H136.376C136.228 174.347 136.081 174.371 135.944 174.422C135.807 174.473 135.684 174.551 135.584 174.651C135.485 174.75 135.41 174.868 135.366 174.997C135.322 175.125 135.309 175.261 135.329 175.395V176.841H134.91V174.007H135.31V174.56C135.419 174.368 135.589 174.21 135.797 174.108C136.006 174.005 136.243 173.962 136.479 173.983Z" fill="#263238"/>
<path d="M140.052 172.872V176.87H139.651V176.312C139.526 176.498 139.349 176.65 139.138 176.753C138.926 176.857 138.689 176.907 138.45 176.9C138.047 176.876 137.668 176.714 137.392 176.446C137.116 176.178 136.962 175.824 136.962 175.456C136.962 175.089 137.116 174.735 137.392 174.467C137.668 174.198 138.047 174.036 138.45 174.013C138.686 174.008 138.92 174.06 139.127 174.163C139.335 174.266 139.509 174.417 139.632 174.601V172.872H140.052ZM139.638 175.453C139.628 175.246 139.551 175.046 139.417 174.878C139.283 174.71 139.098 174.582 138.884 174.509C138.671 174.436 138.438 174.422 138.216 174.469C137.994 174.515 137.792 174.62 137.634 174.771C137.477 174.921 137.372 175.11 137.332 175.314C137.292 175.519 137.319 175.729 137.409 175.92C137.499 176.11 137.649 176.272 137.84 176.386C138.031 176.5 138.254 176.56 138.482 176.559C138.643 176.562 138.802 176.534 138.95 176.477C139.098 176.42 139.231 176.335 139.34 176.228C139.45 176.121 139.533 175.994 139.584 175.855C139.635 175.716 139.654 175.569 139.638 175.424V175.453Z" fill="#263238"/>
</g>
<path opacity="0.2" d="M192.668 195.216H108.146V208.387H192.668V195.216Z" fill="black"/>
<g opacity="0.5">
<path d="M128.701 189.165H127.319L127.022 189.753H126.751L127.881 187.501H128.139L129.27 189.753H128.999L128.701 189.165ZM128.605 188.971L128.01 187.76L127.416 188.971H128.605Z" fill="black"/>
<path d="M129.632 187.378H129.884V189.765H129.632V187.378Z" fill="black"/>
<path d="M131.524 188.06V188.283H131.46C131.37 188.276 131.279 188.288 131.194 188.317C131.11 188.347 131.034 188.393 130.971 188.453C130.909 188.513 130.863 188.585 130.836 188.663C130.808 188.742 130.801 188.825 130.814 188.907V189.771H130.562V188.078H130.807V188.407C130.872 188.288 130.976 188.191 131.105 188.129C131.233 188.067 131.38 188.042 131.524 188.06Z" fill="black"/>
<path d="M133.579 188.989H131.996C132.001 189.071 132.024 189.152 132.063 189.226C132.103 189.301 132.158 189.367 132.226 189.422C132.294 189.477 132.373 189.519 132.459 189.545C132.545 189.572 132.636 189.583 132.726 189.577C132.833 189.58 132.94 189.563 133.04 189.525C133.139 189.488 133.228 189.431 133.301 189.359L133.437 189.506C133.303 189.634 133.131 189.723 132.942 189.762C132.754 189.801 132.556 189.788 132.375 189.725C132.195 189.662 132.038 189.552 131.926 189.409C131.813 189.265 131.75 189.095 131.744 188.918C131.738 188.807 131.757 188.695 131.8 188.59C131.843 188.485 131.91 188.39 131.995 188.309C132.08 188.229 132.183 188.165 132.297 188.122C132.41 188.079 132.532 188.058 132.655 188.06C132.778 188.057 132.9 188.078 133.014 188.121C133.127 188.163 133.23 188.227 133.315 188.308C133.4 188.389 133.466 188.485 133.508 188.59C133.55 188.695 133.567 188.807 133.559 188.918C133.559 188.918 133.579 188.966 133.579 188.989ZM132.022 188.819H133.314C133.314 188.663 133.246 188.513 133.125 188.403C133.004 188.292 132.839 188.231 132.668 188.231C132.497 188.231 132.332 188.292 132.211 188.403C132.09 188.513 132.022 188.663 132.022 188.819Z" fill="black"/>
<path d="M135.446 188.748V189.795H135.226V189.53C135.158 189.627 135.061 189.704 134.947 189.754C134.833 189.804 134.706 189.824 134.58 189.812C134.16 189.812 133.934 189.612 133.934 189.318C133.934 189.024 134.115 188.836 134.651 188.836H135.226V188.736C135.226 188.448 135.045 188.289 134.696 188.289C134.461 188.281 134.231 188.353 134.05 188.489L133.941 188.319C134.155 188.163 134.423 188.082 134.696 188.089C134.796 188.074 134.899 188.08 134.996 188.107C135.093 188.134 135.181 188.182 135.254 188.246C135.327 188.31 135.383 188.389 135.416 188.476C135.449 188.563 135.459 188.656 135.446 188.748ZM135.2 189.289V189.007H134.612C134.251 189.007 134.134 189.136 134.134 189.312C134.134 189.489 134.309 189.63 134.606 189.63C134.74 189.639 134.873 189.608 134.985 189.541C135.098 189.474 135.182 189.375 135.226 189.26L135.2 189.289Z" fill="black"/>
<path d="M137.81 187.378V189.765H137.571V189.43C137.498 189.542 137.392 189.634 137.266 189.697C137.14 189.759 136.997 189.788 136.854 189.783C136.616 189.765 136.395 189.666 136.234 189.507C136.072 189.347 135.983 189.138 135.983 188.921C135.983 188.705 136.072 188.496 136.234 188.336C136.395 188.176 136.616 188.078 136.854 188.06C136.994 188.057 137.132 188.085 137.257 188.144C137.381 188.203 137.487 188.289 137.565 188.395V187.378H137.81ZM137.565 188.918C137.558 188.795 137.512 188.677 137.433 188.577C137.353 188.478 137.243 188.402 137.116 188.359C136.99 188.315 136.852 188.307 136.72 188.335C136.588 188.362 136.468 188.424 136.374 188.513C136.281 188.602 136.218 188.714 136.194 188.836C136.17 188.957 136.185 189.082 136.238 189.195C136.292 189.308 136.38 189.405 136.493 189.473C136.606 189.541 136.738 189.577 136.873 189.577C136.97 189.582 137.066 189.569 137.156 189.537C137.246 189.506 137.328 189.458 137.395 189.395C137.463 189.333 137.516 189.258 137.549 189.176C137.583 189.094 137.597 189.006 137.59 188.918H137.565Z" fill="black"/>
<path d="M140.103 188.072L139.173 189.971C139.018 190.3 138.818 190.406 138.527 190.406C138.36 190.41 138.198 190.355 138.075 190.253L138.191 190.083C138.282 190.165 138.405 190.212 138.534 190.212C138.702 190.212 138.811 190.142 138.921 189.924L138.999 189.765L138.165 188.072H138.456L139.16 189.512L139.858 188.072H140.103Z" fill="black"/>
<path d="M142.791 188.748V189.795H142.552V189.53C142.483 189.627 142.387 189.704 142.273 189.754C142.158 189.804 142.032 189.824 141.906 189.812C141.486 189.812 141.26 189.612 141.26 189.318C141.26 189.024 141.441 188.836 141.977 188.836H142.565V188.736C142.565 188.448 142.39 188.289 142.041 188.289C141.806 188.281 141.576 188.353 141.395 188.489L141.279 188.319C141.496 188.163 141.766 188.082 142.041 188.089C142.141 188.074 142.244 188.08 142.341 188.107C142.438 188.134 142.526 188.182 142.599 188.246C142.672 188.31 142.728 188.389 142.761 188.476C142.794 188.563 142.804 188.656 142.791 188.748ZM142.539 189.289V189.007H141.957C141.596 189.007 141.479 189.136 141.479 189.312C141.479 189.489 141.654 189.63 141.951 189.63C142.08 189.635 142.207 189.601 142.313 189.534C142.419 189.467 142.498 189.371 142.539 189.26V189.289Z" fill="black"/>
<path d="M147.5 188.783V189.765H147.255V188.807C147.255 188.448 147.054 188.266 146.718 188.266C146.632 188.26 146.545 188.271 146.463 188.298C146.382 188.325 146.308 188.368 146.247 188.424C146.185 188.48 146.138 188.548 146.108 188.622C146.078 188.696 146.066 188.775 146.072 188.854V189.742H145.827V188.807C145.827 188.448 145.627 188.266 145.284 188.266C145.198 188.26 145.111 188.271 145.029 188.298C144.948 188.325 144.874 188.368 144.812 188.424C144.751 188.48 144.704 188.548 144.674 188.622C144.644 188.696 144.631 188.775 144.638 188.854V189.742H144.386V188.048H144.625V188.36C144.697 188.255 144.798 188.169 144.919 188.112C145.039 188.055 145.175 188.029 145.31 188.037C145.446 188.027 145.581 188.056 145.697 188.121C145.813 188.185 145.904 188.281 145.956 188.395C146.031 188.28 146.14 188.186 146.269 188.122C146.399 188.059 146.546 188.03 146.693 188.037C146.804 188.018 146.919 188.025 147.027 188.057C147.135 188.088 147.233 188.143 147.313 188.216C147.392 188.29 147.451 188.38 147.483 188.479C147.516 188.577 147.522 188.682 147.5 188.783Z" fill="black"/>
<path d="M149.787 188.989H148.23C148.243 189.155 148.328 189.31 148.466 189.42C148.604 189.53 148.784 189.587 148.967 189.577C149.073 189.581 149.179 189.563 149.277 189.526C149.375 189.488 149.463 189.431 149.535 189.359L149.677 189.506C149.586 189.597 149.475 189.668 149.352 189.716C149.228 189.763 149.094 189.786 148.96 189.783C148.832 189.79 148.704 189.773 148.583 189.733C148.463 189.692 148.353 189.629 148.261 189.548C148.169 189.466 148.097 189.368 148.05 189.26C148.002 189.151 147.98 189.035 147.985 188.918C147.985 188.7 148.08 188.491 148.249 188.336C148.419 188.182 148.649 188.095 148.889 188.095C149.129 188.095 149.359 188.182 149.528 188.336C149.698 188.491 149.793 188.7 149.793 188.918C149.793 188.918 149.787 188.966 149.787 188.989ZM148.23 188.819H149.554C149.554 188.659 149.485 188.505 149.36 188.392C149.236 188.279 149.068 188.216 148.892 188.216C148.717 188.216 148.548 188.279 148.424 188.392C148.3 188.505 148.23 188.659 148.23 188.819Z" fill="black"/>
<path d="M153.379 188.783V189.765H153.127V188.807C153.127 188.448 152.933 188.266 152.597 188.266C152.51 188.259 152.423 188.269 152.341 188.296C152.259 188.323 152.184 188.366 152.123 188.422C152.061 188.478 152.014 188.546 151.984 188.621C151.954 188.695 151.943 188.775 151.951 188.854V189.742H151.699V188.807C151.699 188.448 151.505 188.266 151.163 188.266C151.076 188.259 150.989 188.269 150.907 188.296C150.825 188.323 150.75 188.366 150.688 188.422C150.627 188.478 150.58 188.546 150.55 188.621C150.52 188.695 150.509 188.775 150.517 188.854V189.742H150.265V188.048H150.504V188.36C150.575 188.254 150.676 188.168 150.797 188.111C150.917 188.054 151.053 188.028 151.189 188.037C151.324 188.027 151.46 188.056 151.575 188.121C151.691 188.185 151.782 188.281 151.835 188.395C151.91 188.28 152.018 188.186 152.148 188.122C152.278 188.059 152.424 188.03 152.571 188.037C152.683 188.018 152.798 188.025 152.906 188.057C153.014 188.088 153.112 188.143 153.191 188.216C153.271 188.29 153.329 188.38 153.362 188.479C153.395 188.577 153.4 188.682 153.379 188.783Z" fill="black"/>
<path d="M155.95 188.918C155.956 189.032 155.937 189.144 155.893 189.25C155.849 189.356 155.781 189.453 155.695 189.534C155.608 189.615 155.504 189.679 155.389 189.722C155.274 189.765 155.15 189.785 155.026 189.783C154.883 189.788 154.74 189.759 154.614 189.697C154.488 189.634 154.382 189.542 154.309 189.43V189.765H154.063V187.378H154.315V188.395C154.393 188.289 154.498 188.202 154.623 188.143C154.747 188.085 154.886 188.056 155.026 188.06C155.15 188.057 155.273 188.077 155.388 188.119C155.503 188.161 155.608 188.224 155.694 188.305C155.781 188.386 155.849 188.482 155.893 188.587C155.937 188.693 155.956 188.806 155.95 188.918ZM155.698 188.918C155.691 188.795 155.646 188.677 155.566 188.577C155.486 188.478 155.376 188.402 155.249 188.359C155.123 188.315 154.985 188.307 154.853 188.335C154.721 188.362 154.601 188.424 154.508 188.513C154.414 188.602 154.351 188.714 154.327 188.836C154.303 188.957 154.319 189.082 154.372 189.195C154.425 189.308 154.513 189.405 154.626 189.473C154.739 189.541 154.871 189.577 155.007 189.577C155.101 189.579 155.194 189.563 155.281 189.53C155.368 189.497 155.446 189.448 155.511 189.386C155.576 189.324 155.627 189.251 155.659 189.17C155.691 189.09 155.704 189.004 155.698 188.918Z" fill="black"/>
<path d="M158.088 188.989H156.544C156.549 189.071 156.572 189.152 156.611 189.226C156.651 189.301 156.706 189.367 156.774 189.422C156.842 189.477 156.921 189.519 157.007 189.545C157.093 189.572 157.184 189.583 157.274 189.577C157.381 189.577 157.488 189.555 157.585 189.514C157.682 189.472 157.768 189.411 157.836 189.336L157.978 189.483C157.845 189.611 157.673 189.699 157.484 189.738C157.295 189.777 157.098 189.764 156.917 189.702C156.736 189.639 156.58 189.529 156.467 189.385C156.355 189.242 156.292 189.071 156.286 188.895C156.279 188.783 156.299 188.672 156.342 188.567C156.385 188.462 156.451 188.366 156.537 188.286C156.622 188.205 156.725 188.142 156.838 188.099C156.952 188.056 157.074 188.035 157.197 188.037C157.319 188.034 157.441 188.054 157.554 188.097C157.668 188.14 157.77 188.204 157.855 188.285C157.939 188.365 158.004 188.461 158.046 188.567C158.087 188.672 158.104 188.784 158.094 188.895L158.088 188.989ZM156.531 188.819H157.823C157.823 188.663 157.755 188.513 157.634 188.403C157.513 188.292 157.348 188.231 157.177 188.231C157.006 188.231 156.842 188.292 156.72 188.403C156.599 188.513 156.531 188.663 156.531 188.819Z" fill="black"/>
<path d="M159.542 188.06V188.283H159.483C159.393 188.276 159.302 188.288 159.218 188.317C159.133 188.347 159.057 188.393 158.995 188.453C158.933 188.513 158.886 188.585 158.859 188.663C158.832 188.742 158.824 188.825 158.837 188.907V189.771H158.585V188.078H158.824V188.407C158.89 188.289 158.994 188.192 159.123 188.13C159.251 188.068 159.397 188.043 159.542 188.06Z" fill="black"/>
<path d="M161.169 188.089C161.169 187.854 160.963 187.695 160.601 187.695C160.474 187.689 160.347 187.709 160.229 187.754C160.111 187.798 160.007 187.867 159.923 187.954L159.735 187.825C159.845 187.712 159.982 187.623 160.136 187.565C160.289 187.507 160.455 187.481 160.62 187.49C161.118 187.49 161.434 187.707 161.434 188.078C161.434 188.624 160.788 188.666 160.788 189.113H160.523C160.523 188.56 161.169 188.507 161.169 188.089ZM160.472 189.612C160.48 189.573 160.503 189.538 160.536 189.513C160.57 189.487 160.612 189.473 160.656 189.473C160.7 189.473 160.742 189.487 160.775 189.513C160.809 189.538 160.832 189.573 160.84 189.612C160.845 189.637 160.844 189.662 160.837 189.687C160.83 189.711 160.818 189.733 160.8 189.753C160.782 189.772 160.76 189.788 160.735 189.798C160.711 189.809 160.683 189.814 160.656 189.814C160.628 189.814 160.601 189.809 160.576 189.798C160.551 189.788 160.529 189.772 160.512 189.753C160.494 189.733 160.481 189.711 160.474 189.687C160.468 189.662 160.467 189.637 160.472 189.612Z" fill="black"/>
<path d="M162.92 187.513H163.495V189.336H164.735V189.759H162.92V187.513Z" fill="black"/>
<path d="M164.865 188.901C164.852 188.71 164.902 188.521 165.009 188.357C165.116 188.192 165.274 188.061 165.464 187.98C165.654 187.899 165.866 187.871 166.073 187.901C166.28 187.931 166.472 188.017 166.625 188.147C166.778 188.278 166.884 188.447 166.93 188.633C166.976 188.82 166.959 189.014 166.883 189.192C166.806 189.369 166.672 189.522 166.499 189.629C166.325 189.737 166.121 189.794 165.911 189.795C165.777 189.803 165.642 189.785 165.515 189.744C165.389 189.703 165.273 189.638 165.175 189.555C165.076 189.471 164.998 189.369 164.945 189.257C164.892 189.145 164.864 189.023 164.865 188.901ZM166.396 188.901C166.388 188.815 166.353 188.734 166.296 188.666C166.238 188.598 166.16 188.547 166.071 188.519C165.982 188.491 165.886 188.488 165.795 188.508C165.704 188.529 165.621 188.574 165.557 188.636C165.493 188.699 165.451 188.778 165.435 188.862C165.419 188.947 165.431 189.033 165.468 189.112C165.506 189.191 165.568 189.257 165.646 189.305C165.725 189.352 165.817 189.377 165.911 189.377C165.978 189.378 166.045 189.366 166.107 189.342C166.169 189.318 166.225 189.283 166.27 189.238C166.316 189.193 166.351 189.139 166.373 189.081C166.394 189.023 166.402 188.962 166.396 188.901Z" fill="black"/>
<path d="M169.29 188.031V189.477C169.307 189.607 169.292 189.739 169.244 189.863C169.196 189.986 169.117 190.098 169.014 190.189C168.911 190.28 168.786 190.348 168.648 190.388C168.511 190.428 168.366 190.438 168.224 190.418C167.891 190.43 167.564 190.345 167.287 190.177L167.507 189.818C167.695 189.941 167.921 190.009 168.153 190.012C168.54 190.012 168.715 189.853 168.715 189.542V189.465C168.637 189.539 168.544 189.596 168.44 189.633C168.337 189.671 168.225 189.688 168.114 189.683C167.987 189.693 167.858 189.678 167.737 189.64C167.617 189.603 167.505 189.543 167.411 189.464C167.317 189.385 167.242 189.289 167.191 189.183C167.139 189.076 167.113 188.961 167.113 188.845C167.113 188.729 167.139 188.614 167.191 188.507C167.242 188.401 167.317 188.305 167.411 188.226C167.505 188.147 167.617 188.087 167.737 188.05C167.858 188.012 167.987 187.997 168.114 188.007C168.235 187.998 168.358 188.016 168.47 188.059C168.582 188.102 168.682 188.169 168.76 188.254V188.031H169.29ZM168.747 188.848C168.749 188.789 168.737 188.73 168.713 188.676C168.688 188.621 168.651 188.572 168.604 188.532C168.557 188.491 168.501 188.46 168.44 188.441C168.379 188.421 168.314 188.414 168.25 188.419C168.183 188.412 168.116 188.417 168.053 188.436C167.989 188.454 167.931 188.484 167.881 188.524C167.831 188.564 167.792 188.614 167.764 188.669C167.737 188.724 167.723 188.784 167.723 188.845C167.723 188.906 167.737 188.966 167.764 189.021C167.792 189.076 167.831 189.125 167.881 189.166C167.931 189.206 167.989 189.236 168.053 189.254C168.116 189.273 168.183 189.278 168.25 189.271C168.314 189.276 168.378 189.269 168.439 189.25C168.499 189.231 168.555 189.2 168.602 189.16C168.649 189.12 168.686 189.072 168.711 189.018C168.736 188.964 168.748 188.906 168.747 188.848Z" fill="black"/>
<path d="M170.756 187.513C170.757 187.474 170.766 187.435 170.784 187.399C170.802 187.363 170.828 187.331 170.86 187.305C170.892 187.278 170.93 187.258 170.971 187.245C171.012 187.233 171.055 187.228 171.098 187.231C171.141 187.227 171.183 187.231 171.224 187.242C171.265 187.254 171.302 187.273 171.334 187.298C171.366 187.324 171.392 187.355 171.411 187.39C171.429 187.425 171.439 187.463 171.441 187.501C171.441 187.584 171.405 187.663 171.341 187.722C171.276 187.78 171.189 187.813 171.098 187.813C171.008 187.813 170.921 187.78 170.856 187.722C170.792 187.663 170.756 187.584 170.756 187.501V187.513ZM170.821 188.031H171.37V189.795H170.821V188.031Z" fill="black"/>
<path d="M173.818 188.748V189.742H173.269V188.83C173.269 188.548 173.127 188.419 172.881 188.419C172.636 188.419 172.423 188.566 172.423 188.883V189.742H171.874V187.978H172.403V188.184C172.487 188.105 172.587 188.044 172.699 188.005C172.81 187.965 172.93 187.948 173.049 187.954C173.161 187.949 173.272 187.967 173.375 188.006C173.478 188.046 173.57 188.106 173.644 188.182C173.718 188.259 173.772 188.349 173.802 188.447C173.832 188.545 173.838 188.648 173.818 188.748Z" fill="black"/>
</g>
<path d="M192.668 194.41H108.146V207.582H192.668V194.41Z" fill="#92E3A9"/>
<path d="M139.49 203.042L138.456 201.684H138.146H136.919V203.054H136.208V198.544H138.146C139.438 198.544 140.207 199.132 140.207 200.12C140.223 200.433 140.126 200.742 139.929 200.999C139.733 201.256 139.449 201.447 139.121 201.543L140.297 203.054L139.49 203.042ZM139.49 200.102C139.49 199.455 139.018 199.091 138.107 199.091H136.906V201.12H138.107C138.999 201.125 139.47 200.749 139.47 200.108L139.49 200.102Z" fill="white"/>
<path d="M144.606 201.543H141.563C141.611 201.834 141.777 202.098 142.028 202.283C142.279 202.468 142.597 202.56 142.92 202.542C143.123 202.549 143.325 202.516 143.512 202.445C143.699 202.374 143.868 202.267 144.005 202.131L144.38 202.531C144.103 202.786 143.752 202.964 143.367 203.042C142.983 203.12 142.582 203.095 142.212 202.971C141.843 202.847 141.52 202.629 141.284 202.342C141.047 202.055 140.907 201.712 140.879 201.355C140.865 201.124 140.904 200.893 140.994 200.676C141.083 200.46 141.221 200.263 141.398 200.097C141.575 199.931 141.788 199.801 142.023 199.714C142.258 199.627 142.511 199.585 142.765 199.591C143.017 199.584 143.269 199.626 143.502 199.714C143.736 199.801 143.947 199.932 144.122 200.098C144.296 200.265 144.431 200.462 144.517 200.679C144.602 200.895 144.637 201.125 144.619 201.355C144.619 201.408 144.612 201.484 144.606 201.543ZM141.563 201.096H143.966C143.936 200.825 143.796 200.575 143.574 200.393C143.352 200.211 143.064 200.11 142.765 200.11C142.466 200.11 142.178 200.211 141.956 200.393C141.734 200.575 141.594 200.825 141.563 201.096Z" fill="white"/>
<path d="M149.154 199.632V202.572C149.154 203.777 148.476 204.336 147.216 204.336C146.573 204.361 145.941 204.182 145.426 203.83L145.749 203.354C146.163 203.646 146.673 203.802 147.196 203.795C148.081 203.795 148.488 203.424 148.488 202.648V202.378C148.321 202.552 148.113 202.691 147.88 202.782C147.646 202.874 147.393 202.916 147.138 202.907C146.657 202.907 146.195 202.733 145.855 202.423C145.514 202.113 145.323 201.693 145.323 201.255C145.323 200.817 145.514 200.396 145.855 200.086C146.195 199.777 146.657 199.602 147.138 199.602C147.404 199.595 147.668 199.644 147.909 199.747C148.151 199.849 148.362 200.001 148.527 200.19V199.661L149.154 199.632ZM148.508 201.249C148.522 201.014 148.459 200.781 148.325 200.579C148.192 200.377 147.996 200.216 147.761 200.117C147.527 200.018 147.265 199.986 147.01 200.023C146.755 200.061 146.518 200.168 146.33 200.329C146.143 200.491 146.012 200.7 145.956 200.93C145.9 201.16 145.922 201.399 146.017 201.618C146.112 201.837 146.277 202.024 146.491 202.157C146.705 202.289 146.957 202.36 147.216 202.36C147.381 202.369 147.547 202.347 147.702 202.295C147.858 202.243 147.999 202.162 148.119 202.058C148.238 201.953 148.333 201.828 148.397 201.688C148.46 201.549 148.491 201.4 148.488 201.249H148.508Z" fill="white"/>
<path d="M150.33 198.573C150.33 198.519 150.343 198.466 150.366 198.416C150.39 198.367 150.424 198.322 150.467 198.284C150.509 198.246 150.56 198.217 150.615 198.197C150.67 198.177 150.729 198.167 150.788 198.168C150.851 198.161 150.914 198.166 150.975 198.183C151.035 198.2 151.09 198.229 151.137 198.267C151.185 198.305 151.222 198.352 151.248 198.404C151.274 198.456 151.288 198.513 151.288 198.571C151.288 198.628 151.274 198.685 151.248 198.737C151.222 198.789 151.185 198.836 151.137 198.874C151.09 198.912 151.035 198.941 150.975 198.958C150.914 198.975 150.851 198.98 150.788 198.973C150.729 198.975 150.67 198.966 150.615 198.946C150.56 198.927 150.51 198.898 150.467 198.861C150.424 198.824 150.39 198.779 150.367 198.73C150.343 198.68 150.33 198.627 150.33 198.573ZM150.452 199.632H151.131V203.042H150.452V199.632Z" fill="white"/>
<path d="M151.951 202.684L152.235 202.196C152.62 202.423 153.068 202.545 153.527 202.548C154.173 202.548 154.419 202.372 154.419 202.084C154.419 201.319 152.048 201.984 152.048 200.62C152.048 200.032 152.649 199.597 153.611 199.597C154.088 199.59 154.558 199.697 154.974 199.908L154.684 200.396C154.361 200.212 153.986 200.117 153.605 200.126C153.01 200.126 152.72 200.326 152.72 200.596C152.72 201.402 155.097 200.743 155.097 202.072C155.097 202.66 154.451 203.083 153.476 203.083C152.935 203.091 152.404 202.952 151.951 202.684Z" fill="white"/>
<path d="M158.082 202.86C157.846 203.024 157.557 203.109 157.261 203.101C157.102 203.118 156.94 203.102 156.789 203.054C156.637 203.006 156.499 202.928 156.385 202.825C156.271 202.723 156.184 202.598 156.13 202.46C156.076 202.323 156.056 202.176 156.073 202.031V200.155H155.427V199.65H156.073V198.903H156.719V199.65H157.836V200.155H156.757V202.007C156.742 202.083 156.746 202.161 156.769 202.235C156.793 202.309 156.834 202.377 156.891 202.434C156.948 202.491 157.019 202.535 157.097 202.563C157.176 202.591 157.261 202.602 157.345 202.595C157.536 202.597 157.722 202.541 157.875 202.437L158.082 202.86Z" fill="white"/>
<path d="M162.151 201.543H159.128C159.176 201.835 159.343 202.1 159.595 202.285C159.848 202.47 160.168 202.562 160.491 202.542C160.693 202.549 160.894 202.516 161.08 202.445C161.267 202.374 161.434 202.267 161.57 202.131L161.945 202.531C161.669 202.787 161.318 202.965 160.934 203.043C160.549 203.122 160.148 203.097 159.779 202.973C159.409 202.849 159.087 202.63 158.851 202.343C158.616 202.056 158.476 201.712 158.45 201.355C158.436 201.124 158.476 200.893 158.565 200.676C158.654 200.46 158.792 200.263 158.969 200.097C159.146 199.931 159.359 199.801 159.594 199.714C159.83 199.627 160.082 199.585 160.336 199.591C160.588 199.585 160.839 199.628 161.072 199.716C161.306 199.803 161.516 199.934 161.691 200.1C161.865 200.266 162 200.464 162.086 200.68C162.172 200.896 162.207 201.126 162.19 201.355C162.183 201.418 162.17 201.481 162.151 201.543ZM159.128 201.096H161.538C161.5 200.829 161.357 200.584 161.136 200.406C160.914 200.228 160.628 200.13 160.333 200.13C160.037 200.13 159.752 200.228 159.53 200.406C159.308 200.584 159.165 200.829 159.128 201.096Z" fill="white"/>
<path d="M165.129 199.597V200.185H164.974C164.806 200.174 164.638 200.198 164.481 200.255C164.325 200.311 164.185 200.4 164.071 200.513C163.957 200.626 163.873 200.761 163.825 200.908C163.777 201.054 163.765 201.209 163.792 201.361V203.06H163.114V199.65H163.76V200.238C163.896 200.022 164.098 199.847 164.341 199.734C164.584 199.62 164.858 199.572 165.129 199.597Z" fill="white"/>
<g opacity="0.6">
<path d="M135.607 104.435L135.898 103.882C136.399 104.264 137.033 104.473 137.687 104.47C138.624 104.47 139.025 104.141 139.025 103.711C139.025 102.535 135.743 103.264 135.743 101.436C135.743 100.671 136.389 100.025 137.817 100.025C138.432 100.016 139.037 100.166 139.561 100.46L139.302 101.048C138.859 100.789 138.343 100.651 137.817 100.648C136.893 100.648 136.525 101.001 136.525 101.43C136.525 102.606 139.813 101.877 139.813 103.694C139.813 104.446 139.167 105.093 137.713 105.093C136.948 105.108 136.201 104.874 135.607 104.435Z" fill="#263238"/>
<path d="M140.678 100.101C140.679 100.042 140.693 99.9834 140.719 99.9291C140.745 99.8748 140.782 99.8257 140.829 99.7847C140.876 99.7437 140.931 99.7115 140.992 99.6901C141.053 99.6687 141.117 99.6585 141.182 99.6601C141.246 99.6577 141.31 99.667 141.371 99.6874C141.431 99.7077 141.486 99.7388 141.533 99.7787C141.58 99.8187 141.617 99.8667 141.644 99.92C141.67 99.9733 141.684 100.031 141.686 100.089C141.686 100.211 141.633 100.328 141.539 100.414C141.444 100.5 141.316 100.548 141.182 100.548C141.049 100.548 140.92 100.5 140.826 100.414C140.731 100.328 140.678 100.211 140.678 100.089V100.101ZM140.808 101.277H141.557V105.017H140.808V101.277Z" fill="#263238"/>
<path d="M146.899 101.259V104.488C146.899 105.811 146.163 106.41 144.774 106.41C144.077 106.43 143.393 106.233 142.836 105.852L143.191 105.328C143.641 105.652 144.2 105.825 144.774 105.816C145.743 105.816 146.182 105.405 146.182 104.558V104.264C145.999 104.456 145.772 104.609 145.516 104.711C145.26 104.812 144.982 104.861 144.703 104.852C144.433 104.866 144.162 104.83 143.907 104.745C143.653 104.661 143.42 104.53 143.223 104.361C143.026 104.191 142.87 103.987 142.762 103.761C142.655 103.534 142.6 103.291 142.6 103.044C142.6 102.797 142.655 102.554 142.762 102.327C142.87 102.101 143.026 101.897 143.223 101.727C143.42 101.558 143.653 101.427 143.907 101.343C144.162 101.258 144.433 101.222 144.703 101.236C144.988 101.222 145.274 101.268 145.537 101.37C145.8 101.472 146.034 101.627 146.221 101.824V101.236L146.899 101.259ZM146.176 103.023C146.19 102.766 146.119 102.511 145.973 102.291C145.826 102.071 145.61 101.896 145.354 101.789C145.097 101.681 144.81 101.646 144.531 101.688C144.252 101.731 143.994 101.848 143.789 102.025C143.584 102.202 143.442 102.431 143.381 102.683C143.32 102.934 143.344 103.196 143.449 103.435C143.553 103.675 143.734 103.88 143.968 104.024C144.202 104.169 144.478 104.246 144.761 104.246C144.946 104.261 145.132 104.241 145.308 104.186C145.483 104.131 145.644 104.044 145.781 103.929C145.917 103.815 146.025 103.676 146.099 103.521C146.173 103.366 146.21 103.198 146.208 103.029L146.176 103.023Z" fill="#263238"/>
<path d="M152.222 102.847V104.999H151.473V102.9C151.473 102.165 151.072 101.806 150.368 101.806C150.189 101.796 150.01 101.821 149.843 101.881C149.676 101.94 149.526 102.032 149.403 102.151C149.279 102.269 149.186 102.411 149.13 102.566C149.073 102.721 149.055 102.885 149.076 103.047V104.976H148.333V101.236H149.05V101.824C149.227 101.625 149.453 101.467 149.711 101.365C149.969 101.262 150.249 101.218 150.53 101.236C150.763 101.222 150.997 101.254 151.214 101.331C151.432 101.408 151.629 101.528 151.79 101.681C151.951 101.835 152.074 102.019 152.148 102.22C152.223 102.422 152.248 102.636 152.222 102.847Z" fill="#263238"/>
<path d="M159.516 101.259V104.999H158.812V104.411C158.648 104.604 158.435 104.757 158.192 104.86C157.95 104.962 157.683 105.01 157.416 104.999C157.176 105.022 156.933 104.995 156.706 104.921C156.479 104.846 156.272 104.727 156.103 104.571C155.933 104.414 155.804 104.225 155.725 104.018C155.646 103.81 155.619 103.589 155.646 103.37V101.218H156.389V103.294C156.389 104.023 156.796 104.393 157.5 104.393C157.679 104.405 157.859 104.381 158.027 104.321C158.194 104.262 158.345 104.17 158.469 104.051C158.592 103.933 158.685 103.791 158.741 103.635C158.797 103.48 158.815 103.315 158.792 103.153V101.218L159.516 101.259Z" fill="#263238"/>
<path d="M165.188 103.129C165.202 103.382 165.159 103.634 165.06 103.871C164.961 104.107 164.81 104.322 164.614 104.502C164.419 104.682 164.185 104.822 163.927 104.915C163.668 105.008 163.391 105.05 163.114 105.04C162.841 105.05 162.57 105.002 162.321 104.9C162.072 104.798 161.853 104.645 161.68 104.452V106.381H160.937V101.277H161.647V101.865C161.818 101.66 162.041 101.496 162.296 101.387C162.551 101.277 162.832 101.225 163.114 101.236C163.39 101.225 163.665 101.267 163.923 101.358C164.18 101.449 164.414 101.589 164.609 101.767C164.804 101.945 164.956 102.158 165.056 102.393C165.156 102.627 165.2 102.878 165.188 103.129ZM164.438 103.129C164.426 102.884 164.334 102.647 164.175 102.448C164.016 102.249 163.796 102.097 163.543 102.01C163.29 101.924 163.015 101.907 162.751 101.961C162.487 102.016 162.247 102.139 162.06 102.317C161.873 102.494 161.747 102.718 161.698 102.96C161.649 103.202 161.679 103.452 161.784 103.678C161.889 103.905 162.065 104.098 162.29 104.235C162.515 104.371 162.779 104.445 163.049 104.446C163.238 104.45 163.425 104.418 163.599 104.352C163.773 104.287 163.931 104.189 164.061 104.065C164.192 103.941 164.293 103.794 164.357 103.633C164.422 103.472 164.45 103.301 164.438 103.129Z" fill="#263238"/>
</g>
<path d="M192.668 132.617H108.146V145.789H192.668V132.617Z" fill="white"/>
<g opacity="0.4">
<path d="M112.771 137.057H113.21V140.485H115.53V140.832H112.771V137.057Z" fill="#263238"/>
<path d="M118.533 139.074V140.838H118.133V140.397C118.015 140.554 117.854 140.68 117.666 140.763C117.478 140.846 117.269 140.881 117.061 140.867C116.356 140.867 115.924 140.532 115.924 140.038C115.924 139.544 116.227 139.238 117.125 139.238H118.114V139.068C118.114 138.58 117.81 138.315 117.229 138.315C116.851 138.311 116.484 138.43 116.195 138.65L116.001 138.362C116.37 138.102 116.827 137.967 117.293 137.98C117.457 137.962 117.624 137.977 117.781 138.026C117.938 138.074 118.081 138.153 118.2 138.258C118.319 138.362 118.41 138.49 118.468 138.631C118.526 138.773 118.548 138.924 118.533 139.074ZM118.114 139.979V139.515H117.138C116.531 139.515 116.337 139.732 116.337 140.026C116.337 140.32 116.628 140.555 117.125 140.555C117.336 140.567 117.545 140.518 117.723 140.414C117.9 140.311 118.037 140.158 118.114 139.979Z" fill="#263238"/>
<path d="M119.244 140.532L119.431 140.232C119.757 140.439 120.145 140.55 120.542 140.55C121.137 140.55 121.376 140.367 121.376 140.085C121.376 139.344 119.36 139.926 119.36 138.809C119.36 138.345 119.793 137.998 120.588 137.998C120.975 137.993 121.357 138.085 121.692 138.262L121.505 138.568C121.233 138.405 120.913 138.321 120.588 138.327C120.026 138.327 119.78 138.527 119.78 138.797C119.78 139.562 121.796 138.986 121.796 140.073C121.796 140.567 121.324 140.885 120.504 140.885C120.053 140.894 119.611 140.77 119.244 140.532Z" fill="#263238"/>
<path d="M124.244 140.661C124.061 140.794 123.832 140.864 123.598 140.861C123.475 140.873 123.351 140.86 123.234 140.823C123.118 140.785 123.012 140.725 122.925 140.645C122.837 140.566 122.771 140.469 122.729 140.363C122.688 140.257 122.674 140.144 122.687 140.032V138.321H122.125V137.998H122.687V137.374H123.107V137.998H124.05V138.321H123.107V140.015C123.096 140.082 123.102 140.151 123.125 140.217C123.147 140.282 123.186 140.342 123.237 140.392C123.289 140.441 123.352 140.48 123.423 140.504C123.493 140.529 123.568 140.538 123.643 140.532C123.813 140.537 123.978 140.484 124.108 140.385L124.244 140.661Z" fill="#263238"/>
<path d="M130.058 137.057V140.832H129.696L127.035 137.768V140.832H126.596V137.057H126.957L129.625 140.12V137.057H130.058Z" fill="#263238"/>
<path d="M133.701 139.074V140.838H133.288V140.397C133.171 140.555 133.011 140.682 132.822 140.765C132.634 140.847 132.424 140.883 132.216 140.867C131.512 140.867 131.079 140.532 131.079 140.038C131.079 139.544 131.389 139.238 132.287 139.238H133.288V139.068C133.288 138.58 132.984 138.315 132.403 138.315C132.026 138.311 131.659 138.43 131.369 138.65L131.176 138.362C131.544 138.101 132.001 137.966 132.468 137.98C132.631 137.963 132.797 137.979 132.953 138.028C133.109 138.076 133.252 138.155 133.37 138.26C133.488 138.365 133.579 138.492 133.636 138.633C133.694 138.774 133.716 138.924 133.701 139.074ZM133.282 139.979V139.515H132.3C131.699 139.515 131.505 139.732 131.505 140.026C131.505 140.32 131.796 140.555 132.293 140.555C132.505 140.569 132.716 140.52 132.895 140.416C133.074 140.312 133.211 140.159 133.288 139.979H133.282Z" fill="#263238"/>
<path d="M139.987 139.185V140.832H139.567V139.227C139.567 138.639 139.231 138.321 138.669 138.321C138.524 138.315 138.378 138.338 138.243 138.388C138.108 138.438 137.987 138.515 137.888 138.612C137.789 138.71 137.714 138.826 137.67 138.952C137.625 139.079 137.611 139.212 137.629 139.344V140.832H137.209V139.227C137.209 138.639 136.873 138.321 136.305 138.321C136.159 138.315 136.014 138.338 135.879 138.388C135.744 138.438 135.623 138.515 135.523 138.612C135.424 138.71 135.35 138.826 135.305 138.952C135.261 139.079 135.247 139.212 135.265 139.344V140.832H134.845V137.998H135.226V138.515C135.348 138.342 135.518 138.201 135.718 138.106C135.919 138.011 136.144 137.965 136.369 137.974C136.599 137.957 136.828 138.004 137.026 138.109C137.225 138.214 137.384 138.372 137.481 138.562C137.608 138.373 137.789 138.218 138.005 138.115C138.222 138.011 138.464 137.963 138.708 137.974C138.885 137.958 139.063 137.979 139.23 138.035C139.396 138.091 139.547 138.181 139.67 138.298C139.793 138.414 139.886 138.555 139.94 138.708C139.995 138.862 140.011 139.025 139.987 139.185Z" fill="#263238"/>
<path d="M143.857 139.532H141.273C141.282 139.671 141.321 139.806 141.387 139.931C141.454 140.055 141.547 140.166 141.661 140.258C141.775 140.35 141.908 140.42 142.052 140.465C142.196 140.51 142.348 140.529 142.5 140.52C142.679 140.525 142.858 140.495 143.023 140.431C143.188 140.367 143.336 140.271 143.456 140.15L143.689 140.397C143.465 140.609 143.177 140.758 142.861 140.822C142.545 140.887 142.216 140.866 141.913 140.761C141.611 140.656 141.349 140.473 141.16 140.233C140.972 139.994 140.865 139.709 140.853 139.415C140.842 139.227 140.874 139.04 140.946 138.865C141.018 138.689 141.129 138.529 141.272 138.394C141.415 138.259 141.587 138.152 141.777 138.079C141.967 138.007 142.171 137.971 142.377 137.974C142.583 137.97 142.787 138.006 142.977 138.078C143.167 138.15 143.339 138.257 143.481 138.392C143.623 138.528 143.733 138.688 143.803 138.864C143.873 139.04 143.902 139.228 143.889 139.415C143.863 139.45 143.857 139.491 143.857 139.532ZM141.273 139.25H143.482C143.482 138.983 143.366 138.728 143.158 138.539C142.951 138.351 142.67 138.245 142.377 138.245C142.084 138.245 141.803 138.351 141.596 138.539C141.389 138.728 141.273 138.983 141.273 139.25Z" fill="#263238"/>
</g>
<path d="M192.668 114.625H108.146V127.796H192.668V114.625Z" fill="white"/>
<g opacity="0.4">
<path d="M113.21 119.411V120.893H115.355V121.24H113.21V122.839H112.771V119.064H115.614V119.411H113.21Z" fill="#263238"/>
<path d="M116.279 119.105C116.278 119.049 116.295 118.994 116.328 118.946C116.362 118.899 116.41 118.862 116.467 118.84C116.524 118.818 116.587 118.812 116.648 118.822C116.709 118.833 116.764 118.86 116.808 118.9C116.852 118.94 116.882 118.991 116.893 119.046C116.905 119.101 116.898 119.158 116.874 119.21C116.85 119.262 116.809 119.306 116.757 119.337C116.705 119.367 116.644 119.383 116.582 119.382C116.502 119.382 116.425 119.353 116.368 119.301C116.311 119.249 116.279 119.179 116.279 119.105ZM116.369 120.005H116.789V122.839H116.369V120.005Z" fill="#263238"/>
<path d="M119.535 119.981V120.352H119.431C119.283 120.345 119.135 120.369 118.997 120.42C118.86 120.472 118.737 120.551 118.637 120.651C118.537 120.751 118.463 120.87 118.419 120.999C118.375 121.128 118.364 121.265 118.385 121.398V122.845H117.965V120.011H118.365V120.54C118.477 120.352 118.648 120.198 118.856 120.098C119.065 119.999 119.301 119.958 119.535 119.981Z" fill="#263238"/>
<path d="M119.884 122.516L120.071 122.21C120.394 122.423 120.783 122.536 121.182 122.533C121.776 122.533 122.015 122.345 122.015 122.069C122.015 121.328 120 121.91 120 120.787C120 120.328 120.433 119.981 121.227 119.981C121.615 119.974 121.998 120.065 122.332 120.246L122.145 120.552C121.873 120.388 121.553 120.304 121.227 120.311C120.665 120.311 120.42 120.511 120.42 120.781C120.42 121.545 122.435 120.969 122.435 122.057C122.435 122.545 121.964 122.863 121.143 122.863C120.693 122.873 120.252 122.752 119.884 122.516Z" fill="#263238"/>
<path d="M124.89 122.669C124.704 122.797 124.477 122.865 124.244 122.863C124.122 122.876 123.997 122.863 123.881 122.827C123.764 122.79 123.658 122.73 123.571 122.651C123.483 122.572 123.416 122.476 123.375 122.37C123.334 122.264 123.32 122.151 123.333 122.039V120.328H122.771V120.005H123.333V119.364H123.753V119.987H124.696V120.311H123.753V121.998C123.742 122.066 123.748 122.135 123.771 122.201C123.793 122.267 123.832 122.327 123.883 122.377C123.935 122.427 123.998 122.466 124.068 122.491C124.138 122.516 124.214 122.527 124.289 122.522C124.458 122.524 124.623 122.471 124.754 122.375L124.89 122.669Z" fill="#263238"/>
<path d="M130.704 119.064V122.839H130.342L127.681 119.776V122.839H127.242V119.064H127.603L130.271 122.128V119.064H130.704Z" fill="#263238"/>
<path d="M134.341 121.081V122.845H133.934V122.404C133.818 122.561 133.658 122.687 133.471 122.769C133.283 122.85 133.075 122.885 132.868 122.868C132.158 122.868 131.725 122.539 131.725 122.045C131.725 121.551 132.035 121.246 132.933 121.246H133.934V121.069C133.934 120.587 133.63 120.322 133.049 120.322C132.672 120.318 132.305 120.437 132.015 120.658L131.822 120.369C132.19 120.108 132.647 119.973 133.114 119.987C133.277 119.97 133.443 119.986 133.599 120.035C133.754 120.083 133.896 120.163 134.014 120.268C134.132 120.372 134.222 120.5 134.279 120.641C134.335 120.781 134.357 120.932 134.341 121.081ZM133.921 121.986V121.522H132.939C132.338 121.522 132.145 121.74 132.145 122.028C132.145 122.316 132.435 122.563 132.933 122.563C133.145 122.576 133.357 122.527 133.537 122.424C133.717 122.32 133.856 122.167 133.934 121.986H133.921Z" fill="#263238"/>
<path d="M140.627 121.193V122.839H140.207V121.234C140.207 120.646 139.871 120.328 139.309 120.328C139.163 120.322 139.018 120.345 138.883 120.395C138.748 120.446 138.626 120.522 138.527 120.62C138.428 120.717 138.354 120.833 138.309 120.96C138.265 121.086 138.251 121.22 138.269 121.351V122.839H137.849V121.234C137.849 120.646 137.513 120.328 136.944 120.328C136.799 120.322 136.653 120.345 136.518 120.395C136.383 120.446 136.262 120.522 136.163 120.62C136.064 120.717 135.99 120.833 135.945 120.96C135.9 121.086 135.886 121.22 135.904 121.351V122.839H135.484V120.005H135.872V120.54C135.994 120.367 136.164 120.225 136.364 120.13C136.565 120.036 136.79 119.99 137.016 119.999C137.245 119.982 137.474 120.029 137.673 120.134C137.871 120.239 138.03 120.397 138.127 120.587C138.253 120.397 138.434 120.241 138.651 120.138C138.867 120.034 139.11 119.986 139.354 119.999C139.528 119.985 139.704 120.006 139.868 120.062C140.033 120.117 140.181 120.205 140.303 120.32C140.425 120.434 140.517 120.572 140.573 120.723C140.629 120.874 140.648 121.034 140.627 121.193Z" fill="#263238"/>
<path d="M144.496 121.54H141.912C141.921 121.678 141.96 121.813 142.027 121.938C142.093 122.062 142.186 122.174 142.301 122.266C142.415 122.357 142.547 122.428 142.691 122.473C142.835 122.518 142.988 122.536 143.14 122.527C143.32 122.533 143.499 122.502 143.664 122.437C143.829 122.372 143.977 122.274 144.096 122.151L144.328 122.404C144.104 122.617 143.817 122.765 143.501 122.83C143.185 122.894 142.855 122.873 142.553 122.768C142.25 122.664 141.988 122.48 141.8 122.241C141.611 122.001 141.504 121.716 141.492 121.422C141.482 121.235 141.513 121.047 141.585 120.872C141.658 120.696 141.769 120.536 141.911 120.401C142.054 120.266 142.226 120.159 142.416 120.087C142.606 120.015 142.811 119.979 143.017 119.981C143.223 119.978 143.427 120.013 143.617 120.085C143.807 120.157 143.978 120.264 144.12 120.399C144.262 120.535 144.372 120.696 144.442 120.872C144.513 121.048 144.542 121.235 144.528 121.422C144.503 121.451 144.496 121.493 144.496 121.54ZM141.912 121.251H144.122C144.122 120.985 144.005 120.729 143.798 120.54C143.591 120.352 143.31 120.246 143.017 120.246C142.724 120.246 142.443 120.352 142.236 120.54C142.029 120.729 141.912 120.985 141.912 121.251Z" fill="#263238"/>
</g>
<path d="M76.3432 226.545H75.7295C75.7295 225.716 76.4853 206.288 80.1998 203.025C84.0177 199.644 88.5074 202.978 88.5461 203.025L88.1585 203.448C87.9906 203.325 84.0435 200.408 80.6197 203.448C77.0861 206.511 76.3497 226.345 76.3432 226.545Z" fill="#92E3A9"/>
<path d="M76.0331 230.443L75.4259 230.39C75.4259 230.155 77.829 206.8 68.5331 197.086L68.9917 196.721C78.4621 206.617 76.059 230.208 76.0331 230.443Z" fill="#92E3A9"/>
<path d="M76.3303 227.95C76.2528 226.845 74.4634 200.902 81.6081 194.904L82.0216 195.316C75.09 201.114 76.9182 227.656 76.9375 227.909L76.3303 227.95Z" fill="#92E3A9"/>
<path d="M75.4259 227.932C75.4259 227.756 75.2062 210.292 70.1222 207.664C69.69 207.405 69.1956 207.243 68.6807 207.194C68.1658 207.145 67.6455 207.209 67.1635 207.382C64.1855 208.505 62.6028 213.679 62.5834 213.732L61.9955 213.585C62.0601 213.362 63.6751 208.099 66.931 206.87C67.4982 206.663 68.1119 206.583 68.7203 206.637C69.3286 206.691 69.9136 206.878 70.4258 207.182C75.807 209.987 76.0331 227.174 76.0396 227.926L75.4259 227.932Z" fill="#92E3A9"/>
<path d="M77.5189 227.944C77.4802 227.356 76.6985 214.161 80.8135 209.263C81.9117 207.964 83.1262 207.346 84.4441 207.435C87.3704 207.617 89.6121 211.227 89.7348 211.38L89.2051 211.657C89.2051 211.621 86.9958 208.129 84.3988 207.987C83.3071 207.911 82.2606 208.458 81.298 209.604C77.3187 214.308 78.1197 227.779 78.1262 227.915L77.5189 227.944Z" fill="#92E3A9"/>
<path d="M76.6985 229.773L76.0913 229.732C76.0913 229.414 78.6753 197.909 74.4117 192.652L74.9026 192.323C79.3084 197.744 76.8083 228.467 76.6985 229.773Z" fill="#92E3A9"/>
<path d="M65.7488 210.004C65.7488 210.004 68.3845 210.892 67.6028 212.979C66.8212 215.067 58.4748 218.507 58.4748 218.507C58.4748 218.507 54.98 215.596 58.1906 210.863C61.4012 206.129 65.6777 208.511 65.7488 210.004Z" fill="#92E3A9"/>
<path opacity="0.2" d="M65.7488 210.004C65.7488 210.004 68.3845 210.892 67.6028 212.979C66.8212 215.067 58.4748 218.507 58.4748 218.507C58.4748 218.507 54.98 215.596 58.1906 210.863C61.4012 206.129 65.6777 208.511 65.7488 210.004Z" fill="black"/>
<path d="M77.2153 206.029C77.2153 206.029 74.4052 205.923 74.2437 208.123C74.0822 210.322 80.3161 216.425 80.3161 216.425C80.3161 216.425 84.7735 214.955 83.8174 209.457C82.8613 203.96 77.913 204.671 77.2153 206.029Z" fill="#92E3A9"/>
<path opacity="0.2" d="M77.2153 206.029C77.2153 206.029 74.4052 205.923 74.2437 208.123C74.0822 210.322 80.3161 216.425 80.3161 216.425C80.3161 216.425 84.7735 214.955 83.8174 209.457C82.8613 203.96 77.913 204.671 77.2153 206.029Z" fill="black"/>
<path d="M79.5926 195.481C79.5926 195.481 77.7192 195.298 77.8678 194.263C78.0163 193.229 85.1482 190.553 89.3537 194.851C89.3537 194.851 86.6598 199.062 82.7709 199.12C78.882 199.179 79.5926 195.481 79.5926 195.481Z" fill="#92E3A9"/>
<path opacity="0.2" d="M79.5926 195.481C79.5926 195.481 77.7192 195.298 77.8678 194.263C78.0163 193.229 85.1482 190.553 89.3537 194.851C89.3537 194.851 86.6598 199.062 82.7709 199.12C78.882 199.179 79.5926 195.481 79.5926 195.481Z" fill="black"/>
<path d="M76.1042 192.958C76.1042 192.958 77.7967 193.705 78.2747 192.752C78.7528 191.8 74.2501 186.102 68.1713 187.743C68.1713 187.743 68.0098 192.611 71.2786 194.534C74.5473 196.457 76.1042 192.958 76.1042 192.958Z" fill="#92E3A9"/>
<path opacity="0.2" d="M76.1042 192.958C76.1042 192.958 77.7967 193.705 78.2747 192.752C78.7528 191.8 74.2501 186.102 68.1713 187.743C68.1713 187.743 68.0098 192.611 71.2786 194.534C74.5473 196.457 76.1042 192.958 76.1042 192.958Z" fill="black"/>
<path d="M84.9673 209.169C84.9673 209.169 83.6753 208.217 85.0707 207.752C86.466 207.288 93.3072 207.423 93.3782 213.591C93.3782 213.591 85.4066 214.796 84.4247 212.444C83.4428 210.092 84.9673 209.169 84.9673 209.169Z" fill="#92E3A9"/>
<path opacity="0.2" d="M84.9673 209.169C84.9673 209.169 83.6753 208.217 85.0707 207.752C86.466 207.288 93.3072 207.423 93.3782 213.591C93.3782 213.591 85.4066 214.796 84.4247 212.444C83.4428 210.092 84.9673 209.169 84.9673 209.169Z" fill="black"/>
<path d="M68.6881 195.328C68.6881 195.328 69.9801 194.375 68.5847 193.917C67.1894 193.458 60.3482 193.581 60.2772 199.749C60.2772 199.749 68.2488 200.961 69.2307 198.609C70.2126 196.257 68.6881 195.328 68.6881 195.328Z" fill="#92E3A9"/>
<path opacity="0.2" d="M68.6881 195.328C68.6881 195.328 69.9801 194.375 68.5847 193.917C67.1894 193.458 60.3482 193.581 60.2772 199.749C60.2772 199.749 68.2488 200.961 69.2307 198.609C70.2126 196.257 68.6881 195.328 68.6881 195.328Z" fill="black"/>
<path d="M72.9259 200.296C72.9259 200.296 73.0422 199.12 72.015 199.597C70.9879 200.073 67.4284 203.554 71.1235 206.876C71.1235 206.876 76.1042 203.519 75.2062 201.772C74.3083 200.026 72.9259 200.296 72.9259 200.296Z" fill="#92E3A9"/>
<path opacity="0.2" d="M72.9259 200.296C72.9259 200.296 73.0422 199.12 72.015 199.597C70.9879 200.073 67.4284 203.554 71.1235 206.876C71.1235 206.876 76.1042 203.519 75.2062 201.772C74.3083 200.026 72.9259 200.296 72.9259 200.296Z" fill="black"/>
<path d="M86.1301 201.943C86.1301 201.943 85.3549 201.02 86.4918 200.908C87.6288 200.796 92.6934 202.025 91.5113 206.635C91.5113 206.635 85.3355 206.212 85.0513 204.283C84.767 202.354 86.1301 201.943 86.1301 201.943Z" fill="#92E3A9"/>
<path opacity="0.2" d="M86.1301 201.943C86.1301 201.943 85.3549 201.02 86.4918 200.908C87.6288 200.796 92.6934 202.025 91.5113 206.635C91.5113 206.635 85.3355 206.212 85.0513 204.283C84.767 202.354 86.1301 201.943 86.1301 201.943Z" fill="black"/>
<path d="M66.2075 245.031H86.1754L88.8304 227.356H63.5524L66.2075 245.031Z" fill="#263238"/>
<path opacity="0.2" d="M66.2075 245.031H86.1754L88.8304 227.356H63.5524L66.2075 245.031Z" fill="white"/>
<path d="M91.3368 225.921V227.603C91.3368 228.143 91.1013 228.66 90.6822 229.042C90.263 229.423 89.6945 229.638 89.1017 229.638H63.0356C62.4428 229.638 61.8743 229.423 61.4551 229.042C61.0359 228.66 60.8004 228.143 60.8004 227.603V225.921H91.3368Z" fill="#263238"/>
<path d="M257.721 58.3943H239.161C237.646 58.3943 236.194 58.9419 235.123 59.9167C234.052 60.8915 233.45 62.2136 233.45 63.5922V78.2922C233.45 78.9753 233.597 79.6519 233.883 80.2832C234.17 80.9145 234.59 81.4882 235.121 81.9715C235.651 82.4548 236.281 82.8382 236.974 83.0998C237.667 83.3614 238.411 83.496 239.161 83.496H244.581L243.289 88.1353L248.457 83.496H257.753C259.269 83.496 260.723 82.9478 261.796 81.9718C262.868 80.9959 263.47 79.6723 263.47 78.2922V63.5922C263.47 62.9066 263.321 62.2278 263.032 61.5949C262.742 60.9619 262.318 60.3873 261.784 59.9042C261.249 59.4211 260.615 59.0389 259.918 58.7798C259.221 58.5206 258.474 58.3896 257.721 58.3943Z" fill="#92E3A9"/>
<path opacity="0.7" d="M257.721 58.3943H239.161C237.646 58.3943 236.194 58.9419 235.123 59.9167C234.052 60.8915 233.45 62.2136 233.45 63.5922V78.2922C233.45 78.9753 233.597 79.6519 233.883 80.2832C234.17 80.9145 234.59 81.4882 235.121 81.9715C235.651 82.4548 236.281 82.8382 236.974 83.0998C237.667 83.3614 238.411 83.496 239.161 83.496H244.581L243.289 88.1353L248.457 83.496H257.753C259.269 83.496 260.723 82.9478 261.796 81.9718C262.868 80.9959 263.47 79.6723 263.47 78.2922V63.5922C263.47 62.9066 263.321 62.2278 263.032 61.5949C262.742 60.9619 262.318 60.3873 261.784 59.9042C261.249 59.4211 260.615 59.0389 259.918 58.7798C259.221 58.5206 258.474 58.3896 257.721 58.3943Z" fill="white"/>
<path d="M248.444 77.4396C252.422 77.4396 255.647 74.5043 255.647 70.8834C255.647 67.2625 252.422 64.3272 248.444 64.3272C244.466 64.3272 241.241 67.2625 241.241 70.8834C241.241 74.5043 244.466 77.4396 248.444 77.4396Z" fill="white"/>
<path d="M248.444 62.4985C246.622 62.4985 244.841 62.9903 243.326 63.9116C241.811 64.833 240.631 66.1425 239.933 67.6747C239.236 69.2068 239.054 70.8927 239.409 72.5192C239.765 74.1457 240.642 75.6398 241.93 76.8124C243.219 77.9851 244.86 78.7836 246.647 79.1072C248.434 79.4307 250.286 79.2647 251.969 78.63C253.653 77.9954 255.091 76.9207 256.103 75.5418C257.116 74.1629 257.656 72.5418 257.656 70.8834C257.657 69.7821 257.419 68.6914 256.956 67.6737C256.494 66.6561 255.815 65.7314 254.96 64.9527C254.104 64.1739 253.088 63.5563 251.97 63.1352C250.852 62.7141 249.654 62.4978 248.444 62.4985ZM253.67 68.3785L248.121 74.3291C248.042 74.4151 247.943 74.484 247.832 74.5308C247.72 74.5776 247.598 74.6011 247.475 74.5996C247.352 74.6003 247.231 74.5764 247.119 74.5296C247.007 74.4829 246.908 74.4145 246.829 74.3291L243.218 70.4542C243.142 70.3776 243.083 70.2877 243.046 70.1901C243.008 70.0924 242.993 69.9889 243.001 69.8857C243.008 69.7826 243.038 69.6818 243.09 69.5895C243.141 69.4972 243.212 69.4152 243.299 69.3485C243.385 69.2818 243.486 69.2316 243.595 69.201C243.703 69.1704 243.817 69.1601 243.93 69.1705C244.043 69.181 244.153 69.212 244.253 69.2618C244.352 69.3116 244.44 69.3792 244.51 69.4605L247.475 72.6415L252.378 67.3848C252.525 67.2369 252.73 67.1468 252.949 67.1336C253.168 67.1203 253.384 67.1849 253.551 67.3138C253.719 67.4426 253.825 67.6257 253.847 67.8243C253.869 68.0229 253.806 68.2216 253.67 68.3785Z" fill="#92E3A9"/>
<path d="M254.504 149.093C254.504 149.093 243.257 147.8 226.215 152.033C226.215 152.033 223.476 124.315 223.799 120.505C224.122 116.695 250.111 117.812 250.111 117.812C250.111 117.812 250.757 128.907 252.449 135.599C254.142 142.29 255.382 147.806 254.504 149.093Z" fill="#92E3A9"/>
<path opacity="0.2" d="M254.504 149.093C254.504 149.093 243.257 147.8 226.215 152.033C226.215 152.033 223.476 124.315 223.799 120.505C224.122 116.695 250.111 117.812 250.111 117.812C250.111 117.812 250.757 128.907 252.449 135.599C254.142 142.29 255.382 147.806 254.504 149.093Z" fill="black"/>
<path d="M217.998 240.857L222.585 242.038L223.676 235.541L224.264 232.066L219.678 230.884L218.896 235.541L217.998 240.857Z" fill="#E4897B"/>
<path d="M244.368 241.198L249.097 241.768L249.142 235.541L249.174 231.672L244.439 231.108L244.407 235.541L244.368 241.198Z" fill="#E4897B"/>
<path opacity="0.2" d="M244.439 231.108L244.407 235.541H249.142L249.174 231.672L244.439 231.108Z" fill="black"/>
<path opacity="0.2" d="M218.896 235.541H223.676L224.264 232.066L219.678 230.884L218.896 235.541Z" fill="black"/>
<path d="M197.636 122.78L193.082 121.557L193.915 126.291C193.915 126.291 198.05 127.155 198.437 125.197L197.636 122.78Z" fill="#E4897B"/>
<path d="M188.534 122.657L190.769 126.502L193.915 126.291L193.082 121.557L188.534 122.657Z" fill="#E4897B"/>
<path d="M203.922 123.992L196.441 122.469L195.763 125.773L202.552 127.279L203.922 123.992Z" fill="#E4897B"/>
<path d="M226.551 121.005L226.112 121.481C225.169 122.486 222.882 124.915 220.498 127.008C218.56 128.713 216.622 130.201 215.33 130.501C211.667 131.359 198.353 127.79 198.353 127.79L199.729 122.874C199.729 122.874 212.132 124.374 213.095 124.374C213.825 124.374 221.37 114.425 223.198 113.608L226.551 121.005Z" fill="#92E3A9"/>
<path opacity="0.2" d="M226.112 121.481C225.169 122.486 222.882 124.915 220.498 127.008C220.976 123.562 222.365 120.399 224.193 118.4C224.364 118.207 224.559 118.033 224.775 117.882L226.112 121.481Z" fill="black"/>
<path d="M218.056 240.204L223.263 240.08C223.357 240.078 223.449 240.104 223.524 240.156C223.599 240.207 223.653 240.28 223.676 240.363L224.775 244.179C224.801 244.27 224.804 244.366 224.784 244.458C224.764 244.551 224.722 244.639 224.66 244.714C224.598 244.79 224.518 244.852 224.426 244.896C224.334 244.939 224.232 244.964 224.129 244.967C222.249 244.967 219.529 244.967 217.171 245.008C214.406 245.078 212.649 244.955 209.419 245.008C207.481 245.055 206.835 243.279 207.662 243.097C211.364 242.262 213.786 242.427 216.939 240.545C217.271 240.343 217.657 240.225 218.056 240.204Z" fill="#263238"/>
<path d="M217.604 240.815C216.842 240.968 215.485 241.174 214.942 240.768C214.863 240.709 214.801 240.633 214.761 240.547C214.72 240.461 214.703 240.368 214.71 240.274C214.71 240.219 214.726 240.163 214.756 240.115C214.787 240.066 214.831 240.026 214.884 239.998C215.459 239.686 217.404 240.527 217.63 240.621C217.65 240.631 217.666 240.646 217.678 240.663C217.689 240.681 217.695 240.701 217.694 240.721C217.693 240.744 217.684 240.766 217.667 240.783C217.651 240.8 217.629 240.811 217.604 240.815ZM215.02 240.163H214.981C214.96 240.174 214.942 240.19 214.929 240.21C214.917 240.23 214.91 240.252 214.91 240.274C214.905 240.335 214.916 240.396 214.941 240.453C214.967 240.509 215.007 240.559 215.059 240.598C215.362 240.827 216.151 240.851 217.197 240.663C216.441 240.374 215.388 240.039 215.033 240.163H215.02Z" fill="#92E3A9"/>
<path d="M217.604 240.815H217.526C216.939 240.592 215.763 239.686 215.828 239.198C215.828 239.081 215.931 238.934 216.241 238.899C216.355 238.885 216.47 238.892 216.581 238.919C216.692 238.947 216.796 238.993 216.887 239.057C217.533 239.498 217.682 240.657 217.694 240.704C217.696 240.722 217.693 240.74 217.685 240.756C217.677 240.773 217.665 240.787 217.649 240.798L217.604 240.815ZM216.157 239.128C216.06 239.157 216.054 239.204 216.054 239.222C216.015 239.516 216.816 240.233 217.417 240.539C217.347 240.045 217.108 239.584 216.732 239.222C216.668 239.173 216.594 239.137 216.513 239.117C216.433 239.097 216.349 239.092 216.267 239.104C216.229 239.107 216.192 239.115 216.157 239.128Z" fill="#92E3A9"/>
<path d="M244.555 240.204L249.762 240.08C249.857 240.077 249.95 240.104 250.026 240.155C250.102 240.206 250.157 240.279 250.182 240.363L251.274 244.179C251.301 244.27 251.305 244.366 251.286 244.459C251.267 244.552 251.224 244.64 251.162 244.716C251.1 244.792 251.019 244.854 250.927 244.898C250.834 244.941 250.732 244.965 250.628 244.967C248.748 244.967 246.028 244.967 243.664 245.008C240.905 245.078 239.142 244.955 235.912 245.008C233.974 245.055 233.328 243.279 234.155 243.097C237.856 242.262 240.272 242.427 243.425 240.545C243.761 240.341 244.151 240.223 244.555 240.204Z" fill="#263238"/>
<path d="M244.109 240.815C243.347 240.968 241.984 241.174 241.448 240.768C241.369 240.709 241.306 240.633 241.266 240.547C241.226 240.461 241.208 240.368 241.215 240.274C241.215 240.219 241.231 240.163 241.262 240.115C241.292 240.066 241.336 240.026 241.39 239.998C241.958 239.686 243.909 240.527 244.129 240.621C244.15 240.629 244.168 240.643 244.18 240.661C244.192 240.679 244.196 240.701 244.193 240.721C244.192 240.743 244.183 240.764 244.168 240.78C244.153 240.797 244.132 240.809 244.109 240.815ZM241.525 240.163H241.487C241.465 240.174 241.448 240.19 241.436 240.21C241.425 240.23 241.42 240.252 241.422 240.274C241.416 240.335 241.426 240.397 241.452 240.453C241.478 240.51 241.518 240.559 241.571 240.598C241.874 240.827 242.656 240.851 243.709 240.663C242.94 240.374 241.887 240.039 241.532 240.163H241.525Z" fill="#92E3A9"/>
<path d="M244.109 240.815H244.025C243.444 240.592 242.262 239.686 242.333 239.198C242.333 239.081 242.43 238.934 242.74 238.899C242.854 238.884 242.97 238.891 243.081 238.918C243.192 238.946 243.295 238.993 243.386 239.057C243.838 239.516 244.12 240.091 244.193 240.704C244.197 240.722 244.194 240.74 244.186 240.757C244.178 240.774 244.165 240.788 244.148 240.798L244.109 240.815ZM242.656 239.128C242.565 239.157 242.559 239.204 242.559 239.222C242.514 239.516 243.321 240.233 243.922 240.539C243.848 240.046 243.609 239.586 243.237 239.222C243.173 239.173 243.099 239.138 243.019 239.118C242.938 239.097 242.854 239.093 242.772 239.104L242.656 239.128Z" fill="#92E3A9"/>
<path d="M254.122 146.565C256.629 156.449 252.327 234.212 252.327 234.212H244.019L240.466 169.409L227.384 234.212L218.502 233.624C224.316 183.421 229.439 153.45 229.439 153.45V149.664L254.122 146.565Z" fill="#263238"/>
<path opacity="0.4" d="M218.502 233.624L227.384 234.212L237.682 183.197L240.466 169.409L244.019 234.212H252.327C252.327 234.212 256.629 156.449 254.122 146.565L229.426 149.664V153.45C229.426 153.45 224.309 183.421 218.502 233.624Z" fill="white"/>
<path d="M249.646 109.956C249.391 114.682 249.523 119.419 250.04 124.127C250.389 127.42 250.867 130.53 251.377 133.335C252.572 139.915 253.929 144.848 254.122 146.571L229.426 149.67C220.421 126.738 223.812 113.413 223.812 113.413C225.659 112.719 227.551 112.13 229.477 111.649C229.884 111.55 230.298 111.455 230.724 111.367C234.193 110.746 237.698 110.306 241.222 110.05C241.868 109.997 242.572 109.956 243.231 109.927C246.603 109.774 249.646 109.956 249.646 109.956Z" fill="#263238"/>
<path d="M236.428 99.6367C236.609 102.782 236.978 108.686 239.852 110.185C239.852 110.185 238.063 113.284 234.193 113.602C231.267 113.837 231.461 111.209 231.461 111.209C233.153 110.062 232.753 108.116 231.461 105.917L236.428 99.6367Z" fill="#E4897B"/>
<path opacity="0.2" d="M234.4 102.2L231.48 105.916C231.787 106.425 232.047 106.956 232.255 107.504C233.612 107.01 235.169 105.152 234.943 103.806C234.872 103.245 234.688 102.7 234.4 102.2Z" fill="black"/>
<path d="M223.831 93.3039C223.269 94.9385 223.579 98.2901 226.08 97.2023C228.58 96.1145 224.8 90.4991 223.831 93.3039Z" fill="#263238"/>
<path d="M236.751 95.5148C237.029 99.7072 237.397 102.147 235.388 104.523C232.333 108.092 226.415 106.763 224.762 102.718C223.276 99.0722 223.076 92.8276 227.346 90.7108C228.292 90.2421 229.354 89.9996 230.431 90.006C231.509 90.0124 232.567 90.2675 233.507 90.7475C234.446 91.2274 235.237 91.9165 235.805 92.7503C236.372 93.584 236.698 94.5352 236.751 95.5148Z" fill="#E4897B"/>
<path d="M233.521 93.2333V88.5293C233.521 88.5293 239 88.1589 238.754 90.7108C241.79 92.0808 240.356 96.3791 236.28 98.4842C234.045 96.8554 234.303 92.9393 234.303 92.9393C234.064 93.051 233.793 93.1451 233.521 93.2333Z" fill="#263238"/>
<path d="M238.98 98.784C238.875 99.2969 238.657 99.7853 238.341 100.221C238.025 100.656 237.616 101.029 237.139 101.318C235.847 102.089 234.729 101.142 234.684 99.8189C234.645 98.6429 235.259 96.7848 236.745 96.5496C237.07 96.5035 237.402 96.5315 237.713 96.631C238.023 96.7304 238.301 96.8984 238.523 97.1198C238.744 97.3411 238.902 97.609 238.982 97.8995C239.061 98.1899 239.061 98.4938 238.98 98.784Z" fill="#E4897B"/>
<path d="M229.949 97.3846C229.994 97.7256 229.833 98.0196 229.587 98.0432C229.342 98.0667 229.109 97.8138 229.064 97.4552C229.019 97.0965 229.18 96.8201 229.419 96.7966C229.658 96.7731 229.904 97.02 229.949 97.3846Z" fill="#263238"/>
<path d="M225.724 97.8139C225.769 98.1549 225.608 98.4489 225.362 98.4724C225.117 98.4959 224.884 98.2431 224.839 97.8844C224.794 97.5257 224.955 97.2494 225.201 97.2259C225.446 97.2023 225.666 97.4728 225.724 97.8139Z" fill="#263238"/>
<path d="M227.087 97.8432C226.761 98.8946 226.276 99.8999 225.647 100.83C225.925 100.961 226.231 101.036 226.544 101.051C226.857 101.066 227.17 101.021 227.462 100.918L227.087 97.8432Z" fill="#DE5753"/>
<path d="M229.639 102.012C229.48 102.049 229.318 102.077 229.154 102.094C229.125 102.094 229.097 102.084 229.077 102.065C229.056 102.046 229.045 102.021 229.045 101.995C229.045 101.968 229.056 101.943 229.077 101.924C229.097 101.905 229.125 101.895 229.154 101.895C229.618 101.856 230.066 101.719 230.461 101.494C230.856 101.27 231.187 100.964 231.428 100.601C231.434 100.589 231.442 100.578 231.452 100.569C231.463 100.561 231.475 100.554 231.488 100.549C231.502 100.545 231.516 100.543 231.53 100.544C231.544 100.545 231.558 100.548 231.571 100.554C231.584 100.56 231.596 100.568 231.606 100.577C231.615 100.587 231.623 100.599 231.628 100.612C231.633 100.624 231.635 100.638 231.634 100.651C231.633 100.664 231.629 100.677 231.622 100.689C231.411 101.023 231.125 101.313 230.784 101.541C230.442 101.769 230.052 101.929 229.639 102.012Z" fill="#263238"/>
<path d="M231.086 96.0145C231.047 96.0228 231.006 96.0217 230.968 96.0114C230.929 96.0011 230.894 95.982 230.866 95.9557C230.679 95.7691 230.447 95.6247 230.188 95.5339C229.929 95.4431 229.65 95.4083 229.374 95.4324C229.346 95.4384 229.316 95.439 229.287 95.4341C229.259 95.4292 229.231 95.419 229.207 95.4042C229.183 95.3893 229.162 95.37 229.146 95.3475C229.131 95.3251 229.12 95.2999 229.116 95.2737C229.11 95.2478 229.11 95.2211 229.116 95.1953C229.122 95.1694 229.133 95.1449 229.149 95.123C229.165 95.1011 229.186 95.0824 229.21 95.0679C229.235 95.0534 229.262 95.0434 229.29 95.0385C229.639 95.0007 229.993 95.0391 230.322 95.1505C230.651 95.262 230.946 95.4433 231.183 95.6794C231.204 95.6975 231.221 95.7194 231.232 95.7437C231.244 95.7679 231.25 95.7941 231.25 95.8205C231.25 95.8469 231.244 95.8731 231.232 95.8973C231.221 95.9216 231.204 95.9435 231.183 95.9616C231.155 95.9855 231.122 96.0036 231.086 96.0145Z" fill="#263238"/>
<path d="M223.728 96.679C223.686 96.6935 223.64 96.6935 223.599 96.679C223.544 96.6616 223.499 96.6253 223.474 96.578C223.448 96.5306 223.445 96.4761 223.463 96.4262C223.57 96.1235 223.755 95.8489 224.004 95.6257C224.253 95.4024 224.557 95.2373 224.891 95.1443C224.947 95.1311 225.007 95.1388 225.058 95.1658C225.108 95.1928 225.144 95.2369 225.159 95.2884C225.174 95.3399 225.165 95.3945 225.135 95.4402C225.106 95.486 225.057 95.5192 225.001 95.5324C224.737 95.6065 224.496 95.7386 224.302 95.917C224.107 96.0954 223.963 96.3147 223.883 96.5555C223.871 96.5864 223.85 96.6139 223.823 96.6355C223.796 96.657 223.763 96.672 223.728 96.679Z" fill="#263238"/>
<path d="M235.95 94.9738C235.95 94.9738 232.72 93.8977 231.247 92.1925C231.247 92.1925 228.315 92.8923 227.714 93.9565C227.44 93.7429 227.262 93.4443 227.216 93.1186C227.169 92.7928 227.257 92.4629 227.462 92.1925C227.462 92.1925 225.266 92.6159 224.833 93.9565C224.476 93.8019 224.183 93.5471 223.997 93.2295C223.811 92.912 223.741 92.5485 223.799 92.1925C223.799 92.1925 222.824 92.5277 222.507 93.9565C222.507 93.9565 220.085 89.3584 228.089 88.0413C227.483 87.8542 226.848 87.7569 226.209 87.7532C226.209 87.7532 231.797 85.701 236.222 87.5768C240.647 89.4525 239.878 93.0863 235.95 94.9738Z" fill="#263238"/>
<path d="M256.028 150.528L248.276 151.469C248.276 151.469 245.078 131.13 243.67 124.562V110.544L247.721 109.574L250.86 110.544C251.721 113.364 252.384 116.232 252.843 119.129C253.224 121.328 253.567 123.68 253.87 126.061C254.29 129.307 254.639 132.612 254.936 135.705C255.401 140.697 255.712 145.113 255.88 147.811C255.976 149.505 256.028 150.528 256.028 150.528Z" fill="#92E3A9"/>
<path d="M243.677 124.55C243.677 124.55 244.323 114.654 247.727 109.55C247.727 109.55 247.643 108.092 246.965 107.857C246.286 107.622 243.677 109.033 243.677 109.033C243.677 109.033 242.055 108.022 241.7 108.492C241.345 108.962 240.479 112.09 243.677 124.55Z" fill="#92E3A9"/>
<path opacity="0.7" d="M243.677 124.55C243.677 124.55 244.323 114.654 247.727 109.55C247.727 109.55 247.643 108.092 246.965 107.857C246.286 107.622 243.677 109.033 243.677 109.033C243.677 109.033 242.055 108.022 241.7 108.492C241.345 108.962 240.479 112.09 243.677 124.55Z" fill="white"/>
<path d="M226.054 153.239L226.939 153.827C226.939 153.827 225.647 147.271 226.176 130.689C226.176 129.889 226.235 129.119 226.267 128.384C226.913 114.354 229.316 111.802 229.497 111.649L227.262 112.343L223.211 113.613C221.99 125.579 226.054 153.239 226.054 153.239Z" fill="#92E3A9"/>
<path d="M226.403 125.967C226.403 125.967 224.167 116.348 224.833 113.031C225.498 109.715 227.882 111.191 227.882 111.191C227.882 111.191 230.072 109.58 230.724 111.355C230.724 111.355 227.714 113.284 226.403 125.967Z" fill="#92E3A9"/>
<path opacity="0.7" d="M226.403 125.967C226.403 125.967 224.167 116.348 224.833 113.031C225.498 109.715 227.882 111.191 227.882 111.191C227.882 111.191 230.072 109.58 230.724 111.355C230.724 111.355 227.714 113.284 226.403 125.967Z" fill="white"/>
<path opacity="0.2" d="M253.858 126.038C250.55 124.35 250.111 119.946 250.111 119.946C250.311 119.876 251.538 119.493 252.83 119.105C253.212 121.304 253.554 123.656 253.858 126.038Z" fill="black"/>
<path opacity="0.2" d="M237.682 183.197L240.466 169.409L239.93 162.112C239.93 162.112 236.112 174.765 237.682 183.197Z" fill="black"/>
<path opacity="0.2" d="M255.867 147.788C253.786 147.659 251.991 147.535 251.991 147.535L251.597 139.838C252.245 139.469 253.023 139.338 253.774 139.474C254.285 138.244 254.672 136.975 254.93 135.681C255.382 140.673 255.699 145.095 255.867 147.788Z" fill="black"/>
<path d="M256.577 135.675L252.527 141.596L255.731 143.272L259.536 137.939L256.577 135.675Z" fill="#E4897B"/>
<path d="M250.686 110.45C253.412 110.72 265.001 125.197 265.511 129.56C266.022 133.923 258.703 141.455 258.703 141.455L253.819 138.839C253.819 138.839 258.78 131.894 259.038 130.019C259.297 128.143 249.962 120.564 249.962 120.564C249.256 118.818 248.868 116.978 248.812 115.119C248.683 111.932 250.686 110.45 250.686 110.45Z" fill="#92E3A9"/>
<path d="M251.59 139.844C251.59 139.844 255.757 140.655 257.436 143.043C257.436 143.043 255.692 148.011 254.445 148.552C253.199 149.093 250.111 149.093 250.111 149.093C250.111 149.093 249.91 143.566 251.59 139.844Z" fill="#92E3A9"/>
</g>
<defs>
<clipPath id="clip0_178_42">
<rect width="323" height="294" fill="white" transform="translate(0.212097)"/>
</clipPath>
</defs>
</svg>
