<svg width="324" height="294" viewBox="0 0 324 294" fill="none" xmlns="http://www.w3.org/2000/svg">
<g clip-path="url(#clip0_136_26794)">
<path d="M323.212 224.851H0.211914V224.998H323.212V224.851Z" fill="#EBEBEB"/>
<path d="M290.848 234.312H269.452V234.459H290.848V234.312Z" fill="#EBEBEB"/>
<path d="M214.18 235.911H208.566V236.058H214.18V235.911Z" fill="#EBEBEB"/>
<path d="M268.806 228.855H256.409V229.002H268.806V228.855Z" fill="#EBEBEB"/>
<path d="M62.0023 229.843H34.1016V229.99H62.0023V229.843Z" fill="#EBEBEB"/>
<path d="M71.847 229.843H67.7578V229.99H71.847V229.843Z" fill="#EBEBEB"/>
<path d="M145.659 232.325H85.1416V232.472H145.659V232.325Z" fill="#EBEBEB"/>
<path d="M153.314 198.626H28.5777C27.6005 198.625 26.664 198.27 25.9736 197.641C25.2832 197.011 24.8955 196.158 24.8955 195.269V35.668C24.904 34.7837 25.2955 33.9381 25.985 33.315C26.6744 32.6919 27.6061 32.3415 28.5777 32.34H153.314C154.292 32.34 155.23 32.6937 155.922 33.3233C156.614 33.953 157.003 34.807 157.003 35.6974V195.269C157.003 196.159 156.614 197.013 155.922 197.643C155.23 198.273 154.292 198.626 153.314 198.626ZM28.5777 32.4576C27.6434 32.4591 26.7479 32.7981 26.0878 33.4C25.4277 34.0019 25.057 34.8176 25.057 35.668V195.269C25.057 196.119 25.4277 196.935 26.0878 197.537C26.7479 198.139 27.6434 198.478 28.5777 198.479H153.314C154.249 198.478 155.145 198.139 155.806 197.537C156.467 196.936 156.839 196.12 156.841 195.269V35.668C156.839 34.8171 156.467 34.0014 155.806 33.3996C155.145 32.7979 154.249 32.4591 153.314 32.4576H28.5777Z" fill="#EBEBEB"/>
<path d="M293.05 198.626H168.308C167.33 198.625 166.393 198.271 165.701 197.641C165.01 197.012 164.621 196.159 164.619 195.269V35.668C164.629 34.7832 165.022 33.9376 165.713 33.3146C166.403 32.6917 167.336 32.3415 168.308 32.34H293.05C294.021 32.343 294.951 32.6941 295.639 33.3171C296.327 33.94 296.718 34.7847 296.726 35.668V195.269C296.726 196.157 296.339 197.01 295.65 197.639C294.961 198.268 294.026 198.623 293.05 198.626ZM168.308 32.4576C167.373 32.4591 166.477 32.7979 165.816 33.3996C165.155 34.0014 164.782 34.8171 164.781 35.668V195.269C164.782 196.12 165.155 196.936 165.816 197.537C166.477 198.139 167.373 198.478 168.308 198.479H293.05C293.985 198.478 294.881 198.139 295.543 197.537C296.204 196.936 296.576 196.12 296.578 195.269V35.668C296.576 34.8171 296.204 34.0014 295.543 33.3996C294.881 32.7979 293.985 32.4591 293.05 32.4576H168.308Z" fill="#EBEBEB"/>
<path d="M156.764 102.241H65.0449V224.645H156.764V102.241Z" fill="#F0F0F0"/>
<path d="M153.521 106.093H68.2812V128.701H153.521V106.093Z" fill="#E0E0E0"/>
<path d="M73.1262 109.75H68.2812V128.695H73.1262V109.75Z" fill="#EBEBEB"/>
<path d="M96.5432 109.75H91.6982V128.695H96.5432V109.75Z" fill="#EBEBEB"/>
<path d="M123.121 109.274L118.347 110.023L121.882 128.693L126.657 127.944L123.121 109.274Z" fill="#EBEBEB"/>
<path d="M79.1272 112.249H74.2822V128.701H79.1272V112.249Z" fill="#EBEBEB"/>
<path d="M90.2581 112.249H85.4131V128.701H90.2581V112.249Z" fill="#EBEBEB"/>
<path d="M118.353 112.249H113.508V128.701H118.353V112.249Z" fill="#EBEBEB"/>
<path d="M102.907 111.678L98.1777 112.635L102.099 128.695L106.829 127.739L102.907 111.678Z" fill="#EBEBEB"/>
<path d="M83.3131 108.809H80.8906V128.695H83.3131V108.809Z" fill="#EBEBEB"/>
<path d="M112.112 108.809H109.689V128.695H112.112V108.809Z" fill="#EBEBEB"/>
<path d="M68.2876 154.891H153.527V132.282H68.2876V154.891Z" fill="#E0E0E0"/>
<path d="M148.676 154.885H153.521V135.94H148.676V154.885Z" fill="#EBEBEB"/>
<path d="M125.264 154.885H130.109V135.94H125.264V154.885Z" fill="#EBEBEB"/>
<path d="M95.1531 154.132L99.9277 154.881L103.463 136.211L98.6887 135.462L95.1531 154.132Z" fill="#EBEBEB"/>
<path d="M142.675 154.891H147.52V138.439H142.675V154.891Z" fill="#EBEBEB"/>
<path d="M131.551 154.891H136.396V138.439H131.551V154.891Z" fill="#EBEBEB"/>
<path d="M103.456 154.891H108.301V138.439H103.456V154.891Z" fill="#EBEBEB"/>
<path d="M114.995 153.93L119.725 154.886L123.646 138.826L118.916 137.869L114.995 153.93Z" fill="#EBEBEB"/>
<path d="M138.489 154.885H140.911V134.999H138.489V154.885Z" fill="#EBEBEB"/>
<path d="M109.696 154.885H112.118V134.999H109.696V154.885Z" fill="#EBEBEB"/>
<path d="M73.1262 135.94H68.2812V154.885H73.1262V135.94Z" fill="#EBEBEB"/>
<path d="M79.1272 138.433H74.2822V154.885H79.1272V138.433Z" fill="#EBEBEB"/>
<path d="M90.2581 138.433H85.4131V154.885H90.2581V138.433Z" fill="#EBEBEB"/>
<path d="M83.3131 134.999H80.8906V154.885H83.3131V134.999Z" fill="#EBEBEB"/>
<path d="M153.521 158.466H68.2812V181.075H153.521V158.466Z" fill="#E0E0E0"/>
<path d="M122.054 162.123H117.209V181.069H122.054V162.123Z" fill="#EBEBEB"/>
<path d="M148.636 161.646L143.861 162.395L147.397 181.065L152.172 180.316L148.636 161.646Z" fill="#EBEBEB"/>
<path d="M104.638 164.622H99.793V181.075H104.638V164.622Z" fill="#EBEBEB"/>
<path d="M115.769 164.622H110.924V181.075H115.769V164.622Z" fill="#EBEBEB"/>
<path d="M143.863 164.622H139.018V181.075H143.863V164.622Z" fill="#EBEBEB"/>
<path d="M128.42 164.052L123.69 165.009L127.612 181.069L132.341 180.113L128.42 164.052Z" fill="#EBEBEB"/>
<path d="M108.824 161.182H106.401V181.069H108.824V161.182Z" fill="#EBEBEB"/>
<path d="M137.623 161.182H135.2V181.069H137.623V161.182Z" fill="#EBEBEB"/>
<path d="M92.9269 161.65L88.1523 162.4L91.6879 181.07L96.4625 180.32L92.9269 161.65Z" fill="#EBEBEB"/>
<path d="M88.1516 164.622H83.3066V181.075H88.1516V164.622Z" fill="#EBEBEB"/>
<path d="M72.711 164.052L67.9814 165.009L71.9028 181.069L76.6325 180.112L72.711 164.052Z" fill="#EBEBEB"/>
<path d="M81.9176 161.182H79.4951V181.069H81.9176V161.182Z" fill="#EBEBEB"/>
<path d="M49.2179 224.963H65.0449L65.0449 102.241H49.2179L49.2179 224.963Z" fill="#E0E0E0"/>
<path d="M210.446 221.758H197.003L204.07 169.344C204.24 168.249 204.831 167.244 205.738 166.509C206.646 165.773 207.81 165.355 209.025 165.328H267.656L259.058 221.735L210.446 221.758Z" fill="#F5F5F5"/>
<path d="M253.082 221.758H266.525L273.599 169.344C273.685 168.84 273.649 168.325 273.492 167.835C273.336 167.346 273.063 166.893 272.693 166.51C272.324 166.127 271.866 165.823 271.353 165.618C270.839 165.414 270.283 165.315 269.723 165.328H265.104C263.892 165.362 262.731 165.782 261.825 166.517C260.919 167.251 260.326 168.252 260.149 169.344L253.082 221.758Z" fill="#F0F0F0"/>
<path d="M248.134 221.676L250.569 196.333C250.62 195.783 250.877 195.266 251.297 194.868C251.717 194.47 252.274 194.215 252.875 194.146L253.876 194.028C254.685 193.936 255.434 193.594 255.997 193.058C256.561 192.523 256.904 191.827 256.971 191.088L257.417 186.466C257.46 186.018 257.401 185.567 257.243 185.141C257.085 184.715 256.831 184.323 256.497 183.991C256.164 183.659 255.758 183.394 255.305 183.213C254.853 183.032 254.364 182.938 253.87 182.938H276.338C276.832 182.938 277.321 183.032 277.773 183.213C278.226 183.394 278.631 183.659 278.965 183.991C279.299 184.323 279.553 184.715 279.711 185.141C279.869 185.567 279.928 186.018 279.884 186.466L279.439 191.088C279.372 191.827 279.028 192.523 278.465 193.058C277.901 193.594 277.153 193.936 276.344 194.028L275.343 194.146C274.742 194.216 274.186 194.471 273.766 194.869C273.347 195.267 273.089 195.784 273.037 196.333L270.601 221.676C270.514 222.567 270.064 223.395 269.34 223.999C268.615 224.603 267.669 224.938 266.687 224.939H244.219C245.201 224.938 246.148 224.603 246.872 223.999C247.596 223.395 248.046 222.567 248.134 221.676Z" fill="#E6E6E6"/>
<path d="M186.298 190.012C186.12 188.088 185.155 186.296 183.594 184.989C182.033 183.682 179.989 182.957 177.868 182.956H197.429C199.544 182.964 201.58 183.693 203.134 184.999C204.689 186.305 205.649 188.093 205.827 190.012L207.765 210.098H188.23L186.298 190.012Z" fill="#E6E6E6"/>
<path d="M169.18 182.98H177.862C179.983 182.98 182.027 183.706 183.588 185.013C185.149 186.319 186.114 188.112 186.292 190.036L188.23 210.122H234.82L236.758 190.036C236.934 188.117 237.894 186.327 239.449 185.021C241.004 183.715 243.04 182.986 245.156 182.98H253.845C254.339 182.98 254.828 183.073 255.28 183.254C255.732 183.436 256.138 183.701 256.472 184.033C256.806 184.364 257.06 184.756 257.218 185.182C257.376 185.608 257.435 186.06 257.391 186.508L256.946 191.129C256.879 191.868 256.535 192.564 255.972 193.099C255.408 193.635 254.659 193.977 253.851 194.069L252.85 194.187C252.248 194.256 251.691 194.511 251.272 194.909C250.852 195.308 250.595 195.825 250.544 196.374L248.134 221.676C248.047 222.567 247.597 223.395 246.873 223.999C246.148 224.603 245.202 224.939 244.219 224.939H178.831C177.849 224.939 176.902 224.603 176.178 223.999C175.454 223.395 175.004 222.567 174.916 221.676L172.481 196.333C172.427 195.784 172.17 195.268 171.75 194.871C171.331 194.473 170.775 194.217 170.175 194.146L169.173 194.028C168.365 193.935 167.616 193.593 167.052 193.058C166.487 192.523 166.142 191.827 166.073 191.088L165.633 186.467C165.596 186.022 165.66 185.575 165.821 185.154C165.983 184.732 166.238 184.346 166.571 184.019C166.903 183.691 167.307 183.43 167.756 183.251C168.205 183.072 168.69 182.98 169.18 182.98Z" fill="#F0F0F0"/>
<path d="M66.2072 96.1262C66.2072 96.1262 65.4901 91.8279 68.9333 89.0702C72.3765 86.3125 72.0728 84.6778 71.0845 84.4662C70.0961 84.2545 69.1981 87.0063 67.6865 87.7648C67.6865 87.7648 67.6348 83.837 69.1723 82.3964C70.7098 80.9558 71.5173 77.222 70.0509 77.1573C68.5844 77.0927 68.4423 79.3682 68.1129 80.9852C67.7834 82.6022 66.1749 84.8719 66.1749 84.8719C66.1749 84.8719 65.8583 81.3439 64.8829 79.9151C63.9074 78.4862 66.5366 75.164 65.5289 73.7234C64.5211 72.2828 62.6929 75.0288 62.8415 78.1275C62.9901 81.2263 65.264 84.5308 64.7343 87.7648C64.7343 87.7648 63.733 85.4893 62.835 85.2835C61.9371 85.0777 61.0262 83.5783 60.4255 83.0197C59.8247 82.4611 59.0624 84.3897 60.4255 86.1772C61.7885 87.9648 65.264 92.757 64.7343 96.626L66.2072 96.1262Z" fill="#E6E6E6"/>
<path d="M68.2613 94.1682L69.3918 100.607C69.473 101.074 69.4419 101.552 69.3007 102.008C69.1595 102.463 68.9116 102.885 68.5739 103.245C68.2362 103.605 67.8168 103.894 67.3447 104.092C66.8725 104.291 66.3587 104.393 65.8388 104.394H64.6372C64.1172 104.393 63.6035 104.291 63.1313 104.092C62.6591 103.894 62.2398 103.605 61.9021 103.245C61.5644 102.885 61.3164 102.463 61.1752 102.008C61.034 101.552 61.003 101.074 61.0842 100.607L62.2276 94.1682H68.2613Z" fill="#E6E6E6"/>
<path d="M135.904 103.135H139.412V89.4053H135.904V103.135Z" fill="#EBEBEB"/>
<path d="M118.94 103.135H122.448V89.4053H118.94V103.135Z" fill="#EBEBEB"/>
<path d="M97.1213 102.589L100.578 103.132L103.14 89.6016L99.6836 89.0592L97.1213 102.589Z" fill="#EBEBEB"/>
<path d="M131.557 103.129H135.064V91.2105H131.557V103.129Z" fill="#EBEBEB"/>
<path d="M123.494 103.129H127.002V91.2105H123.494V103.129Z" fill="#EBEBEB"/>
<path d="M103.133 103.129H106.641V91.2105H103.133V103.129Z" fill="#EBEBEB"/>
<path d="M111.499 102.438L114.923 103.131L117.764 91.4957L114.339 90.803L111.499 102.438Z" fill="#EBEBEB"/>
<path d="M128.52 103.135H130.277V88.7233H128.52V103.135Z" fill="#EBEBEB"/>
<path d="M107.648 103.135H109.405V88.7233H107.648V103.135Z" fill="#EBEBEB"/>
<path d="M95.1416 92.2336H78.042V102.976H95.1416V92.2336Z" fill="#EBEBEB"/>
<path d="M153.786 96.6318H139.464V104.652H153.786V96.6318Z" fill="#EBEBEB"/>
<path d="M150.44 89.5818H143.275V97.6021H150.44V89.5818Z" fill="#EBEBEB"/>
<path d="M270.117 78.9684H253.082V143.578H270.117V78.9684Z" fill="#E0E0E0"/>
<path d="M204.581 143.754H268.289V78.9742H204.581V143.754Z" fill="#E0E0E0"/>
<path d="M202.526 143.754H268.625V78.9742L202.526 78.9742V143.754Z" fill="#F0F0F0"/>
<path d="M205.356 140.773H265.912V81.0323H205.356V140.773Z" fill="white"/>
<path d="M205.35 140.773H206.474V81.0323H205.35V140.773Z" fill="#E0E0E0"/>
<path d="M206.292 123.997V125.609H266.073V123.997H206.292Z" fill="#E0E0E0"/>
<path d="M205.349 123.992H266.854V121.287H205.349V123.992Z" fill="#F0F0F0"/>
<path d="M161.712 251.405C230.887 251.405 286.965 248.425 286.965 244.749C286.965 241.073 230.887 238.093 161.712 238.093C92.5366 238.093 36.459 241.073 36.459 244.749C36.459 248.425 92.5366 251.405 161.712 251.405Z" fill="#F5F5F5"/>
<path d="M208.191 89.8582H92.6154C90.0038 89.8582 87.8867 91.7852 87.8867 94.1623V218.03C87.8867 220.408 90.0038 222.335 92.6154 222.335H208.191C210.803 222.335 212.92 220.408 212.92 218.03V94.1623C212.92 91.7852 210.803 89.8582 208.191 89.8582Z" fill="#92E3A9"/>
<path opacity="0.6" d="M208.191 89.8582H92.6154C90.0038 89.8582 87.8867 91.7852 87.8867 94.1623V218.03C87.8867 220.408 90.0038 222.335 92.6154 222.335H208.191C210.803 222.335 212.92 220.408 212.92 218.03V94.1623C212.92 91.7852 210.803 89.8582 208.191 89.8582Z" fill="white"/>
<path d="M192.668 150.616H108.146V163.787H192.668V150.616Z" fill="white"/>
<g opacity="0.4">
<path d="M115.703 158.484V158.83H112.771V155.056H115.613V155.397H113.21V156.743H115.355V157.078H113.21V158.484H115.703Z" fill="#263238"/>
<path d="M116.291 157.202H117.848V157.531H116.291V157.202Z" fill="#263238"/>
<path d="M123.927 157.184V158.831H123.507V157.219C123.507 156.631 123.178 156.314 122.616 156.314C122.47 156.308 122.325 156.331 122.19 156.381C122.055 156.431 121.934 156.508 121.835 156.605C121.735 156.703 121.661 156.819 121.616 156.945C121.572 157.072 121.558 157.205 121.576 157.337V158.831H121.15V157.219C121.15 156.631 120.82 156.314 120.252 156.314C120.106 156.308 119.96 156.331 119.825 156.381C119.691 156.431 119.569 156.508 119.47 156.605C119.371 156.703 119.297 156.819 119.252 156.945C119.207 157.072 119.193 157.205 119.212 157.337V158.831H118.785V155.991H119.192V156.508C119.314 156.335 119.484 156.193 119.684 156.098C119.885 156.004 120.11 155.958 120.336 155.967C120.564 155.949 120.792 155.996 120.99 156.102C121.188 156.207 121.345 156.365 121.44 156.555C121.569 156.365 121.752 156.211 121.969 156.108C122.186 156.004 122.429 155.956 122.674 155.967C122.849 155.955 123.026 155.979 123.189 156.037C123.353 156.095 123.501 156.185 123.621 156.302C123.741 156.419 123.831 156.559 123.884 156.712C123.937 156.864 123.952 157.026 123.927 157.184Z" fill="#263238"/>
<path d="M127.428 157.067V158.831H127.021V158.384C126.905 158.543 126.745 158.67 126.556 158.753C126.367 158.836 126.157 158.871 125.948 158.854C125.244 158.854 124.812 158.519 124.812 158.031C124.812 157.543 125.122 157.225 126.013 157.225H127.001V157.055C127.001 156.567 126.704 156.302 126.123 156.302C125.744 156.298 125.375 156.417 125.083 156.637L124.895 156.355C125.26 156.088 125.719 155.95 126.187 155.967C126.352 155.949 126.52 155.964 126.677 156.013C126.834 156.061 126.978 156.141 127.097 156.246C127.216 156.352 127.307 156.48 127.365 156.622C127.422 156.764 127.444 156.916 127.428 157.067ZM127.001 157.978V157.513H126.026C125.425 157.513 125.225 157.725 125.225 158.019C125.225 158.313 125.516 158.554 126.013 158.554C126.224 158.567 126.434 158.518 126.611 158.414C126.789 158.31 126.926 158.158 127.001 157.978Z" fill="#263238"/>
<path d="M128.475 155.097C128.475 155.06 128.484 155.025 128.5 154.991C128.516 154.958 128.539 154.928 128.568 154.903C128.597 154.878 128.631 154.858 128.668 154.845C128.705 154.832 128.745 154.825 128.785 154.826C128.824 154.825 128.863 154.832 128.899 154.845C128.935 154.857 128.969 154.877 128.997 154.901C129.025 154.926 129.048 154.955 129.063 154.988C129.079 155.02 129.087 155.055 129.088 155.091C129.089 155.128 129.082 155.164 129.067 155.198C129.052 155.233 129.03 155.264 129.002 155.29C128.973 155.316 128.94 155.337 128.902 155.351C128.865 155.366 128.825 155.373 128.785 155.373C128.744 155.374 128.704 155.367 128.667 155.354C128.629 155.34 128.595 155.32 128.566 155.294C128.537 155.269 128.514 155.238 128.498 155.204C128.483 155.17 128.475 155.134 128.475 155.097ZM128.572 155.99H128.991V158.831H128.572V155.99Z" fill="#263238"/>
<path d="M130.161 154.826H130.581V158.831H130.161V154.826Z" fill="#263238"/>
</g>
<path d="M192.668 168.609H108.146V181.78H192.668V168.609Z" fill="white"/>
<g opacity="0.4">
<path d="M116.013 174.36C116.013 175.165 115.367 175.653 114.321 175.653H113.21V176.829H112.771V173.054H114.321C115.374 173.066 116.013 173.554 116.013 174.36ZM115.574 174.36C115.574 173.772 115.141 173.413 114.282 173.413H113.184V175.3H114.282C115.141 175.3 115.574 174.953 115.574 174.36Z" fill="#263238"/>
<path d="M119.198 175.083V176.847H118.791V176.4C118.676 176.559 118.515 176.687 118.326 176.77C118.138 176.852 117.928 176.887 117.719 176.87C117.015 176.87 116.582 176.535 116.582 176.041C116.582 175.547 116.892 175.224 117.784 175.224H118.772V175.048C118.772 174.565 118.468 174.301 117.887 174.301C117.509 174.296 117.143 174.415 116.853 174.636L116.66 174.348C117.028 174.086 117.485 173.951 117.952 173.966C118.119 173.946 118.289 173.961 118.448 174.01C118.608 174.059 118.754 174.14 118.874 174.248C118.994 174.356 119.086 174.487 119.142 174.631C119.198 174.776 119.217 174.93 119.198 175.083ZM118.778 175.988V175.524H117.784C117.183 175.524 116.989 175.741 116.989 176.035C116.989 176.329 117.273 176.565 117.777 176.565C117.99 176.579 118.202 176.531 118.382 176.427C118.563 176.323 118.701 176.169 118.778 175.988Z" fill="#263238"/>
<path d="M119.909 176.518L120.097 176.218C120.422 176.425 120.81 176.536 121.208 176.535C121.796 176.535 122.041 176.353 122.041 176.071C122.041 175.33 120.019 175.912 120.019 174.795C120.019 174.33 120.458 173.983 121.253 173.983C121.64 173.98 122.022 174.071 122.358 174.248L122.17 174.554C121.898 174.39 121.578 174.306 121.253 174.313C120.691 174.313 120.439 174.512 120.439 174.783C120.439 175.547 122.461 174.971 122.461 176.059C122.461 176.553 121.989 176.87 121.169 176.87C120.718 176.881 120.276 176.757 119.909 176.518Z" fill="#263238"/>
<path d="M122.803 176.518L122.997 176.218C123.319 176.427 123.705 176.538 124.101 176.535C124.696 176.535 124.935 176.353 124.935 176.071C124.935 175.33 122.919 175.912 122.919 174.795C122.919 174.33 123.358 173.983 124.146 173.983C124.534 173.979 124.916 174.07 125.251 174.248L125.07 174.554C124.796 174.391 124.474 174.307 124.146 174.313C123.584 174.313 123.339 174.513 123.339 174.783C123.339 175.547 125.361 174.971 125.361 176.059C125.361 176.553 124.883 176.87 124.069 176.87C123.616 176.88 123.172 176.756 122.803 176.518Z" fill="#263238"/>
<path d="M130.645 174.007L129.469 176.841H129.075L128.119 174.518L127.137 176.841H126.743L125.535 174.007H125.936L126.918 176.418L127.919 174.007H128.281L129.275 176.418L130.264 174.007H130.645Z" fill="#263238"/>
<path d="M130.878 175.424C130.878 175.138 130.971 174.858 131.146 174.62C131.32 174.382 131.568 174.197 131.859 174.088C132.149 173.978 132.469 173.949 132.777 174.005C133.085 174.061 133.368 174.199 133.591 174.401C133.813 174.603 133.964 174.861 134.026 175.142C134.087 175.422 134.055 175.713 133.935 175.977C133.815 176.242 133.611 176.468 133.35 176.627C133.089 176.786 132.781 176.87 132.467 176.87C132.256 176.877 132.047 176.844 131.85 176.774C131.654 176.703 131.476 176.597 131.327 176.461C131.178 176.326 131.061 176.164 130.984 175.985C130.907 175.807 130.871 175.616 130.878 175.424ZM133.623 175.424C133.613 175.217 133.536 175.017 133.402 174.849C133.268 174.681 133.083 174.552 132.869 174.48C132.656 174.407 132.424 174.393 132.201 174.439C131.979 174.486 131.777 174.591 131.62 174.741C131.462 174.891 131.357 175.08 131.317 175.285C131.277 175.489 131.304 175.7 131.394 175.89C131.484 176.081 131.634 176.243 131.825 176.357C132.016 176.47 132.239 176.53 132.467 176.529C132.625 176.532 132.781 176.505 132.927 176.45C133.072 176.394 133.204 176.312 133.312 176.208C133.421 176.104 133.505 175.981 133.559 175.846C133.612 175.711 133.634 175.567 133.623 175.424Z" fill="#263238"/>
<path d="M136.479 173.983V174.354H136.376C136.228 174.347 136.08 174.371 135.944 174.422C135.807 174.473 135.684 174.551 135.584 174.651C135.484 174.75 135.41 174.868 135.366 174.997C135.321 175.125 135.309 175.261 135.329 175.394V176.841H134.909V174.007H135.31V174.559C135.419 174.368 135.588 174.21 135.797 174.108C136.005 174.005 136.243 173.962 136.479 173.983Z" fill="#263238"/>
<path d="M140.051 172.872V176.87H139.65V176.312C139.525 176.498 139.348 176.65 139.137 176.753C138.926 176.857 138.688 176.907 138.449 176.9C138.046 176.876 137.668 176.714 137.391 176.446C137.115 176.178 136.961 175.824 136.961 175.456C136.961 175.089 137.115 174.735 137.391 174.467C137.668 174.198 138.046 174.036 138.449 174.013C138.685 174.008 138.919 174.06 139.126 174.163C139.334 174.266 139.508 174.417 139.631 174.601V172.872H140.051ZM139.637 175.453C139.627 175.246 139.55 175.046 139.416 174.878C139.282 174.71 139.097 174.582 138.883 174.509C138.67 174.436 138.438 174.422 138.215 174.469C137.993 174.515 137.791 174.62 137.634 174.77C137.476 174.921 137.371 175.11 137.331 175.314C137.291 175.518 137.318 175.729 137.408 175.92C137.498 176.11 137.648 176.272 137.839 176.386C138.03 176.5 138.253 176.56 138.481 176.559C138.642 176.562 138.801 176.534 138.949 176.477C139.097 176.42 139.23 176.335 139.339 176.228C139.449 176.121 139.532 175.993 139.583 175.855C139.635 175.716 139.653 175.569 139.637 175.424V175.453Z" fill="#263238"/>
</g>
<path opacity="0.2" d="M192.668 195.216H108.146V208.387H192.668V195.216Z" fill="black"/>
<g opacity="0.5">
<path d="M128.701 189.165H127.318L127.021 189.753H126.75L127.881 187.501H128.139L129.269 189.753H128.998L128.701 189.165ZM128.604 188.971L128.01 187.76L127.415 188.971H128.604Z" fill="black"/>
<path d="M129.631 187.378H129.883V189.765H129.631V187.378Z" fill="black"/>
<path d="M131.524 188.06V188.283H131.459C131.369 188.276 131.278 188.288 131.194 188.317C131.109 188.347 131.033 188.393 130.971 188.453C130.909 188.513 130.862 188.585 130.835 188.663C130.808 188.742 130.8 188.825 130.813 188.907V189.771H130.562V188.078H130.807V188.407C130.872 188.288 130.976 188.191 131.104 188.129C131.233 188.067 131.38 188.042 131.524 188.06Z" fill="black"/>
<path d="M133.578 188.989H131.995C132 189.072 132.023 189.152 132.063 189.227C132.102 189.301 132.157 189.367 132.225 189.422C132.293 189.477 132.372 189.519 132.458 189.545C132.544 189.572 132.635 189.583 132.725 189.577C132.833 189.58 132.94 189.563 133.039 189.525C133.138 189.488 133.227 189.431 133.3 189.36L133.436 189.507C133.302 189.634 133.13 189.723 132.942 189.762C132.753 189.801 132.555 189.788 132.375 189.725C132.194 189.662 132.037 189.552 131.925 189.409C131.813 189.265 131.749 189.095 131.743 188.919C131.737 188.807 131.756 188.695 131.799 188.59C131.843 188.486 131.909 188.39 131.994 188.309C132.08 188.229 132.182 188.165 132.296 188.122C132.409 188.08 132.531 188.058 132.654 188.06C132.777 188.057 132.899 188.078 133.013 188.121C133.127 188.163 133.229 188.227 133.314 188.308C133.399 188.389 133.465 188.485 133.507 188.59C133.549 188.695 133.567 188.807 133.559 188.919C133.559 188.919 133.578 188.966 133.578 188.989ZM132.021 188.819H133.313C133.313 188.663 133.245 188.513 133.124 188.403C133.003 188.293 132.838 188.231 132.667 188.231C132.496 188.231 132.331 188.293 132.21 188.403C132.089 188.513 132.021 188.663 132.021 188.819Z" fill="black"/>
<path d="M135.445 188.748V189.795H135.226V189.53C135.157 189.627 135.06 189.704 134.946 189.754C134.832 189.804 134.705 189.824 134.58 189.812C134.16 189.812 133.934 189.612 133.934 189.318C133.934 189.024 134.114 188.836 134.651 188.836H135.226V188.736C135.226 188.448 135.045 188.289 134.696 188.289C134.461 188.281 134.231 188.353 134.05 188.489L133.94 188.319C134.154 188.163 134.422 188.082 134.696 188.089C134.796 188.074 134.898 188.08 134.995 188.107C135.092 188.134 135.181 188.182 135.254 188.246C135.327 188.31 135.382 188.389 135.415 188.476C135.449 188.563 135.459 188.656 135.445 188.748ZM135.2 189.289V189.007H134.612C134.25 189.007 134.134 189.136 134.134 189.312C134.134 189.489 134.308 189.63 134.605 189.63C134.739 189.639 134.873 189.608 134.985 189.541C135.097 189.474 135.182 189.375 135.226 189.26L135.2 189.289Z" fill="black"/>
<path d="M137.81 187.378V189.765H137.571V189.43C137.497 189.542 137.392 189.634 137.266 189.697C137.14 189.759 136.997 189.788 136.854 189.783C136.616 189.765 136.395 189.666 136.233 189.507C136.072 189.347 135.982 189.138 135.982 188.921C135.982 188.705 136.072 188.496 136.233 188.336C136.395 188.176 136.616 188.078 136.854 188.06C136.994 188.057 137.132 188.085 137.257 188.144C137.381 188.203 137.487 188.289 137.564 188.395V187.378H137.81ZM137.564 188.918C137.558 188.795 137.512 188.677 137.433 188.577C137.353 188.478 137.243 188.402 137.116 188.359C136.989 188.315 136.851 188.307 136.72 188.335C136.588 188.362 136.468 188.424 136.374 188.513C136.281 188.602 136.218 188.714 136.194 188.836C136.17 188.957 136.185 189.082 136.238 189.195C136.291 189.308 136.38 189.405 136.493 189.473C136.606 189.541 136.738 189.577 136.873 189.577C136.969 189.582 137.066 189.569 137.156 189.537C137.246 189.506 137.327 189.458 137.395 189.395C137.463 189.333 137.516 189.258 137.549 189.176C137.583 189.094 137.597 189.006 137.59 188.918H137.564Z" fill="black"/>
<path d="M140.103 188.072L139.172 189.971C139.017 190.3 138.817 190.406 138.526 190.406C138.36 190.41 138.198 190.355 138.074 190.253L138.19 190.083C138.281 190.165 138.404 190.212 138.533 190.212C138.701 190.212 138.811 190.142 138.92 189.924L138.998 189.765L138.165 188.072H138.455L139.159 189.512L139.857 188.072H140.103Z" fill="black"/>
<path d="M142.79 188.748V189.795H142.551V189.53C142.482 189.627 142.386 189.704 142.272 189.754C142.158 189.804 142.031 189.824 141.905 189.812C141.485 189.812 141.259 189.612 141.259 189.318C141.259 189.024 141.44 188.836 141.976 188.836H142.564V188.736C142.564 188.448 142.389 188.289 142.04 188.289C141.805 188.281 141.575 188.353 141.394 188.489L141.278 188.319C141.495 188.163 141.765 188.082 142.04 188.089C142.14 188.074 142.243 188.08 142.34 188.107C142.437 188.134 142.525 188.182 142.598 188.246C142.671 188.31 142.727 188.389 142.76 188.476C142.793 188.563 142.803 188.656 142.79 188.748ZM142.538 189.289V189.007H141.956C141.595 189.007 141.478 189.136 141.478 189.312C141.478 189.489 141.653 189.63 141.95 189.63C142.079 189.635 142.206 189.601 142.312 189.534C142.418 189.467 142.497 189.371 142.538 189.26V189.289Z" fill="black"/>
<path d="M147.499 188.783V189.765H147.254V188.807C147.254 188.448 147.054 188.266 146.718 188.266C146.631 188.26 146.544 188.271 146.463 188.298C146.381 188.325 146.307 188.368 146.246 188.424C146.185 188.48 146.137 188.548 146.107 188.622C146.077 188.696 146.065 188.775 146.072 188.854V189.742H145.826V188.807C145.826 188.448 145.626 188.266 145.284 188.266C145.197 188.26 145.11 188.271 145.029 188.298C144.947 188.325 144.873 188.368 144.812 188.424C144.75 188.48 144.703 188.548 144.673 188.622C144.643 188.696 144.631 188.775 144.638 188.854V189.742H144.386V188.048H144.625V188.36C144.696 188.255 144.797 188.169 144.918 188.112C145.039 188.055 145.174 188.029 145.31 188.037C145.445 188.027 145.58 188.056 145.696 188.121C145.812 188.185 145.903 188.281 145.956 188.395C146.031 188.28 146.139 188.186 146.269 188.122C146.399 188.059 146.545 188.03 146.692 188.037C146.804 188.018 146.918 188.025 147.026 188.057C147.134 188.088 147.232 188.143 147.312 188.216C147.391 188.29 147.45 188.38 147.483 188.479C147.515 188.577 147.521 188.682 147.499 188.783Z" fill="black"/>
<path d="M149.786 188.989H148.23C148.243 189.156 148.327 189.31 148.465 189.421C148.603 189.531 148.783 189.587 148.966 189.577C149.072 189.581 149.178 189.563 149.277 189.526C149.375 189.488 149.463 189.431 149.534 189.36L149.677 189.507C149.586 189.597 149.475 189.668 149.351 189.716C149.227 189.763 149.094 189.786 148.959 189.783C148.831 189.79 148.703 189.773 148.583 189.733C148.462 189.692 148.353 189.629 148.261 189.548C148.169 189.466 148.097 189.368 148.049 189.26C148.001 189.152 147.979 189.035 147.984 188.919C147.984 188.7 148.079 188.491 148.249 188.336C148.419 188.182 148.649 188.095 148.888 188.095C149.128 188.095 149.358 188.182 149.528 188.336C149.698 188.491 149.793 188.7 149.793 188.919C149.793 188.919 149.786 188.966 149.786 188.989ZM148.23 188.819H149.554C149.554 188.659 149.484 188.505 149.36 188.392C149.236 188.279 149.067 188.216 148.892 188.216C148.716 188.216 148.548 188.279 148.423 188.392C148.299 188.505 148.23 188.659 148.23 188.819Z" fill="black"/>
<path d="M153.378 188.783V189.765H153.126V188.807C153.126 188.448 152.933 188.266 152.597 188.266C152.51 188.259 152.422 188.269 152.34 188.296C152.258 188.323 152.184 188.366 152.122 188.422C152.061 188.478 152.013 188.546 151.984 188.621C151.954 188.695 151.943 188.775 151.951 188.854V189.742H151.699V188.807C151.699 188.448 151.505 188.266 151.163 188.266C151.076 188.259 150.988 188.269 150.906 188.296C150.824 188.323 150.75 188.366 150.688 188.422C150.627 188.478 150.579 188.546 150.55 188.621C150.52 188.695 150.509 188.775 150.517 188.854V189.742H150.265V188.048H150.504V188.36C150.574 188.254 150.676 188.168 150.796 188.111C150.917 188.054 151.053 188.028 151.188 188.037C151.324 188.027 151.459 188.056 151.575 188.121C151.691 188.185 151.782 188.281 151.834 188.395C151.91 188.28 152.018 188.186 152.148 188.122C152.278 188.059 152.424 188.03 152.571 188.037C152.682 188.018 152.797 188.025 152.905 188.057C153.013 188.088 153.111 188.143 153.191 188.216C153.27 188.29 153.329 188.38 153.362 188.479C153.394 188.577 153.4 188.682 153.378 188.783Z" fill="black"/>
<path d="M155.949 188.918C155.955 189.032 155.936 189.144 155.892 189.25C155.848 189.356 155.781 189.453 155.694 189.534C155.607 189.615 155.503 189.679 155.388 189.722C155.273 189.765 155.149 189.785 155.025 189.783C154.882 189.788 154.739 189.759 154.613 189.697C154.487 189.634 154.381 189.542 154.308 189.43V189.765H154.062V187.378H154.314V188.395C154.392 188.289 154.497 188.202 154.622 188.143C154.746 188.085 154.885 188.056 155.025 188.06C155.149 188.057 155.272 188.077 155.387 188.119C155.503 188.161 155.607 188.224 155.694 188.305C155.78 188.386 155.848 188.482 155.892 188.587C155.936 188.693 155.955 188.806 155.949 188.918ZM155.697 188.918C155.691 188.795 155.645 188.677 155.565 188.577C155.485 188.478 155.375 188.402 155.249 188.359C155.122 188.315 154.984 188.307 154.852 188.335C154.72 188.362 154.6 188.424 154.507 188.513C154.413 188.602 154.35 188.714 154.326 188.836C154.302 188.957 154.318 189.082 154.371 189.195C154.424 189.308 154.512 189.405 154.625 189.473C154.738 189.541 154.87 189.577 155.006 189.577C155.1 189.579 155.193 189.563 155.28 189.53C155.367 189.497 155.446 189.448 155.511 189.386C155.576 189.324 155.626 189.251 155.658 189.17C155.69 189.09 155.703 189.004 155.697 188.918Z" fill="black"/>
<path d="M158.088 188.989H156.544C156.549 189.071 156.572 189.152 156.611 189.226C156.65 189.301 156.706 189.367 156.774 189.422C156.842 189.477 156.921 189.519 157.007 189.545C157.092 189.572 157.183 189.583 157.274 189.577C157.381 189.577 157.487 189.555 157.584 189.514C157.681 189.472 157.767 189.411 157.836 189.336L157.978 189.483C157.844 189.611 157.672 189.699 157.484 189.738C157.295 189.777 157.097 189.764 156.917 189.702C156.736 189.639 156.579 189.529 156.467 189.385C156.355 189.242 156.291 189.071 156.285 188.895C156.279 188.783 156.298 188.672 156.341 188.567C156.384 188.462 156.451 188.366 156.536 188.286C156.622 188.205 156.724 188.142 156.838 188.099C156.951 188.056 157.073 188.035 157.196 188.037C157.319 188.034 157.441 188.054 157.554 188.097C157.667 188.14 157.77 188.204 157.854 188.285C157.939 188.365 158.004 188.461 158.045 188.567C158.087 188.672 158.103 188.784 158.094 188.895L158.088 188.989ZM156.531 188.819H157.823C157.823 188.663 157.755 188.513 157.634 188.403C157.512 188.292 157.348 188.231 157.177 188.231C157.005 188.231 156.841 188.292 156.72 188.403C156.599 188.513 156.531 188.663 156.531 188.819Z" fill="black"/>
<path d="M159.541 188.06V188.283H159.483C159.393 188.276 159.302 188.288 159.217 188.317C159.133 188.347 159.057 188.393 158.994 188.453C158.932 188.513 158.886 188.585 158.859 188.663C158.831 188.742 158.824 188.825 158.837 188.907V189.771H158.585V188.078H158.824V188.407C158.89 188.289 158.994 188.192 159.122 188.13C159.25 188.068 159.397 188.043 159.541 188.06Z" fill="black"/>
<path d="M161.168 188.089C161.168 187.854 160.962 187.695 160.6 187.695C160.473 187.689 160.346 187.709 160.228 187.754C160.111 187.799 160.006 187.867 159.922 187.954L159.734 187.825C159.844 187.712 159.981 187.623 160.135 187.565C160.288 187.507 160.454 187.481 160.619 187.49C161.117 187.49 161.433 187.707 161.433 188.078C161.433 188.625 160.787 188.666 160.787 189.113H160.522C160.522 188.56 161.168 188.507 161.168 188.089ZM160.471 189.612C160.479 189.573 160.502 189.538 160.535 189.513C160.569 189.487 160.611 189.473 160.655 189.473C160.699 189.473 160.741 189.487 160.775 189.513C160.808 189.538 160.831 189.573 160.839 189.612C160.844 189.637 160.843 189.662 160.836 189.687C160.829 189.711 160.817 189.733 160.799 189.753C160.782 189.772 160.76 189.788 160.735 189.798C160.71 189.809 160.682 189.814 160.655 189.814C160.627 189.814 160.6 189.809 160.575 189.798C160.55 189.788 160.528 189.772 160.511 189.753C160.493 189.733 160.48 189.711 160.474 189.687C160.467 189.662 160.466 189.637 160.471 189.612Z" fill="black"/>
<path d="M162.92 187.513H163.495V189.336H164.735V189.759H162.92V187.513Z" fill="black"/>
<path d="M164.864 188.901C164.851 188.71 164.902 188.521 165.008 188.357C165.115 188.192 165.274 188.061 165.464 187.98C165.653 187.899 165.865 187.871 166.072 187.901C166.28 187.931 166.472 188.017 166.625 188.147C166.778 188.278 166.884 188.447 166.93 188.634C166.976 188.82 166.959 189.014 166.882 189.192C166.805 189.369 166.672 189.522 166.498 189.629C166.325 189.737 166.12 189.794 165.911 189.795C165.777 189.803 165.642 189.786 165.515 189.744C165.388 189.703 165.272 189.638 165.174 189.555C165.076 189.471 164.998 189.37 164.945 189.257C164.891 189.145 164.864 189.023 164.864 188.901ZM166.395 188.901C166.388 188.816 166.353 188.734 166.296 188.666C166.238 188.598 166.16 188.547 166.071 188.519C165.982 188.491 165.886 188.488 165.795 188.508C165.703 188.529 165.621 188.574 165.557 188.637C165.493 188.699 165.45 188.778 165.435 188.862C165.419 188.947 165.431 189.034 165.468 189.112C165.506 189.191 165.567 189.258 165.646 189.305C165.725 189.352 165.817 189.377 165.911 189.377C165.978 189.378 166.045 189.366 166.107 189.342C166.169 189.318 166.224 189.283 166.27 189.238C166.316 189.193 166.351 189.14 166.372 189.081C166.394 189.023 166.402 188.962 166.395 188.901Z" fill="black"/>
<path d="M169.289 188.031V189.477C169.307 189.607 169.291 189.739 169.243 189.863C169.195 189.986 169.117 190.098 169.013 190.189C168.91 190.28 168.785 190.348 168.648 190.388C168.511 190.428 168.365 190.438 168.223 190.418C167.891 190.43 167.563 190.345 167.286 190.177L167.506 189.818C167.695 189.941 167.92 190.009 168.152 190.012C168.54 190.012 168.714 189.853 168.714 189.542V189.465C168.637 189.539 168.543 189.596 168.44 189.633C168.336 189.671 168.225 189.688 168.113 189.683C167.986 189.693 167.858 189.678 167.737 189.64C167.616 189.603 167.505 189.543 167.411 189.464C167.317 189.385 167.242 189.289 167.19 189.183C167.139 189.076 167.112 188.961 167.112 188.845C167.112 188.729 167.139 188.614 167.19 188.507C167.242 188.401 167.317 188.305 167.411 188.226C167.505 188.147 167.616 188.087 167.737 188.05C167.858 188.012 167.986 187.997 168.113 188.007C168.235 187.998 168.357 188.016 168.469 188.059C168.582 188.102 168.681 188.169 168.759 188.254V188.031H169.289ZM168.746 188.848C168.748 188.789 168.737 188.73 168.712 188.676C168.687 188.621 168.65 188.572 168.603 188.532C168.556 188.491 168.501 188.46 168.439 188.441C168.378 188.421 168.313 188.414 168.249 188.419C168.183 188.412 168.116 188.417 168.052 188.436C167.989 188.454 167.93 188.484 167.88 188.524C167.831 188.564 167.791 188.614 167.764 188.669C167.736 188.724 167.722 188.784 167.722 188.845C167.722 188.906 167.736 188.966 167.764 189.021C167.791 189.076 167.831 189.125 167.88 189.166C167.93 189.206 167.989 189.236 168.052 189.254C168.116 189.273 168.183 189.278 168.249 189.271C168.313 189.276 168.377 189.269 168.438 189.25C168.499 189.231 168.554 189.2 168.601 189.16C168.648 189.12 168.685 189.072 168.71 189.018C168.735 188.964 168.747 188.906 168.746 188.848Z" fill="black"/>
<path d="M170.756 187.513C170.757 187.474 170.766 187.435 170.784 187.399C170.802 187.363 170.828 187.331 170.86 187.305C170.892 187.278 170.93 187.258 170.971 187.245C171.012 187.233 171.055 187.228 171.098 187.231C171.141 187.227 171.183 187.231 171.224 187.242C171.264 187.254 171.302 187.273 171.334 187.298C171.366 187.324 171.392 187.355 171.41 187.39C171.429 187.425 171.439 187.463 171.441 187.501C171.441 187.584 171.405 187.663 171.34 187.722C171.276 187.78 171.189 187.813 171.098 187.813C171.007 187.813 170.92 187.78 170.856 187.722C170.792 187.663 170.756 187.584 170.756 187.501V187.513ZM170.82 188.031H171.37V189.795H170.82V188.031Z" fill="black"/>
<path d="M173.817 188.748V189.742H173.268V188.83C173.268 188.548 173.126 188.419 172.881 188.419C172.635 188.419 172.422 188.566 172.422 188.883V189.742H171.873V187.978H172.403V188.183C172.486 188.105 172.587 188.044 172.698 188.005C172.81 187.965 172.929 187.948 173.049 187.954C173.16 187.949 173.272 187.967 173.375 188.006C173.478 188.046 173.569 188.106 173.643 188.182C173.717 188.259 173.771 188.349 173.801 188.447C173.832 188.545 173.837 188.648 173.817 188.748Z" fill="black"/>
</g>
<path d="M192.668 194.41H108.146V207.582H192.668V194.41Z" fill="#92E3A9"/>
<path d="M139.49 203.042L138.456 201.684H138.146H136.919V203.054H136.208V198.544H138.146C139.438 198.544 140.207 199.132 140.207 200.12C140.223 200.433 140.126 200.742 139.929 200.999C139.733 201.256 139.449 201.447 139.121 201.543L140.297 203.054L139.49 203.042ZM139.49 200.102C139.49 199.455 139.018 199.091 138.107 199.091H136.906V201.12H138.107C138.999 201.125 139.47 200.749 139.47 200.108L139.49 200.102Z" fill="white"/>
<path d="M144.606 201.543H141.563C141.611 201.834 141.777 202.098 142.028 202.283C142.279 202.468 142.597 202.56 142.92 202.542C143.123 202.549 143.325 202.516 143.512 202.445C143.699 202.374 143.868 202.267 144.005 202.131L144.38 202.531C144.103 202.786 143.752 202.964 143.367 203.042C142.983 203.12 142.582 203.095 142.212 202.971C141.843 202.847 141.52 202.629 141.284 202.342C141.047 202.055 140.907 201.712 140.879 201.355C140.865 201.124 140.904 200.893 140.994 200.676C141.083 200.46 141.221 200.263 141.398 200.097C141.575 199.931 141.788 199.801 142.023 199.714C142.258 199.627 142.511 199.585 142.765 199.591C143.017 199.584 143.269 199.626 143.502 199.714C143.736 199.801 143.947 199.932 144.122 200.098C144.296 200.265 144.431 200.462 144.517 200.679C144.602 200.895 144.637 201.125 144.619 201.355C144.619 201.408 144.612 201.484 144.606 201.543ZM141.563 201.096H143.966C143.936 200.825 143.796 200.575 143.574 200.393C143.352 200.211 143.064 200.11 142.765 200.11C142.466 200.11 142.178 200.211 141.956 200.393C141.734 200.575 141.594 200.825 141.563 201.096Z" fill="white"/>
<path d="M149.153 199.632V202.572C149.153 203.777 148.475 204.336 147.215 204.336C146.572 204.361 145.94 204.182 145.426 203.83L145.749 203.354C146.162 203.646 146.672 203.802 147.196 203.795C148.081 203.795 148.488 203.425 148.488 202.648V202.378C148.321 202.552 148.112 202.691 147.879 202.782C147.645 202.874 147.392 202.917 147.138 202.907C146.656 202.907 146.194 202.733 145.854 202.423C145.514 202.113 145.322 201.693 145.322 201.255C145.322 200.817 145.514 200.396 145.854 200.086C146.194 199.777 146.656 199.603 147.138 199.603C147.403 199.595 147.667 199.645 147.909 199.747C148.15 199.849 148.361 200.001 148.526 200.191V199.661L149.153 199.632ZM148.507 201.249C148.521 201.014 148.458 200.781 148.325 200.579C148.192 200.377 147.995 200.216 147.761 200.117C147.526 200.018 147.265 199.986 147.009 200.024C146.754 200.061 146.517 200.168 146.33 200.33C146.142 200.491 146.011 200.7 145.956 200.93C145.9 201.16 145.921 201.399 146.016 201.618C146.111 201.837 146.277 202.024 146.49 202.157C146.704 202.289 146.957 202.36 147.215 202.36C147.38 202.369 147.546 202.347 147.701 202.295C147.857 202.243 147.999 202.162 148.118 202.058C148.238 201.953 148.332 201.828 148.396 201.688C148.459 201.549 148.491 201.4 148.488 201.249H148.507Z" fill="white"/>
<path d="M150.329 198.573C150.33 198.519 150.342 198.466 150.366 198.416C150.389 198.367 150.424 198.322 150.466 198.284C150.509 198.246 150.559 198.217 150.614 198.197C150.669 198.177 150.728 198.167 150.788 198.168C150.85 198.161 150.914 198.166 150.974 198.183C151.034 198.2 151.09 198.229 151.137 198.267C151.184 198.305 151.222 198.352 151.248 198.404C151.274 198.456 151.287 198.513 151.287 198.571C151.287 198.628 151.274 198.685 151.248 198.737C151.222 198.789 151.184 198.836 151.137 198.874C151.09 198.912 151.034 198.941 150.974 198.958C150.914 198.975 150.85 198.98 150.788 198.973C150.729 198.975 150.67 198.966 150.615 198.946C150.56 198.927 150.509 198.898 150.466 198.861C150.424 198.824 150.39 198.779 150.366 198.73C150.342 198.68 150.33 198.627 150.329 198.573ZM150.452 199.632H151.13V203.042H150.452V199.632Z" fill="white"/>
<path d="M151.95 202.684L152.234 202.196C152.619 202.423 153.068 202.545 153.526 202.548C154.172 202.548 154.418 202.372 154.418 202.084C154.418 201.319 152.047 201.984 152.047 200.62C152.047 200.032 152.648 199.597 153.61 199.597C154.087 199.59 154.557 199.697 154.973 199.908L154.683 200.396C154.36 200.212 153.985 200.117 153.604 200.126C153.01 200.126 152.719 200.326 152.719 200.596C152.719 201.402 155.096 200.743 155.096 202.072C155.096 202.66 154.45 203.083 153.475 203.083C152.934 203.091 152.404 202.952 151.95 202.684Z" fill="white"/>
<path d="M158.081 202.86C157.846 203.023 157.556 203.109 157.26 203.101C157.101 203.118 156.94 203.101 156.788 203.054C156.636 203.006 156.498 202.928 156.384 202.825C156.27 202.723 156.183 202.598 156.129 202.46C156.075 202.323 156.055 202.176 156.072 202.031V200.155H155.426V199.649H156.072V198.903H156.718V199.649H157.835V200.155H156.757V202.007C156.741 202.083 156.745 202.161 156.769 202.235C156.792 202.309 156.834 202.377 156.891 202.434C156.947 202.491 157.018 202.535 157.097 202.563C157.175 202.591 157.26 202.602 157.344 202.595C157.535 202.597 157.722 202.541 157.874 202.437L158.081 202.86Z" fill="white"/>
<path d="M162.15 201.543H159.127C159.175 201.835 159.342 202.1 159.594 202.285C159.847 202.47 160.167 202.562 160.49 202.543C160.692 202.549 160.893 202.516 161.08 202.445C161.266 202.374 161.433 202.267 161.569 202.131L161.944 202.531C161.668 202.787 161.317 202.965 160.933 203.043C160.548 203.122 160.147 203.097 159.778 202.973C159.408 202.849 159.086 202.63 158.851 202.343C158.615 202.056 158.475 201.712 158.449 201.355C158.435 201.124 158.475 200.893 158.564 200.677C158.653 200.46 158.791 200.263 158.968 200.097C159.145 199.931 159.358 199.801 159.593 199.714C159.829 199.627 160.081 199.585 160.335 199.591C160.588 199.585 160.838 199.628 161.072 199.716C161.305 199.803 161.515 199.934 161.69 200.1C161.864 200.266 161.999 200.464 162.085 200.68C162.171 200.896 162.206 201.126 162.189 201.355C162.183 201.418 162.17 201.481 162.15 201.543ZM159.127 201.096H161.537C161.499 200.829 161.357 200.584 161.135 200.406C160.913 200.228 160.628 200.13 160.332 200.13C160.036 200.13 159.751 200.228 159.529 200.406C159.307 200.584 159.164 200.829 159.127 201.096Z" fill="white"/>
<path d="M165.129 199.597V200.185H164.974C164.806 200.174 164.637 200.198 164.481 200.255C164.324 200.311 164.184 200.4 164.071 200.513C163.957 200.626 163.873 200.761 163.824 200.908C163.776 201.054 163.765 201.209 163.792 201.361V203.06H163.113V199.65H163.759V200.238C163.896 200.022 164.098 199.847 164.34 199.734C164.583 199.62 164.857 199.572 165.129 199.597Z" fill="white"/>
<g opacity="0.6">
<path d="M135.606 104.435L135.897 103.882C136.398 104.264 137.032 104.473 137.687 104.47C138.623 104.47 139.024 104.141 139.024 103.711C139.024 102.535 135.742 103.265 135.742 101.436C135.742 100.671 136.388 100.025 137.816 100.025C138.431 100.016 139.036 100.167 139.56 100.46L139.302 101.048C138.858 100.789 138.343 100.651 137.816 100.648C136.892 100.648 136.524 101.001 136.524 101.43C136.524 102.606 139.812 101.877 139.812 103.694C139.812 104.446 139.166 105.093 137.712 105.093C136.947 105.108 136.2 104.874 135.606 104.435Z" fill="#263238"/>
<path d="M140.678 100.101C140.679 100.042 140.692 99.9835 140.718 99.9292C140.744 99.8749 140.781 99.8258 140.828 99.7847C140.875 99.7437 140.931 99.7116 140.991 99.6902C141.052 99.6688 141.117 99.6586 141.182 99.6601C141.246 99.6578 141.31 99.6671 141.37 99.6874C141.43 99.7078 141.485 99.7389 141.532 99.7788C141.579 99.8187 141.617 99.8668 141.643 99.9201C141.669 99.9734 141.684 100.031 141.685 100.089C141.685 100.211 141.632 100.328 141.538 100.414C141.443 100.5 141.315 100.548 141.182 100.548C141.048 100.548 140.92 100.5 140.825 100.414C140.731 100.328 140.678 100.211 140.678 100.089V100.101ZM140.807 101.277H141.556V105.017H140.807V101.277Z" fill="#263238"/>
<path d="M146.898 101.259V104.488C146.898 105.811 146.162 106.41 144.773 106.41C144.076 106.43 143.392 106.233 142.835 105.852L143.19 105.328C143.64 105.652 144.199 105.825 144.773 105.816C145.742 105.816 146.181 105.405 146.181 104.558V104.264C145.998 104.456 145.77 104.609 145.514 104.711C145.259 104.812 144.981 104.861 144.702 104.852C144.431 104.866 144.161 104.83 143.906 104.745C143.652 104.661 143.419 104.53 143.222 104.361C143.025 104.191 142.868 103.987 142.761 103.761C142.654 103.535 142.599 103.291 142.599 103.044C142.599 102.798 142.654 102.554 142.761 102.327C142.868 102.101 143.025 101.897 143.222 101.728C143.419 101.558 143.652 101.427 143.906 101.343C144.161 101.258 144.431 101.222 144.702 101.236C144.987 101.222 145.272 101.268 145.535 101.37C145.798 101.472 146.032 101.627 146.22 101.824V101.236L146.898 101.259ZM146.175 103.023C146.189 102.766 146.118 102.511 145.971 102.291C145.825 102.071 145.609 101.896 145.352 101.789C145.095 101.681 144.809 101.646 144.53 101.688C144.251 101.731 143.992 101.848 143.787 102.025C143.582 102.202 143.44 102.431 143.38 102.683C143.319 102.934 143.343 103.196 143.447 103.435C143.552 103.675 143.733 103.88 143.967 104.024C144.201 104.169 144.477 104.246 144.76 104.247C144.945 104.261 145.131 104.241 145.306 104.186C145.482 104.132 145.643 104.044 145.779 103.929C145.916 103.815 146.024 103.676 146.098 103.521C146.171 103.366 146.208 103.198 146.207 103.029L146.175 103.023Z" fill="#263238"/>
<path d="M152.222 102.847V104.999H151.473V102.9C151.473 102.165 151.072 101.806 150.368 101.806C150.189 101.796 150.01 101.821 149.843 101.881C149.676 101.94 149.525 102.032 149.402 102.151C149.279 102.269 149.186 102.411 149.129 102.566C149.073 102.721 149.055 102.885 149.076 103.047V104.976H148.333V101.236H149.05V101.824C149.226 101.625 149.453 101.467 149.711 101.365C149.968 101.262 150.249 101.218 150.529 101.236C150.762 101.222 150.996 101.254 151.214 101.331C151.432 101.408 151.628 101.528 151.79 101.681C151.951 101.835 152.073 102.019 152.148 102.221C152.223 102.422 152.248 102.636 152.222 102.847Z" fill="#263238"/>
<path d="M159.515 101.26V104.999H158.811V104.411C158.647 104.604 158.434 104.757 158.191 104.86C157.949 104.962 157.682 105.01 157.415 104.999C157.175 105.022 156.932 104.995 156.705 104.921C156.478 104.847 156.271 104.727 156.102 104.571C155.932 104.414 155.803 104.226 155.724 104.018C155.645 103.81 155.618 103.589 155.645 103.37V101.218H156.388V103.294C156.388 104.023 156.795 104.394 157.499 104.394C157.678 104.405 157.858 104.381 158.026 104.322C158.193 104.262 158.344 104.17 158.468 104.051C158.591 103.933 158.684 103.791 158.74 103.635C158.796 103.48 158.814 103.315 158.791 103.153V101.218L159.515 101.26Z" fill="#263238"/>
<path d="M165.187 103.129C165.202 103.382 165.158 103.634 165.06 103.871C164.961 104.107 164.809 104.322 164.614 104.502C164.419 104.682 164.185 104.822 163.926 104.915C163.668 105.008 163.391 105.05 163.114 105.04C162.841 105.05 162.569 105.002 162.32 104.9C162.072 104.798 161.852 104.645 161.679 104.452V106.381H160.937V101.277H161.647V101.865C161.818 101.66 162.04 101.496 162.296 101.387C162.551 101.277 162.831 101.225 163.114 101.236C163.39 101.225 163.665 101.267 163.923 101.358C164.18 101.449 164.414 101.589 164.609 101.767C164.804 101.945 164.956 102.158 165.056 102.393C165.155 102.627 165.2 102.878 165.187 103.129ZM164.438 103.129C164.425 102.884 164.334 102.647 164.175 102.448C164.015 102.249 163.796 102.097 163.543 102.01C163.29 101.924 163.014 101.907 162.751 101.961C162.487 102.016 162.247 102.139 162.06 102.317C161.872 102.494 161.746 102.718 161.697 102.96C161.648 103.202 161.678 103.452 161.784 103.678C161.889 103.905 162.065 104.098 162.29 104.235C162.515 104.371 162.779 104.445 163.049 104.446C163.237 104.45 163.425 104.418 163.599 104.352C163.773 104.287 163.93 104.189 164.061 104.065C164.191 103.941 164.292 103.794 164.357 103.633C164.422 103.472 164.449 103.301 164.438 103.129Z" fill="#263238"/>
</g>
<path d="M192.668 132.618H108.146V145.789H192.668V132.618Z" fill="white"/>
<g opacity="0.4">
<path d="M112.771 137.057H113.21V140.485H115.529V140.832H112.771V137.057Z" fill="#263238"/>
<path d="M118.533 139.074V140.838H118.132V140.397C118.015 140.554 117.854 140.68 117.665 140.763C117.477 140.846 117.268 140.882 117.06 140.867C116.356 140.867 115.923 140.532 115.923 140.038C115.923 139.544 116.226 139.238 117.124 139.238H118.113V139.068C118.113 138.58 117.809 138.315 117.228 138.315C116.85 138.311 116.483 138.43 116.194 138.65L116 138.362C116.369 138.102 116.826 137.967 117.292 137.98C117.457 137.962 117.623 137.978 117.78 138.026C117.937 138.074 118.08 138.153 118.199 138.258C118.318 138.363 118.41 138.49 118.467 138.631C118.525 138.773 118.547 138.924 118.533 139.074ZM118.113 139.979V139.515H117.137C116.53 139.515 116.336 139.732 116.336 140.026C116.336 140.32 116.627 140.556 117.124 140.556C117.335 140.567 117.544 140.518 117.722 140.414C117.9 140.311 118.036 140.158 118.113 139.979Z" fill="#263238"/>
<path d="M119.243 140.532L119.431 140.232C119.756 140.439 120.144 140.55 120.542 140.55C121.136 140.55 121.375 140.367 121.375 140.085C121.375 139.344 119.359 139.926 119.359 138.809C119.359 138.345 119.792 137.998 120.587 137.998C120.975 137.993 121.356 138.085 121.692 138.262L121.504 138.568C121.232 138.405 120.912 138.321 120.587 138.327C120.025 138.327 119.779 138.527 119.779 138.797C119.779 139.562 121.795 138.986 121.795 140.073C121.795 140.567 121.323 140.885 120.503 140.885C120.052 140.894 119.61 140.77 119.243 140.532Z" fill="#263238"/>
<path d="M124.244 140.661C124.06 140.794 123.832 140.864 123.598 140.861C123.475 140.873 123.351 140.86 123.234 140.823C123.118 140.785 123.012 140.725 122.924 140.645C122.837 140.566 122.77 140.469 122.729 140.363C122.688 140.257 122.674 140.144 122.687 140.032V138.321H122.125V137.998H122.687V137.374H123.107V137.998H124.05V138.321H123.107V140.015C123.096 140.082 123.102 140.151 123.124 140.217C123.147 140.282 123.185 140.342 123.237 140.392C123.289 140.441 123.352 140.48 123.422 140.504C123.493 140.529 123.568 140.538 123.643 140.532C123.813 140.537 123.978 140.484 124.108 140.385L124.244 140.661Z" fill="#263238"/>
<path d="M130.057 137.057V140.832H129.696L127.034 137.768V140.832H126.595V137.057H126.956L129.624 140.12V137.057H130.057Z" fill="#263238"/>
<path d="M133.701 139.074V140.838H133.287V140.397C133.171 140.555 133.01 140.682 132.822 140.765C132.633 140.847 132.424 140.883 132.215 140.867C131.511 140.867 131.078 140.532 131.078 140.038C131.078 139.544 131.388 139.238 132.286 139.238H133.287V139.068C133.287 138.58 132.984 138.315 132.402 138.315C132.025 138.311 131.658 138.43 131.369 138.65L131.175 138.362C131.543 138.101 132 137.966 132.467 137.98C132.631 137.963 132.797 137.979 132.953 138.028C133.109 138.076 133.251 138.155 133.369 138.26C133.487 138.365 133.578 138.492 133.636 138.633C133.693 138.774 133.715 138.924 133.701 139.074ZM133.281 139.979V139.515H132.299C131.698 139.515 131.504 139.732 131.504 140.026C131.504 140.32 131.795 140.555 132.293 140.555C132.504 140.569 132.715 140.52 132.894 140.416C133.073 140.312 133.211 140.159 133.287 139.979H133.281Z" fill="#263238"/>
<path d="M139.987 139.185V140.832H139.567V139.227C139.567 138.639 139.231 138.321 138.669 138.321C138.523 138.315 138.378 138.338 138.243 138.388C138.108 138.439 137.987 138.515 137.888 138.613C137.789 138.71 137.714 138.826 137.669 138.952C137.625 139.079 137.611 139.212 137.629 139.344V140.832H137.209V139.227C137.209 138.639 136.873 138.321 136.305 138.321C136.159 138.315 136.014 138.338 135.879 138.388C135.744 138.439 135.622 138.515 135.523 138.613C135.424 138.71 135.35 138.826 135.305 138.952C135.26 139.079 135.247 139.212 135.265 139.344V140.832H134.845V137.998H135.226V138.515C135.348 138.342 135.518 138.201 135.718 138.106C135.919 138.011 136.143 137.965 136.369 137.974C136.598 137.957 136.828 138.004 137.026 138.109C137.225 138.215 137.383 138.373 137.48 138.562C137.608 138.373 137.789 138.218 138.005 138.115C138.221 138.011 138.464 137.963 138.708 137.974C138.885 137.958 139.063 137.979 139.23 138.035C139.396 138.091 139.547 138.181 139.67 138.298C139.793 138.414 139.885 138.555 139.94 138.708C139.995 138.862 140.011 139.025 139.987 139.185Z" fill="#263238"/>
<path d="M143.856 139.532H141.272C141.282 139.671 141.32 139.806 141.387 139.931C141.454 140.055 141.547 140.166 141.661 140.258C141.775 140.35 141.908 140.42 142.052 140.465C142.196 140.51 142.348 140.529 142.5 140.52C142.679 140.525 142.858 140.495 143.023 140.431C143.188 140.367 143.336 140.271 143.456 140.15L143.689 140.397C143.465 140.609 143.177 140.758 142.861 140.822C142.545 140.887 142.216 140.866 141.913 140.761C141.611 140.656 141.349 140.473 141.16 140.233C140.971 139.994 140.864 139.709 140.853 139.415C140.842 139.227 140.874 139.04 140.946 138.865C141.018 138.689 141.129 138.529 141.272 138.394C141.415 138.259 141.586 138.152 141.777 138.079C141.967 138.007 142.171 137.971 142.377 137.974C142.583 137.97 142.787 138.006 142.977 138.078C143.167 138.15 143.339 138.257 143.481 138.392C143.623 138.528 143.732 138.688 143.803 138.864C143.873 139.04 143.902 139.228 143.889 139.415C143.863 139.45 143.856 139.491 143.856 139.532ZM141.272 139.25H143.482C143.482 138.983 143.365 138.728 143.158 138.539C142.951 138.351 142.67 138.245 142.377 138.245C142.084 138.245 141.803 138.351 141.596 138.539C141.389 138.728 141.272 138.983 141.272 139.25Z" fill="#263238"/>
</g>
<path d="M192.668 114.625H108.146V127.796H192.668V114.625Z" fill="white"/>
<g opacity="0.4">
<path d="M113.21 119.411V120.893H115.355V121.24H113.21V122.839H112.771V119.064H115.613V119.411H113.21Z" fill="#263238"/>
<path d="M116.278 119.105C116.277 119.049 116.294 118.994 116.328 118.946C116.362 118.899 116.41 118.862 116.467 118.84C116.524 118.818 116.587 118.812 116.647 118.822C116.708 118.833 116.764 118.86 116.808 118.9C116.851 118.94 116.881 118.991 116.893 119.046C116.905 119.101 116.898 119.158 116.874 119.21C116.849 119.262 116.809 119.306 116.757 119.337C116.705 119.367 116.644 119.383 116.582 119.382C116.501 119.382 116.424 119.353 116.367 119.301C116.31 119.249 116.278 119.179 116.278 119.105ZM116.369 120.005H116.789V122.839H116.369V120.005Z" fill="#263238"/>
<path d="M119.534 119.981V120.352H119.43C119.282 120.345 119.134 120.369 118.996 120.42C118.859 120.472 118.736 120.551 118.636 120.651C118.536 120.751 118.462 120.87 118.418 120.999C118.374 121.128 118.363 121.265 118.384 121.398V122.845H117.964V120.011H118.364V120.54C118.476 120.352 118.647 120.198 118.855 120.098C119.064 119.999 119.3 119.958 119.534 119.981Z" fill="#263238"/>
<path d="M119.883 122.516L120.07 122.21C120.393 122.423 120.782 122.536 121.181 122.533C121.776 122.533 122.015 122.345 122.015 122.069C122.015 121.328 119.999 121.91 119.999 120.787C119.999 120.328 120.432 119.981 121.226 119.981C121.615 119.974 121.997 120.065 122.331 120.246L122.144 120.552C121.872 120.388 121.552 120.304 121.226 120.311C120.664 120.311 120.419 120.511 120.419 120.781C120.419 121.545 122.435 120.969 122.435 122.057C122.435 122.545 121.963 122.863 121.143 122.863C120.693 122.873 120.251 122.752 119.883 122.516Z" fill="#263238"/>
<path d="M124.889 122.669C124.704 122.797 124.476 122.865 124.243 122.863C124.121 122.876 123.997 122.863 123.88 122.827C123.764 122.79 123.658 122.73 123.57 122.651C123.482 122.572 123.416 122.476 123.375 122.37C123.333 122.264 123.319 122.151 123.333 122.039V120.328H122.771V120.005H123.333V119.364H123.752V119.987H124.696V120.311H123.752V121.998C123.742 122.066 123.748 122.136 123.77 122.201C123.793 122.267 123.831 122.327 123.883 122.377C123.934 122.427 123.997 122.466 124.068 122.491C124.138 122.516 124.213 122.527 124.289 122.522C124.458 122.524 124.622 122.472 124.754 122.375L124.889 122.669Z" fill="#263238"/>
<path d="M130.704 119.064V122.839H130.342L127.68 119.776V122.839H127.241V119.064H127.603L130.271 122.128V119.064H130.704Z" fill="#263238"/>
<path d="M134.341 121.081V122.845H133.934V122.404C133.818 122.561 133.658 122.687 133.471 122.769C133.283 122.85 133.075 122.885 132.868 122.869C132.157 122.869 131.725 122.539 131.725 122.045C131.725 121.551 132.035 121.246 132.933 121.246H133.934V121.069C133.934 120.587 133.63 120.322 133.049 120.322C132.671 120.318 132.305 120.437 132.015 120.658L131.822 120.37C132.19 120.109 132.647 119.973 133.114 119.987C133.277 119.97 133.443 119.986 133.599 120.035C133.754 120.083 133.896 120.163 134.014 120.268C134.132 120.372 134.222 120.5 134.279 120.641C134.335 120.781 134.356 120.932 134.341 121.081ZM133.921 121.987V121.522H132.939C132.338 121.522 132.145 121.74 132.145 122.028C132.145 122.316 132.435 122.563 132.933 122.563C133.145 122.576 133.357 122.528 133.537 122.424C133.717 122.32 133.856 122.167 133.934 121.987H133.921Z" fill="#263238"/>
<path d="M140.626 121.193V122.839H140.206V121.234C140.206 120.646 139.87 120.328 139.308 120.328C139.162 120.322 139.017 120.345 138.882 120.395C138.747 120.446 138.625 120.522 138.526 120.62C138.427 120.717 138.353 120.833 138.308 120.96C138.263 121.086 138.25 121.22 138.268 121.351V122.839H137.848V121.234C137.848 120.646 137.512 120.328 136.943 120.328C136.798 120.322 136.652 120.345 136.517 120.395C136.382 120.446 136.261 120.522 136.162 120.62C136.063 120.717 135.988 120.833 135.944 120.96C135.899 121.086 135.885 121.22 135.903 121.351V122.839H135.483V120.005H135.871V120.54C135.993 120.367 136.163 120.225 136.363 120.131C136.564 120.036 136.788 119.99 137.014 119.999C137.243 119.982 137.473 120.029 137.671 120.134C137.87 120.239 138.029 120.397 138.126 120.587C138.252 120.397 138.433 120.241 138.649 120.138C138.866 120.034 139.109 119.986 139.353 119.999C139.527 119.985 139.703 120.006 139.867 120.062C140.032 120.117 140.18 120.205 140.302 120.32C140.424 120.434 140.516 120.572 140.572 120.723C140.628 120.874 140.646 121.034 140.626 121.193Z" fill="#263238"/>
<path d="M144.495 121.54H141.911C141.92 121.678 141.959 121.813 142.026 121.938C142.092 122.062 142.185 122.174 142.299 122.266C142.414 122.357 142.546 122.428 142.69 122.473C142.834 122.518 142.987 122.536 143.139 122.528C143.319 122.533 143.498 122.502 143.663 122.437C143.828 122.372 143.976 122.274 144.095 122.151L144.327 122.404C144.103 122.617 143.816 122.765 143.5 122.83C143.184 122.894 142.854 122.873 142.552 122.768C142.249 122.664 141.987 122.48 141.799 122.241C141.61 122.001 141.503 121.716 141.491 121.422C141.481 121.235 141.512 121.048 141.584 120.872C141.657 120.696 141.767 120.536 141.91 120.401C142.053 120.266 142.225 120.159 142.415 120.087C142.605 120.015 142.81 119.979 143.016 119.981C143.222 119.978 143.426 120.013 143.616 120.085C143.806 120.157 143.977 120.264 144.119 120.4C144.261 120.535 144.371 120.696 144.441 120.872C144.512 121.048 144.541 121.235 144.527 121.422C144.502 121.451 144.495 121.493 144.495 121.54ZM141.911 121.252H144.12C144.12 120.985 144.004 120.729 143.797 120.541C143.59 120.352 143.309 120.246 143.016 120.246C142.723 120.246 142.442 120.352 142.235 120.541C142.028 120.729 141.911 120.985 141.911 121.252Z" fill="#263238"/>
</g>
<path d="M76.3432 226.545H75.7295C75.7295 225.716 76.4853 206.288 80.1998 203.025C84.0177 199.644 88.5074 202.978 88.5461 203.025L88.1585 203.448C87.9906 203.325 84.0435 200.408 80.6197 203.448C77.0861 206.511 76.3497 226.345 76.3432 226.545Z" fill="#92E3A9"/>
<path d="M76.0333 230.443L75.426 230.39C75.426 230.155 77.8291 206.8 68.5332 197.086L68.9919 196.721C78.4622 206.617 76.0591 230.208 76.0333 230.443Z" fill="#92E3A9"/>
<path d="M76.3305 227.95C76.253 226.845 74.4636 200.902 81.6084 194.904L82.0218 195.316C75.0902 201.114 76.9184 227.656 76.9378 227.909L76.3305 227.95Z" fill="#92E3A9"/>
<path d="M75.4264 227.932C75.4264 227.756 75.2068 210.292 70.1228 207.664C69.6906 207.405 69.1962 207.244 68.6813 207.194C68.1663 207.145 67.646 207.21 67.1641 207.382C64.186 208.505 62.6033 213.679 62.584 213.732L61.9961 213.585C62.0607 213.362 63.6757 208.099 66.9315 206.87C67.4987 206.663 68.1125 206.583 68.7208 206.637C69.3292 206.691 69.9142 206.878 70.4264 207.182C75.8076 209.987 76.0337 227.174 76.0401 227.926L75.4264 227.932Z" fill="#92E3A9"/>
<path d="M77.5192 227.944C77.4804 227.356 76.6988 214.161 80.8138 209.263C81.912 207.964 83.1265 207.346 84.4443 207.435C87.3707 207.617 89.6123 211.227 89.735 211.38L89.2053 211.657C89.2053 211.621 86.996 208.129 84.3991 207.987C83.3073 207.911 82.2608 208.458 81.2983 209.604C77.3189 214.308 78.12 227.779 78.1264 227.915L77.5192 227.944Z" fill="#92E3A9"/>
<path d="M76.699 229.773L76.0917 229.732C76.0917 229.414 78.6757 197.909 74.4121 192.652L74.9031 192.323C79.3088 197.744 76.8088 228.467 76.699 229.773Z" fill="#92E3A9"/>
<path d="M65.749 210.004C65.749 210.004 68.3847 210.892 67.603 212.979C66.8213 215.067 58.475 218.507 58.475 218.507C58.475 218.507 54.9802 215.596 58.1908 210.863C61.4014 206.129 65.6779 208.511 65.749 210.004Z" fill="#92E3A9"/>
<path opacity="0.2" d="M65.749 210.004C65.749 210.004 68.3847 210.892 67.603 212.979C66.8213 215.067 58.475 218.507 58.475 218.507C58.475 218.507 54.9802 215.596 58.1908 210.863C61.4014 206.129 65.6779 208.511 65.749 210.004Z" fill="black"/>
<path d="M77.2159 206.029C77.2159 206.029 74.4058 205.924 74.2443 208.123C74.0828 210.322 80.3167 216.425 80.3167 216.425C80.3167 216.425 84.7741 214.955 83.818 209.457C82.8619 203.96 77.9136 204.671 77.2159 206.029Z" fill="#92E3A9"/>
<path opacity="0.2" d="M77.2159 206.029C77.2159 206.029 74.4058 205.924 74.2443 208.123C74.0828 210.322 80.3167 216.425 80.3167 216.425C80.3167 216.425 84.7741 214.955 83.818 209.457C82.8619 203.96 77.9136 204.671 77.2159 206.029Z" fill="black"/>
<path d="M79.5926 195.481C79.5926 195.481 77.7192 195.298 77.8678 194.263C78.0163 193.229 85.1482 190.553 89.3537 194.851C89.3537 194.851 86.6598 199.062 82.7709 199.12C78.882 199.179 79.5926 195.481 79.5926 195.481Z" fill="#92E3A9"/>
<path opacity="0.2" d="M79.5926 195.481C79.5926 195.481 77.7192 195.298 77.8678 194.263C78.0163 193.229 85.1482 190.553 89.3537 194.851C89.3537 194.851 86.6598 199.062 82.7709 199.12C78.882 199.179 79.5926 195.481 79.5926 195.481Z" fill="black"/>
<path d="M76.1041 192.958C76.1041 192.958 77.7966 193.705 78.2747 192.752C78.7527 191.8 74.2501 186.102 68.1712 187.743C68.1712 187.743 68.0097 192.611 71.2785 194.534C74.5473 196.457 76.1041 192.958 76.1041 192.958Z" fill="#92E3A9"/>
<path opacity="0.2" d="M76.1041 192.958C76.1041 192.958 77.7966 193.705 78.2747 192.752C78.7527 191.8 74.2501 186.102 68.1712 187.743C68.1712 187.743 68.0097 192.611 71.2785 194.534C74.5473 196.457 76.1041 192.958 76.1041 192.958Z" fill="black"/>
<path d="M84.967 209.169C84.967 209.169 83.675 208.217 85.0704 207.752C86.4657 207.288 93.3069 207.423 93.3779 213.591C93.3779 213.591 85.4063 214.797 84.4244 212.445C83.4425 210.093 84.967 209.169 84.967 209.169Z" fill="#92E3A9"/>
<path opacity="0.2" d="M84.967 209.169C84.967 209.169 83.675 208.217 85.0704 207.752C86.4657 207.288 93.3069 207.423 93.3779 213.591C93.3779 213.591 85.4063 214.797 84.4244 212.445C83.4425 210.093 84.967 209.169 84.967 209.169Z" fill="black"/>
<path d="M68.6883 195.328C68.6883 195.328 69.9803 194.375 68.5849 193.917C67.1895 193.458 60.3484 193.581 60.2773 199.749C60.2773 199.749 68.249 200.961 69.2309 198.609C70.2128 196.257 68.6883 195.328 68.6883 195.328Z" fill="#92E3A9"/>
<path opacity="0.2" d="M68.6883 195.328C68.6883 195.328 69.9803 194.375 68.5849 193.917C67.1895 193.458 60.3484 193.581 60.2773 199.749C60.2773 199.749 68.249 200.961 69.2309 198.609C70.2128 196.257 68.6883 195.328 68.6883 195.328Z" fill="black"/>
<path d="M72.9257 200.296C72.9257 200.296 73.042 199.12 72.0148 199.597C70.9877 200.073 67.4282 203.554 71.1233 206.876C71.1233 206.876 76.104 203.519 75.2061 201.772C74.3081 200.026 72.9257 200.296 72.9257 200.296Z" fill="#92E3A9"/>
<path opacity="0.2" d="M72.9257 200.296C72.9257 200.296 73.042 199.12 72.0148 199.597C70.9877 200.073 67.4282 203.554 71.1233 206.876C71.1233 206.876 76.104 203.519 75.2061 201.772C74.3081 200.026 72.9257 200.296 72.9257 200.296Z" fill="black"/>
<path d="M86.1305 201.943C86.1305 201.943 85.3553 201.02 86.4923 200.908C87.6292 200.796 92.6939 202.025 91.5117 206.635C91.5117 206.635 85.3359 206.212 85.0517 204.283C84.7674 202.354 86.1305 201.943 86.1305 201.943Z" fill="#92E3A9"/>
<path opacity="0.2" d="M86.1305 201.943C86.1305 201.943 85.3553 201.02 86.4923 200.908C87.6292 200.796 92.6939 202.025 91.5117 206.635C91.5117 206.635 85.3359 206.212 85.0517 204.283C84.7674 202.354 86.1305 201.943 86.1305 201.943Z" fill="black"/>
<path d="M66.2078 245.031H86.1757L88.8307 227.356H63.5527L66.2078 245.031Z" fill="#263238"/>
<path opacity="0.2" d="M66.2078 245.031H86.1757L88.8307 227.356H63.5527L66.2078 245.031Z" fill="white"/>
<path d="M91.3372 225.921V227.603C91.3372 228.143 91.1017 228.66 90.6825 229.042C90.2634 229.423 89.6948 229.638 89.102 229.638H63.0359C62.4431 229.638 61.8746 229.423 61.4554 229.042C61.0363 228.66 60.8008 228.143 60.8008 227.603V225.921H91.3372Z" fill="#263238"/>
<path d="M257.72 58.3943H239.161C237.646 58.3943 236.194 58.9419 235.123 59.9167C234.052 60.8915 233.45 62.2136 233.45 63.5922V78.2922C233.449 78.9753 233.596 79.6519 233.883 80.2832C234.17 80.9145 234.59 81.4882 235.121 81.9715C235.651 82.4548 236.281 82.8382 236.974 83.0998C237.667 83.3614 238.41 83.496 239.161 83.496H244.581L243.289 88.1353L248.457 83.496H257.753C259.269 83.496 260.723 82.9478 261.795 81.9718C262.867 80.9959 263.47 79.6723 263.47 78.2922V63.5922C263.47 62.9066 263.321 62.2278 263.031 61.5949C262.742 60.9619 262.318 60.3873 261.784 59.9042C261.249 59.4211 260.615 59.0389 259.918 58.7798C259.22 58.5206 258.474 58.3896 257.72 58.3943Z" fill="#92E3A9"/>
<path opacity="0.7" d="M257.72 58.3943H239.161C237.646 58.3943 236.194 58.9419 235.123 59.9167C234.052 60.8915 233.45 62.2136 233.45 63.5922V78.2922C233.449 78.9753 233.596 79.6519 233.883 80.2832C234.17 80.9145 234.59 81.4882 235.121 81.9715C235.651 82.4548 236.281 82.8382 236.974 83.0998C237.667 83.3614 238.41 83.496 239.161 83.496H244.581L243.289 88.1353L248.457 83.496H257.753C259.269 83.496 260.723 82.9478 261.795 81.9718C262.867 80.9959 263.47 79.6723 263.47 78.2922V63.5922C263.47 62.9066 263.321 62.2278 263.031 61.5949C262.742 60.9619 262.318 60.3873 261.784 59.9042C261.249 59.4211 260.615 59.0389 259.918 58.7798C259.22 58.5206 258.474 58.3896 257.72 58.3943Z" fill="white"/>
<path d="M248.444 77.4395C252.422 77.4395 255.647 74.5042 255.647 70.8833C255.647 67.2625 252.422 64.3271 248.444 64.3271C244.466 64.3271 241.241 67.2625 241.241 70.8833C241.241 74.5042 244.466 77.4395 248.444 77.4395Z" fill="white"/>
<path d="M248.443 62.4985C246.621 62.4985 244.84 62.9903 243.326 63.9116C241.811 64.833 240.63 66.1425 239.933 67.6747C239.235 69.2068 239.053 70.8927 239.408 72.5192C239.764 74.1457 240.641 75.6398 241.93 76.8124C243.218 77.9851 244.859 78.7836 246.646 79.1072C248.433 79.4307 250.285 79.2647 251.969 78.63C253.652 77.9954 255.091 76.9207 256.103 75.5418C257.115 74.1629 257.655 72.5418 257.655 70.8834C257.656 69.7821 257.419 68.6914 256.956 67.6737C256.493 66.6561 255.815 65.7314 254.959 64.9527C254.104 64.1739 253.088 63.5563 251.97 63.1352C250.852 62.7141 249.653 62.4978 248.443 62.4985ZM253.67 68.3785L248.12 74.3291C248.042 74.4151 247.943 74.484 247.831 74.5308C247.719 74.5776 247.597 74.6011 247.474 74.5996C247.352 74.6003 247.23 74.5764 247.118 74.5296C247.007 74.4829 246.908 74.4145 246.828 74.3291L243.217 70.4542C243.141 70.3776 243.082 70.2877 243.045 70.1901C243.008 70.0924 242.992 69.9889 243 69.8857C243.007 69.7826 243.038 69.6818 243.089 69.5895C243.14 69.4972 243.211 69.4152 243.298 69.3485C243.385 69.2818 243.486 69.2316 243.594 69.201C243.703 69.1704 243.817 69.1601 243.93 69.1705C244.043 69.181 244.152 69.212 244.252 69.2618C244.351 69.3116 244.439 69.3792 244.509 69.4605L247.474 72.6415L252.378 67.3848C252.525 67.2369 252.73 67.1468 252.948 67.1336C253.167 67.1203 253.383 67.1849 253.551 67.3138C253.718 67.4426 253.824 67.6257 253.846 67.8243C253.869 68.0229 253.805 68.2216 253.67 68.3785Z" fill="#92E3A9"/>
<path d="M254.503 149.093C254.503 149.093 243.256 147.8 226.215 152.033C226.215 152.033 223.476 124.315 223.799 120.505C224.122 116.695 250.111 117.812 250.111 117.812C250.111 117.812 250.757 128.907 252.449 135.599C254.142 142.29 255.382 147.806 254.503 149.093Z" fill="#92E3A9"/>
<path opacity="0.2" d="M254.503 149.093C254.503 149.093 243.256 147.8 226.215 152.033C226.215 152.033 223.476 124.315 223.799 120.505C224.122 116.695 250.111 117.812 250.111 117.812C250.111 117.812 250.757 128.907 252.449 135.599C254.142 142.29 255.382 147.806 254.503 149.093Z" fill="black"/>
<path d="M217.998 240.857L222.585 242.039L223.676 235.541L224.264 232.066L219.678 230.884L218.896 235.541L217.998 240.857Z" fill="#E4897B"/>
<path d="M244.368 241.198L249.097 241.768L249.142 235.541L249.174 231.672L244.439 231.108L244.407 235.541L244.368 241.198Z" fill="#E4897B"/>
<path opacity="0.2" d="M244.439 231.108L244.406 235.541H249.141L249.174 231.672L244.439 231.108Z" fill="black"/>
<path opacity="0.2" d="M218.896 235.541H223.677L224.265 232.066L219.678 230.884L218.896 235.541Z" fill="black"/>
<path d="M197.636 122.78L193.082 121.557L193.915 126.291C193.915 126.291 198.05 127.155 198.437 125.197L197.636 122.78Z" fill="#E4897B"/>
<path d="M188.534 122.657L190.769 126.502L193.915 126.291L193.082 121.557L188.534 122.657Z" fill="#E4897B"/>
<path d="M203.922 123.992L196.441 122.469L195.763 125.773L202.552 127.278L203.922 123.992Z" fill="#E4897B"/>
<path d="M226.551 121.005L226.112 121.481C225.169 122.486 222.882 124.915 220.498 127.008C218.56 128.713 216.622 130.201 215.33 130.501C211.668 131.359 198.354 127.79 198.354 127.79L199.729 122.874C199.729 122.874 212.133 124.374 213.095 124.374C213.825 124.374 221.37 114.425 223.199 113.608L226.551 121.005Z" fill="#92E3A9"/>
<path opacity="0.2" d="M226.112 121.481C225.169 122.486 222.882 124.915 220.498 127.008C220.976 123.562 222.365 120.399 224.193 118.4C224.364 118.207 224.559 118.033 224.775 117.882L226.112 121.481Z" fill="black"/>
<path d="M218.056 240.204L223.263 240.08C223.357 240.078 223.449 240.104 223.524 240.155C223.599 240.207 223.653 240.28 223.676 240.363L224.774 244.179C224.801 244.27 224.804 244.366 224.784 244.458C224.764 244.551 224.722 244.638 224.66 244.714C224.598 244.79 224.518 244.852 224.426 244.896C224.334 244.939 224.232 244.964 224.128 244.967C222.249 244.967 219.529 244.967 217.171 245.008C214.406 245.078 212.649 244.955 209.419 245.008C207.481 245.055 206.835 243.279 207.662 243.097C211.363 242.262 213.786 242.427 216.938 240.545C217.271 240.343 217.657 240.225 218.056 240.204Z" fill="#263238"/>
<path d="M217.605 240.815C216.842 240.968 215.486 241.174 214.943 240.768C214.864 240.709 214.802 240.633 214.761 240.547C214.721 240.461 214.703 240.368 214.711 240.274C214.71 240.219 214.726 240.163 214.757 240.115C214.788 240.066 214.832 240.026 214.885 239.998C215.46 239.686 217.404 240.527 217.63 240.621C217.65 240.631 217.667 240.646 217.678 240.663C217.69 240.681 217.695 240.701 217.695 240.721C217.694 240.744 217.684 240.766 217.668 240.783C217.652 240.8 217.629 240.811 217.605 240.815ZM215.021 240.163H214.982C214.96 240.174 214.942 240.19 214.93 240.21C214.917 240.23 214.911 240.252 214.911 240.274C214.905 240.335 214.916 240.396 214.942 240.453C214.968 240.509 215.008 240.559 215.059 240.598C215.363 240.827 216.151 240.851 217.198 240.663C216.442 240.374 215.389 240.039 215.034 240.163H215.021Z" fill="#92E3A9"/>
<path d="M217.604 240.815H217.527C216.939 240.592 215.763 239.686 215.828 239.198C215.828 239.081 215.931 238.934 216.241 238.899C216.355 238.885 216.471 238.892 216.582 238.919C216.692 238.947 216.796 238.993 216.887 239.057C217.533 239.498 217.682 240.657 217.695 240.704C217.697 240.722 217.693 240.74 217.685 240.756C217.678 240.773 217.665 240.787 217.649 240.798L217.604 240.815ZM216.157 239.128C216.06 239.157 216.054 239.204 216.054 239.222C216.015 239.516 216.816 240.233 217.417 240.539C217.348 240.045 217.108 239.584 216.732 239.222C216.668 239.173 216.594 239.137 216.514 239.117C216.433 239.097 216.349 239.092 216.267 239.104C216.229 239.107 216.192 239.115 216.157 239.128Z" fill="#92E3A9"/>
<path d="M244.556 240.204L249.762 240.08C249.857 240.077 249.95 240.104 250.026 240.155C250.103 240.206 250.158 240.279 250.182 240.363L251.274 244.179C251.302 244.27 251.306 244.366 251.286 244.459C251.267 244.552 251.225 244.64 251.162 244.716C251.1 244.792 251.02 244.854 250.927 244.898C250.834 244.941 250.732 244.965 250.628 244.967C248.748 244.967 246.028 244.967 243.664 245.008C240.906 245.078 239.142 244.955 235.912 245.008C233.974 245.055 233.328 243.279 234.155 243.097C237.857 242.262 240.273 242.427 243.425 240.545C243.762 240.341 244.152 240.223 244.556 240.204Z" fill="#263238"/>
<path d="M244.11 240.815C243.347 240.968 241.984 241.174 241.448 240.768C241.369 240.709 241.307 240.633 241.266 240.547C241.226 240.461 241.208 240.368 241.215 240.274C241.215 240.219 241.231 240.163 241.262 240.115C241.292 240.066 241.337 240.026 241.39 239.998C241.958 239.686 243.909 240.527 244.129 240.621C244.15 240.629 244.168 240.643 244.18 240.661C244.192 240.679 244.197 240.701 244.193 240.721C244.192 240.743 244.183 240.764 244.168 240.78C244.153 240.797 244.132 240.809 244.11 240.815ZM241.526 240.163H241.487C241.465 240.174 241.448 240.19 241.437 240.21C241.425 240.23 241.42 240.252 241.422 240.274C241.416 240.335 241.426 240.397 241.452 240.453C241.478 240.51 241.519 240.559 241.571 240.598C241.874 240.827 242.656 240.851 243.709 240.663C242.94 240.374 241.887 240.039 241.532 240.163H241.526Z" fill="#92E3A9"/>
<path d="M244.11 240.815H244.026C243.444 240.592 242.262 239.687 242.333 239.198C242.333 239.081 242.43 238.934 242.74 238.899C242.854 238.884 242.97 238.891 243.081 238.918C243.192 238.946 243.296 238.993 243.386 239.057C243.838 239.516 244.121 240.092 244.194 240.704C244.197 240.722 244.194 240.74 244.186 240.757C244.178 240.774 244.165 240.788 244.148 240.798L244.11 240.815ZM242.656 239.128C242.566 239.157 242.559 239.204 242.559 239.222C242.514 239.516 243.322 240.233 243.922 240.539C243.848 240.046 243.609 239.586 243.238 239.222C243.174 239.174 243.099 239.138 243.019 239.118C242.939 239.097 242.855 239.093 242.772 239.104L242.656 239.128Z" fill="#92E3A9"/>
<path d="M254.122 146.565C256.629 156.449 252.327 234.212 252.327 234.212H244.019L240.466 169.409L227.384 234.212L218.502 233.624C224.316 183.421 229.439 153.45 229.439 153.45V149.664L254.122 146.565Z" fill="#263238"/>
<path opacity="0.4" d="M218.502 233.624L227.384 234.212L237.682 183.197L240.466 169.409L244.019 234.212H252.327C252.327 234.212 256.629 156.449 254.122 146.565L229.426 149.664V153.45C229.426 153.45 224.309 183.421 218.502 233.624Z" fill="white"/>
<path d="M249.646 109.956C249.391 114.682 249.523 119.419 250.04 124.127C250.389 127.42 250.867 130.53 251.377 133.335C252.572 139.915 253.929 144.848 254.123 146.571L229.426 149.67C220.421 126.738 223.813 113.414 223.813 113.414C225.659 112.72 227.551 112.13 229.478 111.65C229.885 111.55 230.298 111.455 230.725 111.367C234.193 110.746 237.698 110.306 241.222 110.05C241.868 109.997 242.572 109.956 243.231 109.927C246.603 109.774 249.646 109.956 249.646 109.956Z" fill="#263238"/>
<path d="M236.428 99.6366C236.609 102.782 236.977 108.686 239.852 110.185C239.852 110.185 238.063 113.284 234.193 113.602C231.267 113.837 231.461 111.208 231.461 111.208C233.153 110.062 232.753 108.116 231.461 105.916L236.428 99.6366Z" fill="#E4897B"/>
<path opacity="0.2" d="M234.4 102.2L231.48 105.916C231.788 106.425 232.047 106.956 232.256 107.504C233.612 107.01 235.169 105.152 234.943 103.806C234.872 103.245 234.688 102.7 234.4 102.2Z" fill="black"/>
<path d="M223.831 93.3039C223.269 94.9385 223.579 98.2901 226.079 97.2023C228.579 96.1145 224.8 90.4991 223.831 93.3039Z" fill="#263238"/>
<path d="M236.751 95.5148C237.029 99.7072 237.397 102.147 235.388 104.523C232.333 108.092 226.415 106.763 224.762 102.718C223.276 99.0722 223.076 92.8276 227.346 90.7108C228.292 90.2421 229.354 89.9996 230.431 90.006C231.509 90.0124 232.567 90.2675 233.507 90.7475C234.446 91.2274 235.237 91.9165 235.805 92.7503C236.372 93.584 236.698 94.5352 236.751 95.5148Z" fill="#E4897B"/>
<path d="M233.521 93.2333V88.5293C233.521 88.5293 239 88.1588 238.754 90.7107C241.79 92.0808 240.356 96.3791 236.28 98.4841C234.045 96.8553 234.303 92.9393 234.303 92.9393C234.064 93.051 233.793 93.1451 233.521 93.2333Z" fill="#263238"/>
<path d="M238.98 98.7841C238.875 99.297 238.657 99.7854 238.341 100.221C238.025 100.656 237.616 101.029 237.139 101.318C235.847 102.089 234.73 101.142 234.684 99.819C234.646 98.643 235.259 96.7849 236.745 96.5497C237.07 96.5036 237.403 96.5315 237.713 96.631C238.023 96.7305 238.301 96.8985 238.523 97.1198C238.744 97.3412 238.902 97.6091 238.982 97.8995C239.062 98.19 239.061 98.4939 238.98 98.7841Z" fill="#E4897B"/>
<path d="M229.949 97.3846C229.994 97.7256 229.833 98.0196 229.587 98.0432C229.342 98.0667 229.109 97.8138 229.064 97.4552C229.019 97.0965 229.181 96.8201 229.42 96.7966C229.659 96.7731 229.904 97.02 229.949 97.3846Z" fill="#263238"/>
<path d="M225.725 97.8138C225.77 98.1548 225.608 98.4488 225.363 98.4723C225.117 98.4959 224.885 98.243 224.84 97.8843C224.794 97.5257 224.956 97.2493 225.201 97.2258C225.447 97.2023 225.666 97.4728 225.725 97.8138Z" fill="#263238"/>
<path d="M227.087 97.8433C226.761 98.8947 226.276 99.8999 225.646 100.83C225.925 100.961 226.231 101.036 226.544 101.051C226.857 101.066 227.169 101.021 227.462 100.919L227.087 97.8433Z" fill="#DE5753"/>
<path d="M229.639 102.012C229.48 102.049 229.318 102.077 229.155 102.094C229.126 102.094 229.098 102.084 229.077 102.065C229.056 102.046 229.045 102.021 229.045 101.994C229.045 101.968 229.056 101.943 229.077 101.924C229.098 101.905 229.126 101.894 229.155 101.894C229.619 101.856 230.066 101.719 230.461 101.494C230.856 101.27 231.188 100.964 231.429 100.601C231.434 100.589 231.442 100.578 231.453 100.569C231.463 100.561 231.475 100.554 231.488 100.549C231.502 100.545 231.516 100.543 231.53 100.544C231.544 100.545 231.558 100.548 231.571 100.554C231.584 100.56 231.596 100.568 231.606 100.577C231.616 100.587 231.623 100.599 231.628 100.612C231.633 100.624 231.635 100.638 231.634 100.651C231.633 100.664 231.629 100.677 231.622 100.689C231.411 101.023 231.126 101.313 230.784 101.541C230.443 101.769 230.053 101.929 229.639 102.012Z" fill="#263238"/>
<path d="M231.086 96.0146C231.047 96.0229 231.006 96.0218 230.967 96.0115C230.929 96.0012 230.894 95.982 230.866 95.9558C230.679 95.7692 230.447 95.6248 230.188 95.534C229.929 95.4431 229.65 95.4084 229.374 95.4325C229.345 95.4385 229.316 95.439 229.287 95.4342C229.258 95.4293 229.231 95.4191 229.207 95.4042C229.183 95.3893 229.162 95.3701 229.146 95.3476C229.131 95.3252 229.12 95.3 229.115 95.2737C229.11 95.2478 229.11 95.2212 229.116 95.1954C229.121 95.1695 229.133 95.1449 229.149 95.1231C229.165 95.1012 229.186 95.0825 229.21 95.068C229.234 95.0535 229.261 95.0435 229.29 95.0385C229.639 95.0007 229.992 95.0391 230.321 95.1506C230.651 95.2621 230.946 95.4434 231.183 95.6794C231.204 95.6976 231.221 95.7194 231.232 95.7437C231.244 95.768 231.25 95.7941 231.25 95.8206C231.25 95.847 231.244 95.8731 231.232 95.8974C231.221 95.9217 231.204 95.9435 231.183 95.9617C231.155 95.9856 231.122 96.0037 231.086 96.0146Z" fill="#263238"/>
<path d="M223.729 96.679C223.687 96.6934 223.641 96.6934 223.599 96.679C223.545 96.6616 223.5 96.6253 223.474 96.5779C223.449 96.5306 223.445 96.476 223.464 96.4261C223.57 96.1235 223.756 95.8488 224.005 95.6256C224.253 95.4024 224.557 95.2372 224.891 95.1443C224.948 95.131 225.008 95.1388 225.058 95.1658C225.108 95.1928 225.145 95.2369 225.159 95.2883C225.174 95.3398 225.166 95.3944 225.136 95.4402C225.106 95.4859 225.058 95.5191 225.001 95.5324C224.737 95.6064 224.497 95.7385 224.302 95.9169C224.107 96.0953 223.964 96.3146 223.884 96.5555C223.871 96.5863 223.851 96.6138 223.824 96.6354C223.796 96.657 223.764 96.672 223.729 96.679Z" fill="#263238"/>
<path d="M235.951 94.9738C235.951 94.9738 232.721 93.8977 231.248 92.1925C231.248 92.1925 228.315 92.8923 227.714 93.9565C227.44 93.7429 227.263 93.4443 227.216 93.1186C227.17 92.7928 227.257 92.4629 227.462 92.1925C227.462 92.1925 225.266 92.6159 224.833 93.9565C224.476 93.8019 224.183 93.5471 223.997 93.2295C223.811 92.912 223.742 92.5485 223.8 92.1925C223.8 92.1925 222.824 92.5277 222.508 93.9565C222.508 93.9565 220.085 89.3584 228.089 88.0413C227.483 87.8542 226.849 87.7569 226.209 87.7532C226.209 87.7532 231.797 85.701 236.222 87.5768C240.647 89.4525 239.878 93.0863 235.951 94.9738Z" fill="#263238"/>
<path d="M256.028 150.528L248.276 151.469C248.276 151.469 245.078 131.13 243.67 124.562V110.544L247.72 109.574L250.86 110.544C251.721 113.364 252.383 116.232 252.843 119.129C253.224 121.328 253.567 123.68 253.87 126.061C254.29 129.307 254.639 132.612 254.936 135.705C255.401 140.697 255.711 145.113 255.879 147.811C255.976 149.505 256.028 150.528 256.028 150.528Z" fill="#92E3A9"/>
<path d="M243.677 124.55C243.677 124.55 244.323 114.654 247.728 109.55C247.728 109.55 247.644 108.092 246.965 107.857C246.287 107.622 243.677 109.033 243.677 109.033C243.677 109.033 242.056 108.022 241.7 108.492C241.345 108.962 240.48 112.09 243.677 124.55Z" fill="#92E3A9"/>
<path opacity="0.7" d="M243.677 124.55C243.677 124.55 244.323 114.654 247.728 109.55C247.728 109.55 247.644 108.092 246.965 107.857C246.287 107.622 243.677 109.033 243.677 109.033C243.677 109.033 242.056 108.022 241.7 108.492C241.345 108.962 240.48 112.09 243.677 124.55Z" fill="white"/>
<path d="M226.054 153.239L226.939 153.827C226.939 153.827 225.647 147.27 226.176 130.689C226.176 129.889 226.234 129.119 226.267 128.384C226.913 114.354 229.316 111.802 229.497 111.649L227.262 112.343L223.211 113.613C221.99 125.579 226.054 153.239 226.054 153.239Z" fill="#92E3A9"/>
<path d="M226.403 125.967C226.403 125.967 224.167 116.348 224.833 113.031C225.498 109.715 227.882 111.191 227.882 111.191C227.882 111.191 230.072 109.58 230.724 111.356C230.724 111.356 227.714 113.284 226.403 125.967Z" fill="#92E3A9"/>
<path opacity="0.7" d="M226.403 125.967C226.403 125.967 224.167 116.348 224.833 113.031C225.498 109.715 227.882 111.191 227.882 111.191C227.882 111.191 230.072 109.58 230.724 111.356C230.724 111.356 227.714 113.284 226.403 125.967Z" fill="white"/>
<path opacity="0.2" d="M253.858 126.038C250.551 124.35 250.111 119.946 250.111 119.946C250.312 119.876 251.539 119.493 252.831 119.105C253.212 121.304 253.555 123.656 253.858 126.038Z" fill="black"/>
<path opacity="0.2" d="M237.681 183.197L240.466 169.409L239.93 162.112C239.93 162.112 236.112 174.765 237.681 183.197Z" fill="black"/>
<path opacity="0.2" d="M255.867 147.788C253.787 147.659 251.991 147.535 251.991 147.535L251.597 139.838C252.245 139.469 253.023 139.338 253.774 139.474C254.285 138.244 254.672 136.975 254.93 135.681C255.382 140.673 255.699 145.095 255.867 147.788Z" fill="black"/>
<path d="M256.578 135.675L252.527 141.596L255.732 143.272L259.536 137.939L256.578 135.675Z" fill="#E4897B"/>
<path d="M250.686 110.45C253.412 110.72 265.001 125.197 265.512 129.56C266.022 133.923 258.703 141.455 258.703 141.455L253.819 138.839C253.819 138.839 258.78 131.894 259.039 130.019C259.297 128.143 249.963 120.564 249.963 120.564C249.257 118.818 248.868 116.978 248.813 115.119C248.683 111.932 250.686 110.45 250.686 110.45Z" fill="#92E3A9"/>
<path d="M251.59 139.844C251.59 139.844 255.757 140.656 257.437 143.043C257.437 143.043 255.692 148.011 254.446 148.552C253.199 149.093 250.111 149.093 250.111 149.093C250.111 149.093 249.911 143.566 251.59 139.844Z" fill="#92E3A9"/>
</g>
<defs>
<clipPath id="clip0_136_26794">
<rect width="323" height="294" fill="white" transform="translate(0.211914)"/>
</clipPath>
</defs>
</svg>
